SplineFontDB: 3.2
FontName: SeriousShannsItalic
FullName: Serious Shanns Italic
FamilyName: Serious Shanns Italic
Weight: Book
Copyright: https://github.com/kaBeech/serious-shanns/blob/main/LICENSE
Version: 6.0.0
ItalicAngle: -12.7
UnderlinePosition: 0
UnderlineWidth: 0
Ascent: 800
Descent: 200
InvalidEm: 0
sfntRevision: 0x00003333
LayerCount: 2
Layer: 0 0 "Back" 1
Layer: 1 0 "Fore" 0
XUID: [1021 45 630387186 1984481]
StyleMap: 0x0040
FSType: 4
OS2Version: 3
OS2_WeightWidthSlopeOnly: 0
OS2_UseTypoMetrics: 0
CreationTime: 1532631502
ModificationTime: 315532800
PfmFamily: 81
TTFWeight: 400
TTFWidth: 5
LineGap: 0
VLineGap: 0
Panose: 0 0 0 0 0 0 0 0 0 0
OS2TypoAscent: 613
OS2TypoAOffset: 0
OS2TypoDescent: -188
OS2TypoDOffset: 0
OS2TypoLinegap: 98
OS2WinAscent: 778
OS2WinAOffset: 0
OS2WinDescent: 308
OS2WinDOffset: 0
HheadAscent: 796
HheadAOffset: 0
HheadDescent: -317
HheadDOffset: 0
OS2SubXSize: 317
OS2SubYSize: 293
OS2SubXOff: 0
OS2SubYOff: 37
OS2SupXSize: 317
OS2SupYSize: 293
OS2SupXOff: 0
OS2SupYOff: 171
OS2StrikeYSize: 0
OS2StrikeYPos: 132
OS2CapHeight: 576
OS2XHeight: 485
OS2Vendor: 'NONE'
OS2CodePages: 00000001.00000000
OS2UnicodeRanges: 00000001.00000000.00000000.00000000
MarkAttachClasses: 1
DEI: 91125
LangName: 1033 "" "" "Normal" "" "" "Version 0.2.0"
Encoding: UnicodeBmp
Compacted: 1
UnicodeInterp: none
NameList: AGL For New Fonts
DisplaySize: -48
AntiAlias: 1
FitToEm: 0
WinInfo: 0 16 14
BeginPrivate: 8
BlueValues 32 [-40 -6 497 511 708 718 765 769]
OtherBlues 11 [-298 -287]
BlueScale 9 0.0291667
BlueShift 1 2
StdHW 4 [86]
StdVW 4 [58]
StemSnapH 19 [82 85 86 89 90 94]
StemSnapV 7 [58 68]
EndPrivate
BeginChars: 65537 123

StartChar: .notdef
Encoding: 65536 -1 0
Width: 620
GlyphClass: 1
Flags: W
HStem: -268 54<109.699 407.699> 695 54<319.699 617.699>
LayerCount: 2
Fore
SplineSet
47.69921875 -268 m 1
 281.69921875 749 l 1
 680.69921875 749 l 1
 445.69921875 -268 l 1
 47.69921875 -268 l 1
109.69921875 -214 m 1
 407.69921875 -214 l 1
 617.69921875 695 l 1
 319.69921875 695 l 1
 109.69921875 -214 l 1
EndSplineSet
EndChar

StartChar: exclam
Encoding: 33 33 12
Width: 620
GlyphClass: 2
Flags: HMW
HStem: -24.001 152.997
VStem: 246.783 151
LayerCount: 2
Fore
SplineSet
533.786132812 738 m 0
 532.453125 732 521.116210938 688.166015625 499.783203125 606.499023438 c 0
 478.450195312 524.83203125 462.450195312 458.33203125 451.783203125 406.999023438 c 0
 441.116210938 356.999023438 434.116210938 327.166015625 430.783203125 317.499023438 c 0
 427.450195312 307.83203125 423.450195312 292.33203125 418.783203125 270.999023438 c 0
 414.116210938 256.33203125 406.116210938 244.83203125 394.783203125 236.499023438 c 0
 384.290039062 228.783203125 373.225585938 224.92578125 361.588867188 224.92578125 c 0
 360.657226562 224.92578125 359.721679688 224.950195312 358.783203125 225 c 0
 346.116210938 225 336.783203125 229.333007812 330.783203125 238 c 0
 327.606445312 242.587890625 326.018554688 248.297851562 326.018554688 255.127929688 c 0
 326.018554688 261.200195312 327.2734375 268.157226562 329.783203125 276.000976562 c 0
 333.116210938 286.000976562 336.616210938 295.66796875 340.283203125 305.000976562 c 0
 343.950195312 314.333984375 346.783203125 322.166992188 348.783203125 328.5 c 0
 350.783203125 334.833007812 354.616210938 349.833007812 360.283203125 373.5 c 0
 365.950195312 397.166992188 372.450195312 427.666992188 379.783203125 465 c 0
 384.450195312 491 390.1171875 518.5 396.784179688 547.5 c 0
 403.451171875 576.5 409.284179688 600.666992188 414.284179688 620 c 0
 419.284179688 639.333007812 424.951171875 661.333007812 431.284179688 686 c 0
 437.6171875 710.666992188 441.784179688 727 443.784179688 735 c 0
 448.451171875 753 456.118164062 766.666992188 466.78515625 776 c 0
 477.452148438 785.333007812 489.119140625 790 501.786132812 790 c 0
 502.739257812 790.047851562 503.672851562 790.071289062 504.587890625 790.071289062 c 0
 516.482421875 790.071289062 525.21484375 786.047851562 530.786132812 778 c 0
 534.385742188 772.799804688 536.186523438 765.919921875 536.186523438 757.360351562 c 0
 536.186523438 751.653320312 535.385742188 745.200195312 533.786132812 738 c 0
305.782226562 -24.0009765625 m 0
 302.447265625 -24.3818359375 299.2421875 -24.572265625 296.166015625 -24.572265625 c 0
 277.719726562 -24.572265625 263.926757812 -17.7177734375 254.784179688 -4.0048828125 c 0
 247.672851562 6.662109375 244.1171875 18.810546875 244.1171875 32.4404296875 c 0
 244.1171875 39.2548828125 245.005859375 46.439453125 246.783203125 53.9951171875 c 0
 251.450195312 73.9951171875 263.450195312 91.328125 282.783203125 105.995117188 c 0
 302.116210938 120.662109375 321.783203125 128.329101562 341.783203125 128.99609375 c 0
 342.76171875 129.025390625 343.727539062 129.041015625 344.682617188 129.041015625 c 0
 365.194335938 129.041015625 380.227539062 122.192382812 389.783203125 108.497070312 c 0
 396.6015625 98.724609375 400.010742188 87.3251953125 400.010742188 74.298828125 c 0
 400.010742188 68.2197265625 399.268554688 61.7861328125 397.783203125 54.998046875 c 0
 393.116210938 33.6650390625 382.44921875 15.83203125 365.782226562 1.4990234375 c 0
 349.115234375 -12.833984375 329.115234375 -21.333984375 305.782226562 -24.0009765625 c 0
EndSplineSet
EndChar

StartChar: quotedbl
Encoding: 34 34 13
Width: 620
GlyphClass: 2
Flags: HMW
VStem: 294.302 306.002
LayerCount: 2
Fore
SplineSet
451.306640625 738 m 0
 445.306640625 710.666992188 434.471679688 665.830078125 418.8046875 603.497070312 c 0
 403.137695312 541.1640625 391.3046875 498.331054688 383.3046875 474.998046875 c 0
 378.637695312 461.665039062 370.970703125 451.665039062 360.303710938 444.998046875 c 0
 350.606445312 438.9375 341.185546875 435.907226562 332.040039062 435.907226562 c 0
 331.125 435.907226562 330.212890625 435.9375 329.303710938 435.998046875 c 0
 316.63671875 436.665039062 306.469726562 440.83203125 298.802734375 448.499023438 c 0
 294.037109375 453.264648438 291.654296875 459.25390625 291.654296875 466.466796875 c 0
 291.654296875 470.857421875 292.537109375 475.701171875 294.302734375 480.999023438 c 0
 304.302734375 514.999023438 315.135742188 558.666015625 326.802734375 611.999023438 c 0
 338.469726562 665.33203125 347.63671875 709.33203125 354.303710938 743.999023438 c 0
 355.63671875 751.999023438 358.63671875 758.83203125 363.303710938 764.499023438 c 0
 367.970703125 770.166015625 373.303710938 774.333007812 379.303710938 777 c 0
 385.303710938 779.666992188 391.303710938 781.5 397.303710938 782.5 c 0
 403.303710938 783.5 409.303710938 783.666992188 415.303710938 783 c 0
 420.63671875 783 425.63671875 782.333007812 430.303710938 781 c 0
 434.970703125 779.666992188 439.137695312 777.5 442.8046875 774.5 c 0
 446.471679688 771.5 449.138671875 766.833007812 450.805664062 760.5 c 0
 452.47265625 754.166992188 452.639648438 746.666992188 451.306640625 738 c 0
600.3046875 737.99609375 m 0
 594.971679688 710.663085938 584.473632812 665.826171875 568.806640625 603.493164062 c 0
 553.139648438 541.16015625 540.97265625 498.327148438 532.305664062 474.994140625 c 0
 527.638671875 461.661132812 519.971679688 451.661132812 509.3046875 444.994140625 c 0
 499.607421875 438.93359375 490.186523438 435.903320312 481.041015625 435.903320312 c 0
 480.125976562 435.903320312 479.213867188 435.93359375 478.3046875 435.994140625 c 0
 466.3046875 436.661132812 456.3046875 440.828125 448.3046875 448.495117188 c 0
 443.504882812 453.095703125 441.104492188 458.834960938 441.104492188 465.71484375 c 0
 441.104492188 470.301757812 442.171875 475.395507812 444.3046875 480.995117188 c 0
 454.3046875 514.995117188 464.971679688 558.662109375 476.3046875 611.995117188 c 0
 487.637695312 665.328125 496.637695312 709.328125 503.3046875 743.995117188 c 0
 504.637695312 751.995117188 507.637695312 758.828125 512.3046875 764.495117188 c 0
 516.971679688 770.162109375 522.471679688 774.329101562 528.8046875 776.99609375 c 0
 535.137695312 779.663085938 541.137695312 781.49609375 546.8046875 782.49609375 c 0
 552.471679688 783.49609375 558.3046875 783.663085938 564.3046875 782.99609375 c 0
 570.3046875 782.99609375 575.471679688 782.329101562 579.8046875 780.99609375 c 0
 584.137695312 779.663085938 588.3046875 777.49609375 592.3046875 774.49609375 c 0
 596.3046875 771.49609375 599.137695312 766.829101562 600.8046875 760.49609375 c 0
 602.471679688 754.163085938 602.3046875 746.663085938 600.3046875 737.99609375 c 0
EndSplineSet
EndChar

StartChar: numbersign
Encoding: 35 35 14
Width: 620
GlyphClass: 2
Flags: HMW
HStem: 192 82<513.114 532.115 480.115 551.114> 445 84<380.108 520.113 414.113 487.108 414.113 613.114 414.113 579.114>
LayerCount: 2
Fore
SplineSet
211.115234375 42 m 0
 203.115234375 28 191.44140625 16.5 176.108398438 7.5 c 0
 165.493164062 1.26953125 155.99609375 -1.845703125 147.6171875 -1.845703125 c 0
 143.893554688 -1.845703125 140.390625 -1.23046875 137.108398438 0 c 0
 126.44140625 2.6669921875 119.94140625 11.1669921875 117.608398438 25.5 c 0
 117.11328125 28.5400390625 116.866210938 31.6474609375 116.866210938 34.822265625 c 0
 116.866210938 46.6162109375 120.280273438 59.341796875 127.109375 72.9990234375 c 0
 136.442382812 90.9990234375 154.109375 129.666015625 180.109375 188.999023438 c 1
 152.109375 188.999023438 l 2
 136.776367188 188.999023438 125.776367188 192.33203125 119.109375 198.999023438 c 0
 112.442382812 205.666015625 110.442382812 214.666015625 113.109375 225.999023438 c 0
 115.109375 237.999023438 120.776367188 247.999023438 130.109375 255.999023438 c 0
 139.442382812 263.999023438 152.109375 268.666015625 168.109375 269.999023438 c 0
 172.776367188 269.999023438 180.276367188 270.166015625 190.609375 270.499023438 c 0
 200.942382812 270.83203125 208.775390625 270.999023438 214.108398438 270.999023438 c 1
 286.108398438 443.999023438 l 1
 280.775390625 443.999023438 273.775390625 443.83203125 265.108398438 443.499023438 c 0
 256.44140625 443.166015625 250.44140625 442.999023438 247.108398438 442.999023438 c 0
 245.880859375 442.9453125 244.682617188 442.918945312 243.513671875 442.918945312 c 0
 230.0703125 442.918945312 220.435546875 446.4453125 214.609375 453.499023438 c 0
 208.276367188 461.166015625 206.443359375 470.666015625 209.110351562 481.999023438 c 0
 211.110351562 493.999023438 216.943359375 504.166015625 226.610351562 512.499023438 c 0
 236.27734375 520.83203125 249.444335938 525.33203125 266.111328125 525.999023438 c 0
 278.111328125 526.666015625 296.111328125 526.999023438 320.111328125 526.999023438 c 1
 361.444335938 627.666015625 382.444335938 679.666015625 383.111328125 682.999023438 c 0
 391.778320312 699.666015625 402.111328125 711.333007812 414.111328125 718 c 0
 422.111328125 722.4453125 429.815429688 724.666992188 437.223632812 724.666992188 c 0
 440.926757812 724.666992188 444.555664062 724.112304688 448.111328125 723.000976562 c 0
 460.778320312 720.333984375 469.4453125 713.666992188 474.112304688 703 c 0
 475.927734375 698.8515625 476.834960938 694.19921875 476.834960938 689.041992188 c 0
 476.834960938 680.939453125 474.594726562 671.591796875 470.11328125 661 c 2
 414.11328125 529 l 1
 520.11328125 529 l 1
 578.11328125 675 l 2
 586.780273438 692.333007812 597.11328125 704.333007812 609.11328125 711 c 0
 617.11328125 715.4453125 624.965820312 717.666992188 632.669921875 717.666992188 c 0
 636.521484375 717.666992188 640.3359375 717.112304688 644.11328125 716.000976562 c 0
 657.446289062 713.333984375 666.446289062 706.666992188 671.11328125 696 c 0
 672.747070312 692.266601562 673.563476562 688.125 673.563476562 683.57421875 c 0
 673.563476562 675.124023438 670.747070312 665.266601562 665.11328125 654 c 0
 651.780273438 626 634.780273438 585 614.11328125 531 c 1
 624.11328125 531 l 2
 638.780273438 531 650.280273438 526.5 658.61328125 517.5 c 0
 665.333984375 510.2421875 668.694335938 502.658203125 668.694335938 494.75 c 0
 668.694335938 492.852539062 668.5 490.935546875 668.11328125 489 c 0
 665.446289062 477 659.446289062 466.833007812 650.11328125 458.5 c 0
 640.780273438 450.166992188 628.447265625 445.666992188 613.114257812 445 c 2
 579.114257812 445 l 1
 513.114257812 274 l 1
 551.114257812 274 l 2
 565.78125 274 574.948242188 270.5 578.615234375 263.5 c 0
 582.282226562 256.5 583.115234375 247.333007812 581.115234375 236 c 0
 574.448242188 206.666992188 558.115234375 192 532.115234375 192 c 2
 480.115234375 192 l 1
 450.115234375 116 429.115234375 64.6669921875 417.115234375 38 c 0
 408.448242188 24 397.115234375 13.1669921875 383.115234375 5.5 c 0
 373.915039062 0.4619140625 365.291015625 -2.0576171875 357.243164062 -2.0576171875 c 0
 353.043945312 -2.0576171875 349.000976562 -1.37109375 345.115234375 0 c 0
 334.448242188 2.6669921875 327.615234375 10.5 324.615234375 23.5 c 0
 323.84375 26.8427734375 323.458007812 30.3076171875 323.458007812 33.892578125 c 0
 323.458007812 44.25 326.676757812 55.619140625 333.115234375 68 c 0
 345.782226562 94.6669921875 363.115234375 135.666992188 385.115234375 191 c 1
 372.448242188 191 353.615234375 190.833007812 328.615234375 190.5 c 0
 303.615234375 190.166992188 285.448242188 190 274.115234375 190 c 1
 244.115234375 118 223.115234375 68.6669921875 211.115234375 42 c 0
380.108398438 445 m 1
 309.109375 273.999023438 l 1
 334.442382812 274.666015625 370.775390625 274.999023438 418.108398438 274.999023438 c 1
 440.775390625 329.666015625 463.775390625 386.333007812 487.108398438 445 c 1
 380.108398438 445 l 1
EndSplineSet
EndChar

StartChar: dollar
Encoding: 36 36 15
Width: 620
GlyphClass: 2
Flags: HMW
HStem: -28.9932 84.9932<246.539 283.538 257.539 283.538> 642.998 79.002
VStem: 242.539 82.999 502.04 93.998
LayerCount: 2
Fore
SplineSet
325.538085938 -99 m 0
 320.87109375 -113.666992188 312.872070312 -124.993164062 301.5390625 -132.993164062 c 0
 290.206054688 -140.993164062 278.206054688 -144.993164062 265.5390625 -144.993164062 c 0
 254.206054688 -144.993164062 246.5390625 -140.493164062 242.5390625 -131.493164062 c 0
 240.939453125 -127.893554688 240.138671875 -123.6796875 240.138671875 -118.853515625 c 0
 240.138671875 -111.61328125 241.939453125 -102.993164062 245.5390625 -92.9931640625 c 0
 250.206054688 -76.9931640625 255.5390625 -55.66015625 261.5390625 -28.9931640625 c 1
 257.5390625 -28.9931640625 l 2
 235.5390625 -28.9931640625 215.5390625 -25.9931640625 197.5390625 -19.9931640625 c 0
 179.5390625 -13.9931640625 164.5390625 -5.9931640625 152.5390625 4.0068359375 c 0
 140.5390625 14.0068359375 130.872070312 24.673828125 123.5390625 36.0068359375 c 0
 116.206054688 47.33984375 110.5390625 59.6728515625 106.5390625 73.005859375 c 0
 105.256835938 79.9287109375 104.616210938 86.3583984375 104.616210938 92.2958984375 c 0
 104.616210938 101.794921875 106.256835938 110.03125 109.5390625 117.005859375 c 0
 114.872070312 128.338867188 123.205078125 136.671875 134.538085938 142.004882812 c 0
 142.538085938 145.337890625 149.038085938 147.670898438 154.038085938 149.00390625 c 0
 159.038085938 150.336914062 164.038085938 150.669921875 169.038085938 150.002929688 c 0
 174.038085938 149.3359375 178.538085938 146.668945312 182.538085938 142.001953125 c 0
 186.538085938 137.334960938 190.538085938 130.66796875 194.538085938 122.000976562 c 0
 202.538085938 101.333984375 213.038085938 85.1669921875 226.038085938 73.5 c 0
 239.038085938 61.8330078125 257.538085938 56 281.538085938 56 c 2
 283.538085938 56 l 1
 310.87109375 167.333007812 334.204101562 266.666015625 353.537109375 353.999023438 c 1
 350.204101562 353.999023438 345.037109375 354.666015625 338.037109375 355.999023438 c 0
 331.037109375 357.33203125 325.537109375 357.999023438 321.537109375 357.999023438 c 0
 300.204101562 360.666015625 281.537109375 366.999023438 265.537109375 376.999023438 c 0
 249.537109375 386.999023438 237.537109375 399.166015625 229.537109375 413.499023438 c 0
 221.537109375 427.83203125 216.204101562 442.83203125 213.537109375 458.499023438 c 0
 212.470703125 464.765625 211.936523438 471.05859375 211.936523438 477.37890625 c 0
 211.936523438 486.859375 213.13671875 496.399414062 215.537109375 505.999023438 c 0
 220.870117188 529.999023438 229.537109375 552.999023438 241.537109375 574.999023438 c 0
 253.537109375 596.999023438 268.704101562 617.499023438 287.037109375 636.499023438 c 0
 305.370117188 655.499023438 327.537109375 671.83203125 353.537109375 685.499023438 c 0
 379.537109375 699.166015625 407.537109375 708.666015625 437.537109375 713.999023438 c 1
 442.204101562 729.999023438 447.537109375 749.33203125 453.537109375 771.999023438 c 0
 462.870117188 808.666015625 479.537109375 826.999023438 503.537109375 826.999023438 c 0
 504.055664062 827.01171875 504.568359375 827.017578125 505.075195312 827.017578125 c 0
 525.827148438 827.017578125 536.204101562 816.641601562 536.204101562 795.888671875 c 0
 536.204101562 789.814453125 535.314453125 782.8515625 533.537109375 775 c 2
 520.537109375 722 l 1
 534.537109375 721.333007812 553.037109375 718 576.037109375 712 c 0
 599.037109375 706 615.870117188 700.333007812 626.537109375 695 c 0
 637.204101562 690.333007812 644.037109375 683 647.037109375 673 c 0
 648.2109375 669.086914062 648.797851562 665.071289062 648.797851562 660.954101562 c 0
 648.797851562 654.549804688 647.377929688 647.8984375 644.537109375 641 c 0
 641.870117188 633 638.037109375 626.833007812 633.037109375 622.5 c 0
 628.037109375 618.166992188 622.537109375 615.5 616.537109375 614.5 c 0
 610.537109375 613.5 604.870117188 613.333007812 599.537109375 614 c 0
 594.204101562 614.666992188 589.204101562 615.666992188 584.537109375 617 c 0
 579.204101562 618.333007812 572.704101562 621.166015625 565.037109375 625.499023438 c 0
 557.370117188 629.83203125 548.537109375 633.665039062 538.537109375 636.998046875 c 0
 528.537109375 640.331054688 516.204101562 642.331054688 501.537109375 642.998046875 c 1
 488.204101562 589.665039062 470.87109375 518.998046875 449.538085938 430.998046875 c 1
 476.87109375 426.998046875 500.538085938 419.831054688 520.538085938 409.498046875 c 0
 540.538085938 399.165039062 555.705078125 387.33203125 566.038085938 373.999023438 c 0
 576.37109375 360.666015625 584.038085938 345.333007812 589.038085938 328 c 0
 593.725585938 311.749023438 596.069335938 295.791992188 596.069335938 280.126953125 c 0
 596.069335938 266.818359375 594.493164062 247.967773438 588.538085938 225 c 0
 581.205078125 194.333007812 569.705078125 165.333007812 554.038085938 138 c 0
 538.37109375 110.666992188 519.538085938 87 497.538085938 67 c 0
 475.538085938 47 451.37109375 29.6669921875 425.038085938 15 c 0
 398.705078125 0.3330078125 371.205078125 -10.6669921875 342.538085938 -18 c 1
 333.205078125 -58 327.538085938 -85 325.538085938 -99 c 0
307.5390625 531.006835938 m 0
 306.206054688 524.911132812 305.5390625 519.034179688 305.5390625 513.374023438 c 0
 305.5390625 499.224609375 309.706054688 486.435546875 318.0390625 475.006835938 c 0
 329.706054688 459.006835938 348.206054688 447.673828125 373.5390625 441.006835938 c 1
 384.872070312 487.006835938 400.205078125 551.006835938 419.538085938 633.006835938 c 1
 390.87109375 624.33984375 366.37109375 611.33984375 346.038085938 594.006835938 c 0
 325.705078125 576.673828125 312.872070312 555.673828125 307.5390625 531.006835938 c 0
498.5390625 208.006835938 m 0
 500.91015625 219.267578125 502.095703125 229.73828125 502.095703125 239.418945312 c 0
 502.095703125 252.064453125 499.829101562 263.998046875 495.540039062 276.508789062 c 0
 491.540039062 288.17578125 483.70703125 299.008789062 472.040039062 309.008789062 c 0
 460.373046875 319.008789062 445.206054688 327.67578125 426.5390625 335.008789062 c 1
 419.206054688 305.67578125 408.5390625 261.508789062 394.5390625 202.508789062 c 0
 380.5390625 143.508789062 370.206054688 100.67578125 363.5390625 74.0087890625 c 1
 396.872070312 87.341796875 426.0390625 105.674804688 451.0390625 129.0078125 c 0
 476.0390625 152.340820312 491.872070312 178.673828125 498.5390625 208.006835938 c 0
EndSplineSet
EndChar

StartChar: percent
Encoding: 37 37 16
Width: 620
GlyphClass: 2
Flags: HMW
HStem: -28.001 76 170.999 74<476.087 489.087> 432 75<264.42 310.087> 632 73<333.753 337.753>
LayerCount: 2
Fore
SplineSet
275.419921875 432 m 0
 253.419921875 432 235.420898438 438.5 221.420898438 451.5 c 0
 207.420898438 464.5 198.587890625 480.833007812 194.920898438 500.5 c 0
 193.426757812 508.513671875 192.6796875 516.775390625 192.6796875 525.286132812 c 0
 192.6796875 537.665039062 194.259765625 550.569335938 197.419921875 564.000976562 c 0
 206.752929688 605.333984375 225.252929688 639.166992188 252.919921875 665.5 c 0
 280.586914062 691.833007812 314.086914062 705 353.419921875 705 c 0
 368.752929688 705 382.419921875 702.166992188 394.419921875 696.5 c 0
 406.419921875 690.833007812 416.419921875 682.333007812 424.419921875 671 c 0
 432.419921875 659.666992188 436.919921875 644.166992188 437.919921875 624.5 c 0
 438.040039062 622.139648438 438.099609375 619.734375 438.099609375 617.283203125 c 0
 438.099609375 599.307617188 434.873046875 578.879882812 428.419921875 556 c 0
 417.086914062 515.333007812 399.086914062 484.5 374.419921875 463.5 c 0
 349.752929688 442.5 316.752929688 432 275.419921875 432 c 0
95.4208984375 19 m 0
 114.75390625 47.6669921875 159.419921875 107.833984375 229.419921875 199.500976562 c 0
 299.419921875 291.16796875 369.586914062 383.66796875 439.919921875 477.000976562 c 0
 510.252929688 570.333984375 558.419921875 637.000976562 584.419921875 677.000976562 c 0
 594.419921875 689.000976562 605.752929688 696.500976562 618.419921875 699.500976562 c 0
 622.3515625 700.431640625 626.122070312 700.897460938 629.732421875 700.897460938 c 0
 637.75390625 700.897460938 644.983398438 698.598632812 651.419921875 694.000976562 c 0
 661.419921875 688.66796875 665.919921875 680.834960938 664.919921875 670.501953125 c 0
 663.919921875 660.168945312 657.752929688 647.668945312 646.419921875 633.001953125 c 0
 613.752929688 592.334960938 534.919921875 488.66796875 409.919921875 322.000976562 c 0
 284.919921875 155.333984375 201.419921875 42.6669921875 159.419921875 -16 c 0
 142.189453125 -39.630859375 126.049804688 -51.4462890625 111 -51.4462890625 c 0
 105.669921875 -51.4462890625 100.477539062 -49.9638671875 95.4208984375 -47 c 0
 84.4208984375 -40.666015625 78.9208984375 -32 78.9208984375 -21 c 0
 78.9208984375 -10 84.4208984375 3.333984375 95.4208984375 19 c 0
302.419921875 507 m 0
 317.752929688 507 330.75390625 512.33203125 341.420898438 522.999023438 c 0
 352.087890625 533.666015625 360.087890625 547.999023438 365.420898438 565.999023438 c 0
 368.262695312 576.736328125 369.684570312 586.126953125 369.684570312 594.171875 c 0
 369.684570312 603.109375 367.9296875 610.385742188 364.420898438 616 c 0
 357.75390625 626.666992188 346.086914062 632 329.419921875 632 c 0
 314.752929688 632 301.919921875 626.166992188 290.919921875 614.5 c 0
 279.919921875 602.833007812 271.419921875 587 265.419921875 567 c 0
 263.0859375 557.666015625 261.919921875 549.416015625 261.919921875 542.25 c 0
 261.919921875 535.083007812 263.0859375 529 265.419921875 524 c 0
 270.086914062 514 282.419921875 508.333007812 302.419921875 507 c 0
418.420898438 -28.0009765625 m 0
 396.420898438 -28.0009765625 378.419921875 -21.5009765625 364.419921875 -8.5009765625 c 0
 350.419921875 4.4990234375 341.586914062 20.83203125 337.919921875 40.4990234375 c 0
 336.42578125 48.5126953125 335.678710938 56.7744140625 335.678710938 65.28515625 c 0
 335.678710938 77.6640625 337.258789062 90.568359375 340.418945312 104 c 0
 349.751953125 145.333007812 368.251953125 179.166015625 395.918945312 205.499023438 c 0
 423.5859375 231.83203125 456.752929688 244.999023438 495.419921875 244.999023438 c 0
 510.752929688 244.999023438 524.5859375 242.33203125 536.918945312 236.999023438 c 0
 549.251953125 231.666015625 559.418945312 223.166015625 567.418945312 211.499023438 c 0
 575.418945312 199.83203125 579.918945312 184.165039062 580.918945312 164.498046875 c 0
 581.030273438 162.3125 581.0859375 160.088867188 581.0859375 157.825195312 c 0
 581.0859375 139.717773438 577.530273438 119.109375 570.418945312 95.998046875 c 0
 559.0859375 55.3310546875 541.252929688 24.3310546875 516.919921875 2.998046875 c 0
 493.32421875 -17.6884765625 461.737304688 -28.03125 422.157226562 -28.03125 c 0
 420.918945312 -28.03125 419.673828125 -28.021484375 418.420898438 -28.0009765625 c 0
445.419921875 47.9990234375 m 0
 446.258789062 47.9609375 447.08984375 47.94140625 447.916015625 47.94140625 c 0
 461.528320312 47.94140625 473.36328125 53.1279296875 483.420898438 63.4990234375 c 0
 494.087890625 74.4990234375 502.087890625 88.666015625 507.420898438 105.999023438 c 0
 510.172851562 116.522460938 511.548828125 125.768554688 511.548828125 133.736328125 c 0
 511.548828125 158.578125 498.172851562 170.999023438 471.420898438 170.999023438 c 0
 456.75390625 170.999023438 444.086914062 165.166015625 433.419921875 153.499023438 c 0
 422.752929688 141.83203125 414.419921875 126.33203125 408.419921875 106.999023438 c 0
 406.166992188 98.3095703125 405.040039062 90.513671875 405.040039062 83.6103515625 c 0
 405.040039062 76.2138671875 406.333984375 69.84375 408.919921875 64.4990234375 c 0
 413.919921875 54.166015625 426.086914062 48.666015625 445.419921875 47.9990234375 c 0
EndSplineSet
EndChar

StartChar: ampersand
Encoding: 38 38 17
Width: 620
GlyphClass: 2
Flags: HMW
HStem: -41.998 93.998<229.054 272.718> 645.001 79<453.72 454.053>
VStem: 446.389 89.9971 533.386 83.5<297 297>
LayerCount: 2
Fore
SplineSet
511.385742188 -35 m 0xe0
 504.868164062 -38.5849609375 498.469726562 -40.376953125 492.19140625 -40.376953125 c 0
 485.626953125 -40.376953125 479.192382812 -38.4169921875 472.887695312 -34.498046875 c 0
 460.5546875 -26.8310546875 451.721679688 -13.6640625 446.388671875 5.0029296875 c 0xe0
 445.721679688 8.3359375 444.221679688 18.3359375 441.888671875 35.0029296875 c 0
 439.555664062 51.669921875 437.388671875 63.669921875 435.388671875 71.0029296875 c 1
 433.388671875 68.3359375 428.388671875 62.6689453125 420.388671875 54.001953125 c 0
 412.388671875 45.3349609375 406.388671875 39.001953125 402.388671875 35.001953125 c 0
 398.388671875 31.001953125 391.888671875 25.001953125 382.888671875 17.001953125 c 0
 373.888671875 9.001953125 366.388671875 2.8349609375 360.388671875 -1.498046875 c 0
 354.388671875 -5.8310546875 346.555664062 -10.998046875 336.888671875 -16.998046875 c 0
 327.221679688 -22.998046875 318.0546875 -27.498046875 309.387695312 -30.498046875 c 0
 300.720703125 -33.498046875 290.887695312 -36.1650390625 279.887695312 -38.498046875 c 0
 268.887695312 -40.8310546875 257.720703125 -41.998046875 246.387695312 -41.998046875 c 0
 211.720703125 -41.998046875 182.053710938 -32.3310546875 157.38671875 -12.998046875 c 0
 132.719726562 6.3349609375 116.052734375 31.66796875 107.385742188 63.0009765625 c 0
 102.87890625 79.2939453125 100.625976562 96.30859375 100.625976562 114.04296875 c 0
 100.625976562 130.415039062 102.545898438 147.400390625 106.385742188 165.000976562 c 0
 135.052734375 291.000976562 203.385742188 376.66796875 311.385742188 422.000976562 c 1
 308.052734375 432.000976562 303.885742188 444.000976562 298.885742188 458.000976562 c 0
 293.885742188 472.000976562 290.385742188 481.833984375 288.385742188 487.500976562 c 0
 286.385742188 493.16796875 284.21875 500.500976562 281.885742188 509.500976562 c 0
 279.552734375 518.500976562 278.385742188 526.333984375 278.385742188 533.000976562 c 0
 278.385742188 539.66796875 278.885742188 547.834960938 279.885742188 557.501953125 c 0
 280.885742188 567.168945312 282.71875 577.668945312 285.385742188 589.001953125 c 0
 288.052734375 601.001953125 292.219726562 612.834960938 297.88671875 624.501953125 c 0
 303.553710938 636.168945312 311.38671875 648.168945312 321.38671875 660.501953125 c 0
 331.38671875 672.834960938 342.88671875 683.66796875 355.88671875 693.000976562 c 0
 368.88671875 702.333984375 384.88671875 709.833984375 403.88671875 715.500976562 c 0
 422.88671875 721.16796875 443.053710938 724.000976562 464.38671875 724.000976562 c 0
 482.38671875 724.000976562 499.38671875 721.000976562 515.38671875 715.000976562 c 0
 531.38671875 709.000976562 545.219726562 700.16796875 556.88671875 688.500976562 c 0
 568.553710938 676.833984375 576.38671875 661.500976562 580.38671875 642.500976562 c 0
 582.100585938 634.358398438 582.958007812 625.817382812 582.958007812 616.87890625 c 0
 582.958007812 604.9609375 581.434570312 592.333984375 578.38671875 579.000976562 c 0
 573.719726562 557.66796875 566.552734375 537.834960938 556.885742188 519.501953125 c 0
 547.21875 501.168945312 537.21875 485.8359375 526.885742188 473.502929688 c 0
 516.552734375 461.169921875 504.052734375 449.336914062 489.385742188 438.00390625 c 0
 474.71875 426.670898438 461.71875 417.670898438 450.385742188 411.00390625 c 0
 439.052734375 404.336914062 426.052734375 397.669921875 411.385742188 391.002929688 c 1
 418.052734375 370.3359375 430.052734375 339.668945312 447.385742188 299.001953125 c 0
 464.71875 258.334960938 475.71875 231.334960938 480.385742188 218.001953125 c 1
 486.385742188 227.334960938 493.385742188 238.16796875 501.385742188 250.500976562 c 0
 509.385742188 262.833984375 516.052734375 272.833984375 521.385742188 280.500976562 c 0
 526.71875 288.16796875 530.71875 293.66796875 533.385742188 297.000976562 c 0
 548.052734375 314.333984375 560.885742188 325.166992188 571.885742188 329.5 c 0
 576.21875 331.20703125 580.525390625 332.060546875 584.806640625 332.060546875 c 0
 591.39453125 332.060546875 597.920898438 330.040039062 604.385742188 325.999023438 c 0
 612.815429688 321.181640625 617.03125 312.694335938 617.03125 300.534179688 c 0
 617.03125 288.635742188 613.213867188 271.743164062 597.385742188 248 c 0
 592.71875 242 580.385742188 228.666992188 560.385742188 208 c 0
 540.385742188 187.333007812 523.052734375 168.333007812 508.385742188 151 c 1
 512.385742188 138.333007812 518.052734375 120.166015625 525.385742188 96.4990234375 c 0
 532.71875 72.83203125 536.71875 58.9990234375 537.385742188 54.9990234375 c 0
 539.895507812 47.4697265625 541.150390625 39.5712890625 541.150390625 31.302734375 c 0
 541.150390625 22.001953125 539.5625 12.234375 536.385742188 1.9990234375 c 0
 530.385742188 -17.333984375 522.052734375 -29.6669921875 511.385742188 -35 c 0xe0
369.38671875 572.000976562 m 0
 367.385742188 563.665039062 366.385742188 554.913085938 366.385742188 545.744140625 c 0
 366.385742188 536.579101562 367.385742188 526.999023438 369.384765625 517.000976562 c 0
 373.384765625 497.000976562 379.717773438 479.333984375 388.384765625 464.000976562 c 1
 403.051757812 468.66796875 415.71875 473.500976562 426.385742188 478.500976562 c 0
 437.052734375 483.500976562 447.552734375 490.000976562 457.885742188 498.000976562 c 0
 468.21875 506.000976562 476.71875 515.833984375 483.385742188 527.500976562 c 0
 490.052734375 539.16796875 495.052734375 553.000976562 498.385742188 569.000976562 c 0
 500.462890625 577.5390625 501.500976562 585.37890625 501.500976562 592.51953125 c 0
 501.500976562 606.006835938 497.795898438 617.000976562 490.385742188 625.500976562 c 0
 479.052734375 638.500976562 463.719726562 645.000976562 444.38671875 645.000976562 c 0
 405.719726562 645.000976562 380.719726562 620.66796875 369.38671875 572.000976562 c 0
201.384765625 174.000976562 m 0
 198.237304688 160.361328125 196.663085938 147.59765625 196.663085938 135.711914062 c 0
 196.663085938 117.389648438 200.403320312 101.15234375 207.883789062 87 c 0
 220.216796875 63.6669921875 240.383789062 52 268.383789062 52 c 0
 277.05078125 52 285.717773438 53 294.384765625 55 c 0
 303.051757812 57 310.71875 59 317.385742188 61 c 0
 324.052734375 63 331.052734375 66.3330078125 338.385742188 71 c 0
 345.71875 75.6669921875 351.551757812 79.5 355.884765625 82.5 c 0
 360.217773438 85.5 365.717773438 90.1669921875 372.384765625 96.5 c 0
 379.051757812 102.833007812 383.71875 107.333007812 386.385742188 110 c 0
 389.052734375 112.666992188 393.385742188 117.5 399.385742188 124.5 c 0
 405.385742188 131.5 409.052734375 135.666992188 410.385742188 137 c 0
 405.71875 163 401.051757812 183.333007812 396.384765625 198 c 0
 392.384765625 213.333007812 383.217773438 238.333007812 368.884765625 273 c 0
 354.551757812 307.666992188 344.384765625 333.333984375 338.384765625 350.000976562 c 1
 317.717773438 341.333984375 299.384765625 330.500976562 283.384765625 317.500976562 c 0
 267.384765625 304.500976562 254.051757812 290.16796875 243.384765625 274.500976562 c 0
 232.717773438 258.833984375 224.217773438 243.000976562 217.884765625 227.000976562 c 0
 211.551757812 211.000976562 206.051757812 193.333984375 201.384765625 174.000976562 c 0
EndSplineSet
EndChar

StartChar: quotesingle
Encoding: 39 39 18
Width: 620
GlyphClass: 2
Flags: HMW
HStem: 446.001 325.499
VStem: 371.464 152
LayerCount: 2
Fore
SplineSet
523.463867188 728 m 0
 518.130859375 701.333007812 508.465820312 660.16796875 494.465820312 604.500976562 c 0
 480.465820312 548.833984375 469.1328125 509.333984375 460.465820312 486.000976562 c 0
 455.798828125 472.000976562 448.131835938 461.66796875 437.46484375 455.000976562 c 0
 427.767578125 448.940429688 418.346679688 445.91015625 409.201171875 445.91015625 c 0
 408.286132812 445.91015625 407.374023438 445.940429688 406.46484375 446.000976562 c 0
 393.797851562 446.66796875 383.630859375 451.000976562 375.963867188 459.000976562 c 0
 371.198242188 463.973632812 368.815429688 470.106445312 368.815429688 477.397460938 c 0
 368.815429688 481.8359375 369.698242188 486.703125 371.463867188 492.000976562 c 0
 381.463867188 526.66796875 391.463867188 566.66796875 401.463867188 612.000976562 c 0
 411.463867188 657.333984375 419.796875 697.666992188 426.463867188 733 c 0
 427.796875 741 430.796875 748 435.463867188 754 c 0
 440.130859375 760 445.630859375 764.166992188 451.963867188 766.5 c 0
 458.296875 768.833007812 464.296875 770.5 469.963867188 771.5 c 0
 475.630859375 772.5 481.463867188 772.666992188 487.463867188 772 c 0
 492.796875 772 497.796875 771.333007812 502.463867188 770 c 0
 507.130859375 768.666992188 511.463867188 766.5 515.463867188 763.5 c 0
 519.463867188 760.5 522.130859375 756 523.463867188 750 c 0
 524.796875 744 524.796875 736.666992188 523.463867188 728 c 0
EndSplineSet
EndChar

StartChar: parenleft
Encoding: 40 40 19
Width: 620
GlyphClass: 2
Flags: HMW
HStem: -130.998 83.998<356.371 403.04> 733.002 81<568.04 608.706>
LayerCount: 2
Fore
SplineSet
423.040039062 -93 m 0
 420.373046875 -103.666992188 414.205078125 -112.665039062 404.538085938 -119.998046875 c 0
 394.87109375 -127.331054688 385.704101562 -130.998046875 377.037109375 -130.998046875 c 0
 335.704101562 -130.998046875 301.87109375 -114.998046875 275.538085938 -82.998046875 c 0
 249.205078125 -50.998046875 232.038085938 -6.6650390625 224.038085938 50.001953125 c 0
 220.482421875 75.1875 218.705078125 102.083984375 218.705078125 130.693359375 c 0
 218.705078125 166.455078125 221.482421875 204.890625 227.038085938 246.001953125 c 0
 233.705078125 294.668945312 249.372070312 358.001953125 274.0390625 436.001953125 c 0
 298.706054688 514.001953125 325.706054688 578.334960938 355.0390625 629.001953125 c 0
 368.372070312 651.001953125 384.0390625 672.834960938 402.0390625 694.501953125 c 0
 420.0390625 716.168945312 439.706054688 736.001953125 461.0390625 754.001953125 c 0
 482.372070312 772.001953125 505.0390625 786.501953125 529.0390625 797.501953125 c 0
 553.0390625 808.501953125 575.372070312 814.001953125 596.0390625 814.001953125 c 0
 616.521484375 814.001953125 626.762695312 805.068359375 626.762695312 787.200195312 c 0
 626.762695312 782.96875 626.1875 778.236328125 625.0390625 773.001953125 c 0
 621.706054688 759.001953125 615.373046875 748.834960938 606.040039062 742.501953125 c 0
 596.70703125 736.168945312 586.70703125 733.001953125 576.040039062 733.001953125 c 0
 560.040039062 733.001953125 543.873046875 728.001953125 527.540039062 718.001953125 c 0
 511.20703125 708.001953125 495.70703125 694.334960938 481.040039062 677.001953125 c 0
 466.373046875 659.668945312 452.873046875 640.668945312 440.540039062 620.001953125 c 0
 428.20703125 599.334960938 416.70703125 577.001953125 406.040039062 553.001953125 c 0
 390.040039062 518.334960938 373.540039062 470.66796875 356.540039062 410.000976562 c 0
 339.540039062 349.333984375 328.040039062 300.000976562 322.040039062 262.000976562 c 0
 317.130859375 228.727539062 314.676757812 196.235351562 314.676757812 164.5234375 c 0
 314.676757812 157.477539062 314.797851562 150.469726562 315.040039062 143.500976562 c 0
 316.373046875 105.16796875 320.540039062 72.16796875 327.540039062 44.5009765625 c 0
 334.540039062 16.833984375 344.20703125 -5.3330078125 356.540039062 -22 c 0
 368.873046875 -38.6669921875 382.373046875 -47 397.040039062 -47 c 0
 409.040039062 -47 417.373046875 -50.3330078125 422.040039062 -57 c 0
 424.552734375 -60.58984375 425.809570312 -65.7255859375 425.809570312 -72.408203125 c 0
 425.809570312 -78.1357421875 424.88671875 -85 423.040039062 -93 c 0
EndSplineSet
EndChar

StartChar: parenright
Encoding: 41 41 20
Width: 620
GlyphClass: 2
Flags: HMW
HStem: -131.005 84<191.675 198.676> 732.998 81.002<373.344 405.677>
VStem: 466.01 86.001
LayerCount: 2
Fore
SplineSet
502.01171875 246 m 0
 478.01171875 172 449.008789062 106.662109375 415.008789062 49.9951171875 c 0
 381.008789062 -6.671875 343.341796875 -51.0048828125 302.008789062 -83.0048828125 c 0
 260.67578125 -115.004882812 219.342773438 -131.004882812 178.009765625 -131.004882812 c 0
 169.342773438 -131.004882812 161.67578125 -127.337890625 155.008789062 -120.004882812 c 0
 148.341796875 -112.671875 146.341796875 -103.671875 149.008789062 -93.0048828125 c 0
 153.008789062 -75.671875 159.008789062 -63.671875 167.008789062 -57.0048828125 c 0
 175.008789062 -50.337890625 185.341796875 -47.0048828125 198.008789062 -47.0048828125 c 0
 212.67578125 -47.0048828125 229.842773438 -38.671875 249.509765625 -22.0048828125 c 0
 269.176757812 -5.337890625 289.009765625 16.8291015625 309.009765625 44.49609375 c 0
 329.009765625 72.1630859375 348.676757812 105.330078125 368.009765625 143.997070312 c 0
 387.342773438 182.6640625 403.009765625 221.997070312 415.009765625 261.997070312 c 0
 427.009765625 299.997070312 438.342773438 349.330078125 449.009765625 409.997070312 c 0
 459.676757812 470.6640625 465.34375 518.331054688 466.010742188 552.998046875 c 0
 466.010742188 576.998046875 464.510742188 599.331054688 461.510742188 619.998046875 c 0
 458.510742188 640.665039062 453.84375 659.665039062 447.510742188 676.998046875 c 0
 441.177734375 694.331054688 432.177734375 707.998046875 420.510742188 717.998046875 c 0
 408.84375 727.998046875 395.010742188 732.998046875 379.010742188 732.998046875 c 0
 367.677734375 732.998046875 359.010742188 736.165039062 353.010742188 742.498046875 c 0
 348.856445312 746.8828125 346.780273438 753.104492188 346.780273438 761.1640625 c 0
 346.780273438 764.745117188 347.190429688 768.690429688 348.010742188 772.998046875 c 0
 350.010742188 781.665039062 353.010742188 788.83203125 357.010742188 794.499023438 c 0
 361.010742188 800.166015625 365.34375 804.333007812 370.010742188 807 c 0
 374.677734375 809.666992188 379.010742188 811.5 383.010742188 812.5 c 0
 387.010742188 813.5 391.010742188 814 395.010742188 814 c 0
 416.34375 814 436.34375 808.5 455.010742188 797.5 c 0
 473.677734375 786.5 489.510742188 772 502.510742188 754 c 0
 515.510742188 736 526.34375 716.166992188 535.010742188 694.5 c 0
 543.677734375 672.833007812 549.344726562 651 552.01171875 629 c 0
 554.049804688 611.791992188 555.068359375 593.0078125 555.068359375 572.647460938 c 0
 555.068359375 533.057617188 551.215820312 487.508789062 543.51171875 436 c 0
 531.844726562 358 518.01171875 294.666992188 502.01171875 246 c 0
EndSplineSet
EndChar

StartChar: asterisk
Encoding: 42 42 21
Width: 620
GlyphClass: 2
Flags: HMW
HStem: 292.998 103.999 305.999 77<446.193 490.193>
VStem: 295.192 86.001 395.193 86
LayerCount: 2
Fore
SplineSet
291.1953125 139 m 0x70
 287.1953125 131 281.693359375 124.999023438 274.693359375 120.999023438 c 0
 267.693359375 116.999023438 260.526367188 114.666015625 253.193359375 113.999023438 c 0
 245.860351562 113.33203125 239.193359375 113.83203125 233.193359375 115.499023438 c 0
 227.193359375 117.166015625 222.193359375 119.333007812 218.193359375 122 c 0
 213.526367188 125.333007812 209.859375 130.166015625 207.192382812 136.499023438 c 0
 204.525390625 142.83203125 203.692382812 150.665039062 204.692382812 159.998046875 c 0
 205.692382812 169.331054688 209.859375 178.998046875 217.192382812 188.998046875 c 2
 304.192382812 297.998046875 l 1
 252.192382812 294.665039062 214.192382812 292.998046875 190.192382812 292.998046875 c 0
 175.525390625 292.998046875 165.192382812 298.331054688 159.192382812 308.998046875 c 0
 155.038085938 316.3828125 152.961914062 324.086914062 152.961914062 332.110351562 c 0
 152.961914062 335.676757812 153.372070312 339.305664062 154.192382812 342.998046875 c 0
 154.859375 348.998046875 156.692382812 355.165039062 159.692382812 361.498046875 c 0
 162.692382812 367.831054688 166.525390625 373.831054688 171.192382812 379.498046875 c 0
 175.859375 385.165039062 181.859375 389.665039062 189.192382812 392.998046875 c 0
 196.525390625 396.331054688 203.858398438 397.6640625 211.19140625 396.997070312 c 0xb0
 239.19140625 394.330078125 280.524414062 390.997070312 335.19140625 386.997070312 c 1
 319.858398438 435.6640625 306.525390625 472.997070312 295.192382812 498.997070312 c 0
 292.525390625 506.6640625 291.192382812 514.247070312 291.192382812 521.747070312 c 0
 291.192382812 529.247070312 292.525390625 536.663085938 295.192382812 543.997070312 c 0
 300.525390625 558.6640625 308.525390625 568.331054688 319.192382812 572.998046875 c 0
 325.859375 576.998046875 333.359375 579.165039062 341.692382812 579.498046875 c 0
 350.025390625 579.831054688 358.025390625 577.331054688 365.692382812 571.998046875 c 0
 373.359375 566.665039062 378.526367188 558.665039062 381.193359375 547.998046875 c 0
 384.526367188 531.998046875 393.859375 493.665039062 409.192382812 432.998046875 c 1
 444.525390625 478.331054688 471.858398438 516.331054688 491.19140625 546.998046875 c 0
 497.858398438 557.665039062 506.025390625 565.665039062 515.692382812 570.998046875 c 0
 525.359375 576.331054688 534.026367188 578.831054688 541.693359375 578.498046875 c 0
 549.360351562 578.165039062 555.52734375 575.665039062 560.194335938 570.998046875 c 0
 565.52734375 567.665039062 569.360351562 562.33203125 571.693359375 554.999023438 c 0
 574.026367188 547.666015625 574.026367188 538.999023438 571.693359375 528.999023438 c 0
 569.360351562 518.999023438 564.193359375 509.33203125 556.193359375 499.999023438 c 0
 528.860351562 468.666015625 497.860351562 429.666015625 463.193359375 382.999023438 c 1
 517.193359375 382.999023438 556.526367188 386.666015625 581.193359375 393.999023438 c 0
 585.860351562 395.484375 590.172851562 396.2265625 594.130859375 396.2265625 c 0
 602.612304688 396.2265625 609.466796875 392.817382812 614.694335938 385.999023438 c 0
 620.775390625 378.068359375 623.815429688 369.717773438 623.815429688 360.948242188 c 0
 623.815429688 358.66015625 623.608398438 356.34375 623.194335938 353.999023438 c 0
 621.861328125 347.999023438 619.861328125 341.999023438 617.194335938 335.999023438 c 0
 614.52734375 329.999023438 611.02734375 323.999023438 606.694335938 317.999023438 c 0
 602.361328125 311.999023438 596.861328125 307.33203125 590.194335938 303.999023438 c 0
 583.52734375 300.666015625 576.860351562 299.999023438 570.193359375 301.999023438 c 0
 555.193359375 304.999023438 528.192382812 306.499023438 489.19140625 306.499023438 c 0
 476.192382812 306.499023438 461.859375 306.33203125 446.193359375 305.999023438 c 1
 482.193359375 189.999023438 l 2
 483.708007812 183.029296875 484.465820312 176.438476562 484.465820312 170.2265625 c 0
 484.465820312 162.771484375 483.375 155.862304688 481.193359375 149.499023438 c 0
 477.193359375 137.83203125 470.526367188 129.33203125 461.193359375 123.999023438 c 0
 454.526367188 119.999023438 446.193359375 117.666015625 436.193359375 116.999023438 c 0
 426.193359375 116.33203125 417.026367188 118.33203125 408.693359375 122.999023438 c 0
 400.360351562 127.666015625 395.860351562 135.333007812 395.193359375 146 c 0
 393.860351562 172.666992188 386.52734375 211 373.194335938 261 c 1
 329.861328125 199.666992188 302.528320312 159 291.1953125 139 c 0x70
EndSplineSet
EndChar

StartChar: plus
Encoding: 43 43 22
Width: 620
GlyphClass: 2
Flags: HMW
HStem: 356.998 84.001<343.99 370.322>
LayerCount: 2
Fore
SplineSet
401.323242188 250 m 0
 397.990234375 234.666992188 392.322265625 223.831054688 384.322265625 217.498046875 c 0
 376.322265625 211.165039062 366.989257812 207.998046875 356.322265625 207.998046875 c 0
 334.771484375 207.998046875 323.995117188 216.701171875 323.995117188 234.108398438 c 0
 323.995117188 238.778320312 324.771484375 244.075195312 326.322265625 249.998046875 c 2
 350.322265625 356.998046875 l 1
 337.655273438 356.998046875 320.822265625 356.831054688 299.822265625 356.498046875 c 0
 278.822265625 356.165039062 264.655273438 355.998046875 257.322265625 355.998046875 c 0
 241.989257812 355.998046875 231.489257812 360.165039062 225.822265625 368.498046875 c 0
 221.96875 374.1640625 220.041992188 380.678710938 220.041992188 388.041015625 c 0
 220.041992188 391.505859375 220.46875 395.158203125 221.322265625 398.998046875 c 0
 223.322265625 411.665039062 228.989257812 422.33203125 238.322265625 430.999023438 c 0
 246.98828125 439.046875 258.529296875 443.0703125 272.943359375 443.0703125 c 0
 274.052734375 443.0703125 275.178710938 443.046875 276.322265625 442.999023438 c 0
 319.655273438 441.666015625 350.98828125 440.999023438 370.321289062 440.999023438 c 1
 378.321289062 474.33203125 385.654296875 510.33203125 392.321289062 548.999023438 c 0
 397.654296875 577.666015625 414.321289062 591.999023438 442.321289062 591.999023438 c 0
 454.98828125 592.666015625 464.655273438 589.999023438 471.322265625 583.999023438 c 0
 475.244140625 580.469726562 477.205078125 575.094726562 477.205078125 567.875 c 0
 477.205078125 562.8203125 476.244140625 556.862304688 474.322265625 549.999023438 c 0
 462.989257812 511.33203125 453.322265625 474.33203125 445.322265625 438.999023438 c 1
 547.322265625 438.999023438 l 2
 561.989257812 438.999023438 571.322265625 435.666015625 575.322265625 428.999023438 c 0
 579.322265625 422.33203125 580.655273438 413.33203125 579.322265625 401.999023438 c 0
 577.989257812 395.999023438 576.15625 390.499023438 573.823242188 385.499023438 c 0
 571.490234375 380.499023438 568.323242188 375.666015625 564.323242188 370.999023438 c 0
 560.323242188 366.33203125 555.323242188 362.83203125 549.323242188 360.499023438 c 0
 543.323242188 358.166015625 536.65625 357.333007812 529.323242188 358 c 0
 519.723632812 359.200195312 503.524414062 359.799804688 480.724609375 359.799804688 c 0
 465.524414062 359.799804688 447.390625 359.533203125 426.323242188 359 c 1
 422.323242188 341 417.490234375 319.666992188 411.823242188 295 c 0
 406.15625 270.333007812 402.65625 255.333007812 401.323242188 250 c 0
EndSplineSet
EndChar

StartChar: comma
Encoding: 44 44 23
Width: 620
GlyphClass: 2
Flags: HMW
VStem: 173.421 254.999
LayerCount: 2
Fore
SplineSet
426.919921875 96 m 0
 412.919921875 63.3330078125 387.921875 12.9990234375 351.921875 -55.0009765625 c 0
 315.921875 -123.000976562 290.588867188 -165.000976562 275.921875 -181.000976562 c 0
 262.588867188 -195.000976562 247.588867188 -205.000976562 230.921875 -211.000976562 c 0
 220.921875 -214.600585938 212.361328125 -216.401367188 205.241210938 -216.401367188 c 0
 200.494140625 -216.401367188 196.387695312 -215.600585938 192.920898438 -214.000976562 c 0
 186.920898438 -212.000976562 181.920898438 -208.000976562 177.920898438 -202.000976562 c 0
 173.920898438 -196.000976562 172.420898438 -188.66796875 173.420898438 -180.000976562 c 0
 174.420898438 -171.333984375 178.920898438 -162.333984375 186.920898438 -153.000976562 c 0
 204.25390625 -133.000976562 232.086914062 -89.0009765625 270.419921875 -21.0009765625 c 0
 308.752929688 46.9990234375 333.5859375 94.33203125 344.918945312 120.999023438 c 0
 348.918945312 130.33203125 355.0859375 137.665039062 363.418945312 142.998046875 c 0
 371.751953125 148.331054688 379.751953125 150.998046875 387.418945312 150.998046875 c 0
 395.0859375 150.998046875 402.252929688 150.331054688 408.919921875 148.998046875 c 0
 417.586914062 145.665039062 424.086914062 139.33203125 428.419921875 129.999023438 c 0
 430.362304688 125.815429688 431.333007812 121.229492188 431.333007812 116.2421875 c 0
 431.333007812 110.103515625 429.862304688 103.356445312 426.919921875 96 c 0
EndSplineSet
EndChar

StartChar: hyphen
Encoding: 45 45 24
Width: 620
GlyphClass: 2
Flags: HMW
HStem: 243 87<265.842 271.51> 251 82<466.51 496.844>
VStem: 230.51 290.001
LayerCount: 2
Fore
SplineSet
279.508789062 330 m 0xa0
 314.841796875 330 357.010742188 330.5 406.010742188 331.5 c 0
 455.010742188 332.5 482.84375 333 489.510742188 333 c 0
 504.177734375 333 513.510742188 329.5 517.510742188 322.5 c 0
 521.510742188 315.5 522.510742188 306.333007812 520.510742188 295 c 0
 513.84375 265.666992188 497.176757812 251 470.509765625 251 c 0x60
 462.509765625 251 431.009765625 249.666992188 376.009765625 247 c 0
 321.009765625 244.333007812 282.509765625 243 260.509765625 243 c 0
 239.176757812 243 228.509765625 252.172851562 228.509765625 270.51953125 c 0
 228.509765625 275.106445312 229.176757812 280.266601562 230.509765625 286 c 0
 235.842773438 315.333007812 252.17578125 330 279.508789062 330 c 0xa0
EndSplineSet
EndChar

StartChar: period
Encoding: 46 46 25
Width: 620
GlyphClass: 2
Flags: HMW
HStem: -14 153.998
VStem: 249.035 151
LayerCount: 2
Fore
SplineSet
308.034179688 -14 m 0
 304.7578125 -14.3740234375 301.606445312 -14.5615234375 298.581054688 -14.5615234375 c 0
 280.052734375 -14.5615234375 266.205078125 -7.5439453125 257.036132812 6.49609375 c 0
 249.924804688 17.384765625 246.369140625 29.5341796875 246.369140625 42.94140625 c 0
 246.369140625 49.6455078125 247.2578125 56.6630859375 249.03515625 63.99609375 c 0
 253.702148438 84.6630859375 265.702148438 102.330078125 285.03515625 116.997070312 c 0
 304.368164062 131.6640625 324.03515625 139.331054688 344.03515625 139.998046875 c 0
 345.013671875 140.02734375 345.98046875 140.04296875 346.935546875 140.04296875 c 0
 367.4609375 140.04296875 382.661132812 133.194335938 392.53515625 119.499023438 c 0
 399.350585938 110.044921875 402.758789062 98.923828125 402.758789062 86.1337890625 c 0
 402.758789062 79.533203125 401.850585938 72.48828125 400.03515625 64.9990234375 c 0
 395.368164062 43.666015625 384.701171875 25.8330078125 368.034179688 11.5 c 0
 351.3671875 -2.8330078125 331.3671875 -11.3330078125 308.034179688 -14 c 0
EndSplineSet
EndChar

StartChar: slash
Encoding: 47 47 26
Width: 620
GlyphClass: 2
Flags: HMW
VStem: 71.5903 95
LayerCount: 2
Fore
SplineSet
688.58984375 676 m 0
 664.58984375 642 600.091796875 558.498046875 495.091796875 425.498046875 c 0
 390.091796875 292.498046875 325.924804688 209.998046875 302.591796875 177.998046875 c 0
 287.924804688 157.331054688 263.7578125 122.331054688 230.090820312 72.998046875 c 0
 196.423828125 23.6650390625 175.256835938 -6.3349609375 166.58984375 -17.001953125 c 0
 152.58984375 -35.6689453125 137.08984375 -48.6689453125 120.08984375 -56.001953125 c 0
 111.58984375 -59.66796875 103.96484375 -61.501953125 97.21484375 -61.501953125 c 0
 90.46484375 -61.501953125 84.58984375 -59.66796875 79.58984375 -56.001953125 c 0
 73.58984375 -52.001953125 70.58984375 -44.0654296875 70.58984375 -32.1904296875 c 0
 70.58984375 -28.232421875 70.9228515625 -23.8359375 71.58984375 -19.0029296875 c 0
 74.2568359375 0.330078125 82.2568359375 17.9970703125 95.58984375 33.9970703125 c 0
 223.58984375 193.997070312 333.922851562 336.330078125 426.58984375 460.997070312 c 0
 484.58984375 537.6640625 547.256835938 624.331054688 614.58984375 720.998046875 c 0
 621.922851562 731.665039062 630.58984375 739.83203125 640.58984375 745.499023438 c 0
 650.58984375 751.166015625 659.58984375 753.833007812 667.58984375 753.5 c 0
 675.58984375 753.166992188 683.256835938 751.333984375 690.58984375 748.000976562 c 0
 700.58984375 742.000976562 705.58984375 732.66796875 705.58984375 720.000976562 c 0
 705.58984375 707.333984375 699.922851562 692.666992188 688.58984375 676 c 0
EndSplineSet
EndChar

StartChar: zero
Encoding: 48 48 27
Width: 620
GlyphClass: 2
Flags: HMW
HStem: -24 83.999<280.937 292.269> 636.999 81.001<467.269 468.603>
LayerCount: 2
Fore
SplineSet
282.936523438 -24 m 0
 254.26953125 -24 228.770507812 -18.333984375 206.4375 -7.0009765625 c 0
 184.104492188 4.33203125 166.604492188 19.9990234375 153.9375 39.9990234375 c 0
 141.270507812 59.9990234375 133.4375 84.9990234375 130.4375 114.999023438 c 0
 129.708007812 122.295898438 129.342773438 129.770507812 129.342773438 137.422851562 c 0
 129.342773438 161.23046875 132.875 186.755859375 139.9375 213.999023438 c 0
 141.270507812 220.666015625 144.770507812 237.166015625 150.4375 263.499023438 c 0
 156.104492188 289.83203125 160.771484375 310.83203125 164.438476562 326.499023438 c 0
 168.10546875 342.166015625 173.60546875 363.833007812 180.938476562 391.5 c 0
 188.271484375 419.166992188 195.271484375 443 201.938476562 463 c 0
 208.60546875 483 216.938476562 504.5 226.938476562 527.5 c 0
 236.938476562 550.5 246.938476562 570.666992188 256.938476562 588 c 0
 282.271484375 630 315.104492188 662.166992188 355.4375 684.5 c 0
 395.770507812 706.833007812 441.603515625 718 492.936523438 718 c 0
 518.26953125 718 540.76953125 713.333007812 560.436523438 704 c 0
 580.103515625 694.666992188 596.770507812 681 610.4375 663 c 0
 624.104492188 645 633.271484375 621.666992188 637.938476562 593 c 0
 640.116210938 579.62109375 641.206054688 565.298828125 641.206054688 550.032226562 c 0
 641.206054688 532.586914062 639.783203125 513.91015625 636.939453125 494 c 0
 631.606445312 460.666992188 624.2734375 422.833984375 614.940429688 380.500976562 c 0
 605.607421875 338.16796875 594.607421875 295.500976562 581.940429688 252.500976562 c 0
 569.2734375 209.500976562 557.606445312 176.66796875 546.939453125 154.000976562 c 0
 536.272460938 131.333984375 525.60546875 111.333984375 514.938476562 94.0009765625 c 0
 504.271484375 76.66796875 493.604492188 61.66796875 482.9375 49.0009765625 c 0
 472.270507812 36.333984375 460.770507812 25.6669921875 448.4375 17 c 0
 436.104492188 8.3330078125 424.104492188 1.3330078125 412.4375 -4 c 0
 400.770507812 -9.3330078125 387.770507812 -13.5 373.4375 -16.5 c 0
 359.104492188 -19.5 345.104492188 -21.5 331.4375 -22.5 c 0
 317.770507812 -23.5 301.603515625 -24 282.936523438 -24 c 0
233.9375 229.999023438 m 0
 233.270507812 227.33203125 232.4375 223.333007812 231.4375 218 c 0
 230.4375 212.666992188 229.604492188 209 228.9375 207 c 1
 340.270507812 329 444.270507812 454.333007812 540.9375 583 c 1
 533.604492188 600.333007812 522.9375 613.666015625 508.9375 622.999023438 c 0
 494.9375 632.33203125 478.270507812 636.999023438 458.9375 636.999023438 c 0
 424.270507812 636.999023438 394.9375 626.666015625 370.9375 605.999023438 c 0
 346.9375 585.33203125 324.9375 551.999023438 304.9375 505.999023438 c 0
 296.9375 489.33203125 289.4375 469.83203125 282.4375 447.499023438 c 0
 275.4375 425.166015625 268.4375 398.166015625 261.4375 366.499023438 c 0
 254.4375 334.83203125 249.770507812 312.499023438 247.4375 299.499023438 c 0
 245.104492188 286.499023438 240.604492188 263.33203125 233.9375 229.999023438 c 0
462.9375 168 m 0
 466.9375 176 474.604492188 197.999023438 485.9375 233.999023438 c 0
 497.270507812 269.999023438 508.9375 311.166015625 520.9375 357.499023438 c 0
 532.9375 403.83203125 542.270507812 448.33203125 548.9375 490.999023438 c 1
 448.270507812 344.33203125 341.270507812 221.33203125 227.9375 121.999023438 c 1
 235.270507812 80.666015625 259.9375 59.9990234375 301.9375 59.9990234375 c 0
 318.604492188 59.9990234375 333.9375 61.4990234375 347.9375 64.4990234375 c 0
 361.9375 67.4990234375 375.770507812 72.83203125 389.4375 80.4990234375 c 0
 403.104492188 88.166015625 415.9375 99.3330078125 427.9375 114 c 0
 439.9375 128.666992188 451.604492188 146.666992188 462.9375 168 c 0
EndSplineSet
EndChar

StartChar: one
Encoding: 49 49 28
Width: 620
GlyphClass: 2
Flags: HMW
HStem: -9 85.5 -5 89<136.731 137.396>
LayerCount: 2
Fore
SplineSet
545.064453125 38 m 0x80
 542.397460938 24.6669921875 536.561523438 13.5 527.561523438 4.5 c 0
 518.561523438 -4.5 504.728515625 -9 486.061523438 -9 c 0x80
 478.061523438 -9 423.061523438 -8.3330078125 321.061523438 -7 c 0
 219.061523438 -5.6669921875 152.728515625 -5 122.061523438 -5 c 0
 108.061523438 -5 98.89453125 -1 94.5615234375 7 c 0
 91.87890625 11.9521484375 90.5380859375 17.7978515625 90.5380859375 24.5380859375 c 0
 90.5380859375 28.6865234375 91.0458984375 33.173828125 92.0625 38 c 0
 94.7294921875 51.3330078125 100.396484375 62.3330078125 109.063476562 71 c 0
 117.73046875 79.6669921875 129.397460938 84 144.064453125 84 c 0x40
 172.064453125 84 219.731445312 83.6669921875 287.064453125 83 c 1
 293.064453125 109.666992188 297.731445312 131 301.064453125 147 c 0
 301.731445312 152.333007812 305.564453125 170 312.564453125 200 c 0
 319.564453125 230 324.731445312 251.666992188 328.064453125 265 c 0
 331.397460938 278.333007812 337.897460938 303 347.564453125 339 c 0
 357.231445312 375 364.231445312 401.833007812 368.564453125 419.5 c 0
 372.897460938 437.166992188 380.23046875 465.166992188 390.563476562 503.5 c 0
 400.896484375 541.833007812 408.729492188 570 414.0625 588 c 1
 358.729492188 546.666992188 319.396484375 522 296.063476562 514 c 0
 291.9609375 512.359375 288.016601562 511.5390625 284.229492188 511.5390625 c 0
 275.708984375 511.5390625 267.986328125 515.692382812 261.063476562 524 c 0
 253.563476562 533 249.813476562 542 249.813476562 551 c 0
 249.813476562 554 250.23046875 557 251.063476562 560 c 0
 253.063476562 570.666992188 257.396484375 580.166992188 264.063476562 588.5 c 0
 270.73046875 596.833007812 280.73046875 605.333007812 294.063476562 614 c 0
 315.396484375 628.666992188 337.896484375 644.833984375 361.563476562 662.500976562 c 0
 385.23046875 680.16796875 402.563476562 693.000976562 413.563476562 701.000976562 c 0
 424.563476562 709.000976562 435.23046875 715.833984375 445.563476562 721.500976562 c 0
 455.896484375 727.16796875 464.729492188 730.000976562 472.0625 730.000976562 c 0
 485.395507812 730.000976562 497.5625 724.000976562 508.5625 712.000976562 c 0
 517.870117188 701.846679688 522.524414062 693.125 522.524414062 685.834960938 c 0
 522.524414062 683.2109375 522.524414062 683.2109375 478.5625 518.500976562 c 0
 453.5625 424.833984375 439.395507812 370.000976562 436.0625 354.000976562 c 0
 420.729492188 287.333984375 408.0625 231.666992188 398.0625 187 c 0
 392.0625 162.333007812 384.729492188 126.333007812 376.0625 79 c 1
 394.0625 79 412.895507812 78.6669921875 432.5625 78 c 0
 452.229492188 77.3330078125 468.396484375 76.8330078125 481.063476562 76.5 c 0
 493.73046875 76.1669921875 502.397460938 76 507.064453125 76 c 0
 524.397460938 76 535.564453125 72.5 540.564453125 65.5 c 0
 545.564453125 58.5 547.064453125 49.3330078125 545.064453125 38 c 0x80
EndSplineSet
EndChar

StartChar: two
Encoding: 50 50 29
Width: 620
GlyphClass: 2
Flags: HMW
HStem: -18.0049 84.0049 -12 89<479.729 516.23> 637.997 83.999<464.063 477.065>
LayerCount: 2
Fore
SplineSet
492.729492188 -12 m 0x60
 466.729492188 -12 434.231445312 -12.6728515625 395.231445312 -14.005859375 c 0
 356.231445312 -15.3388671875 321.564453125 -16.671875 291.231445312 -18.0048828125 c 0
 260.8984375 -19.337890625 230.231445312 -20.0048828125 199.231445312 -20.0048828125 c 0
 168.231445312 -20.0048828125 144.064453125 -18.671875 126.731445312 -16.0048828125 c 0
 113.3984375 -14.671875 105.565429688 -5.671875 103.232421875 10.9951171875 c 0
 102.706054688 14.7587890625 102.442382812 18.8955078125 102.442382812 23.4072265625 c 0
 102.442382812 38.8740234375 105.5390625 58.7373046875 111.732421875 82.9951171875 c 0
 118.399414062 111.662109375 130.899414062 141.829101562 149.232421875 173.49609375 c 0
 167.565429688 205.163085938 191.3984375 235.49609375 220.731445312 264.49609375 c 0
 250.064453125 293.49609375 281.731445312 316.99609375 315.731445312 334.99609375 c 0
 391.731445312 374.99609375 441.064453125 402.99609375 463.731445312 418.99609375 c 0
 493.731445312 440.329101562 515.064453125 462.99609375 527.731445312 486.99609375 c 0
 534.3984375 500.99609375 540.065429688 518.329101562 544.732421875 538.99609375 c 0
 547.514648438 551.053710938 548.90625 561.962890625 548.90625 571.72265625 c 0
 548.90625 590.021484375 544.014648438 604.279296875 534.232421875 614.497070312 c 0
 519.232421875 630.1640625 494.399414062 637.997070312 459.732421875 637.997070312 c 0
 435.732421875 637.997070312 410.732421875 629.997070312 384.732421875 613.997070312 c 0
 358.732421875 597.997070312 337.399414062 580.330078125 320.732421875 560.997070312 c 0
 312.732421875 552.330078125 305.899414062 545.497070312 300.232421875 540.497070312 c 0
 294.565429688 535.497070312 288.8984375 532.6640625 283.231445312 531.997070312 c 0
 277.564453125 531.330078125 272.564453125 531.663085938 268.231445312 532.99609375 c 0
 263.8984375 534.329101562 258.731445312 536.662109375 252.731445312 539.995117188 c 0
 243.3984375 545.995117188 238.731445312 554.662109375 238.731445312 565.995117188 c 0
 238.731445312 577.328125 244.731445312 591.995117188 256.731445312 609.995117188 c 0
 266.064453125 622.662109375 278.231445312 635.329101562 293.231445312 647.99609375 c 0
 308.231445312 660.663085938 325.231445312 672.663085938 344.231445312 683.99609375 c 0
 363.231445312 695.329101562 384.3984375 704.49609375 407.731445312 711.49609375 c 0
 431.064453125 718.49609375 453.397460938 721.99609375 474.73046875 721.99609375 c 0
 542.063476562 721.99609375 589.23046875 705.329101562 616.23046875 671.99609375 c 0
 633.451171875 650.736328125 642.060546875 622.697265625 642.060546875 587.877929688 c 0
 642.060546875 568.103515625 639.284179688 546.143554688 633.73046875 521.99609375 c 0
 621.063476562 466.663085938 597.73046875 422.330078125 563.73046875 388.997070312 c 0
 538.397460938 364.330078125 497.397460938 336.997070312 440.73046875 306.997070312 c 0
 426.73046875 298.997070312 402.397460938 286.6640625 367.73046875 269.997070312 c 0
 337.73046875 254.6640625 311.23046875 235.831054688 288.23046875 213.498046875 c 0
 265.23046875 191.165039062 247.063476562 168.33203125 233.73046875 144.999023438 c 0
 220.397460938 121.666015625 209.73046875 96.3330078125 201.73046875 69 c 1
 235.73046875 67 268.73046875 66 300.73046875 66 c 0xa0
 332.73046875 66 357.897460938 66.5 376.23046875 67.5 c 0
 394.563476562 68.5 415.73046875 70 439.73046875 72 c 2
 487.73046875 76 l 2
 488.397460938 76 491.397460938 76.1669921875 496.73046875 76.5 c 0
 502.063476562 76.8330078125 505.563476562 77 507.23046875 77 c 2
 516.23046875 77 l 2
 520.563476562 77 523.73046875 76.3330078125 525.73046875 75 c 0
 527.73046875 73.6669921875 529.897460938 72 532.23046875 70 c 0
 534.563476562 68 536.23046875 65.3330078125 537.23046875 62 c 0
 538.23046875 58.6669921875 538.397460938 54.6669921875 537.73046875 50 c 0
 537.063476562 42 534.896484375 33.5 531.229492188 24.5 c 0
 527.5625 15.5 522.229492188 7.1669921875 515.229492188 -0.5 c 0
 508.229492188 -8.1669921875 500.729492188 -12 492.729492188 -12 c 0x60
EndSplineSet
EndChar

StartChar: three
Encoding: 51 51 30
Width: 620
GlyphClass: 2
Flags: HMW
HStem: -23.9941 84<303.37 327.037> 318.006 100<332.37 339.037> 638.006 83.998<442.705 457.703>
VStem: 474.204 100
LayerCount: 2
Fore
SplineSet
566.704101562 199 m 0
 551.37109375 130.333007812 519.37109375 76.005859375 470.704101562 36.005859375 c 0
 422.037109375 -3.994140625 362.370117188 -23.994140625 291.703125 -23.994140625 c 0
 269.703125 -23.994140625 248.870117188 -20.494140625 229.203125 -13.494140625 c 0
 209.536132812 -6.494140625 192.703125 2.505859375 178.703125 13.505859375 c 0
 164.703125 24.505859375 153.036132812 36.505859375 143.703125 49.505859375 c 0
 134.370117188 62.505859375 128.370117188 75.3388671875 125.703125 88.005859375 c 0
 124.370117188 94.138671875 123.703125 100.059570312 123.703125 105.765625 c 0
 123.703125 114.326171875 125.203125 122.405273438 128.203125 130.005859375 c 0
 133.203125 142.672851562 141.370117188 151.672851562 152.703125 157.005859375 c 0
 162.358398438 161.603515625 170.982421875 163.90234375 178.576171875 163.90234375 c 0
 181.994140625 163.90234375 185.203125 163.436523438 188.203125 162.505859375 c 0
 197.870117188 159.505859375 206.037109375 151.005859375 212.704101562 137.005859375 c 0
 222.037109375 117.005859375 235.370117188 99.1728515625 252.703125 83.505859375 c 0
 270.036132812 67.8388671875 291.036132812 60.005859375 315.703125 60.005859375 c 0
 352.370117188 60.005859375 385.370117188 71.3388671875 414.703125 94.005859375 c 0
 444.036132812 116.672851562 462.703125 146.005859375 470.703125 182.005859375 c 0
 473.814453125 196.673828125 475.370117188 210.0078125 475.370117188 222.008789062 c 0
 475.370117188 228.0078125 474.981445312 233.672851562 474.204101562 239.005859375 c 0
 471.87109375 255.005859375 465.37109375 269.005859375 454.704101562 281.005859375 c 0
 444.037109375 293.005859375 427.537109375 302.172851562 405.204101562 308.505859375 c 0
 382.87109375 314.838867188 355.37109375 318.005859375 322.704101562 318.005859375 c 0
 310.037109375 318.005859375 300.370117188 323.505859375 293.703125 334.505859375 c 0
 289.2578125 341.83984375 287.036132812 349.692382812 287.036132812 358.0625 c 0
 287.036132812 362.248046875 287.590820312 366.561523438 288.702148438 371.005859375 c 0
 292.03515625 385.005859375 298.03515625 396.338867188 306.702148438 405.005859375 c 0
 315.369140625 413.672851562 326.036132812 418.005859375 338.703125 418.005859375 c 0
 390.703125 418.005859375 434.203125 429.172851562 469.203125 451.505859375 c 0
 504.203125 473.838867188 526.036132812 506.338867188 534.703125 549.005859375 c 0
 537.262695312 558.60546875 538.54296875 567.420898438 538.54296875 575.450195312 c 0
 538.54296875 592.513671875 532.762695312 606.032226562 521.203125 616.005859375 c 0
 504.203125 630.672851562 476.703125 638.005859375 438.703125 638.005859375 c 0
 431.370117188 638.005859375 424.203125 637.172851562 417.203125 635.505859375 c 0
 410.203125 633.838867188 404.203125 632.171875 399.203125 630.504882812 c 0
 394.203125 628.837890625 388.703125 626.004882812 382.703125 622.004882812 c 0
 376.703125 618.004882812 371.870117188 614.671875 368.203125 612.004882812 c 0
 364.536132812 609.337890625 359.703125 605.004882812 353.703125 599.004882812 c 2
 341.203125 586.504882812 l 2
 338.870117188 584.171875 334.703125 579.338867188 328.703125 572.005859375 c 0
 315.370117188 557.338867188 303.203125 548.671875 292.203125 546.004882812 c 0
 289.060546875 545.243164062 285.958007812 544.862304688 282.896484375 544.862304688 c 0
 275.243164062 544.862304688 267.845703125 547.243164062 260.703125 552.004882812 c 0
 251.9921875 556.982421875 247.637695312 565.0078125 247.637695312 576.083007812 c 0
 247.637695312 588.150390625 252.678710938 603.212890625 264.705078125 622.00390625 c 0
 274.038085938 635.336914062 284.705078125 647.50390625 296.705078125 658.50390625 c 0
 308.705078125 669.50390625 322.372070312 680.00390625 337.705078125 690.00390625 c 0
 353.038085938 700.00390625 370.705078125 707.836914062 390.705078125 713.50390625 c 0
 410.705078125 719.170898438 431.705078125 722.00390625 453.705078125 722.00390625 c 0
 525.038085938 722.00390625 575.038085938 706.00390625 603.705078125 674.00390625 c 0
 622.103515625 653.466796875 631.301757812 626.614257812 631.301757812 593.4453125 c 0
 631.301757812 574.932617188 628.436523438 554.452148438 622.705078125 532.00390625 c 0
 618.705078125 512.670898438 612.538085938 495.170898438 604.205078125 479.50390625 c 0
 595.872070312 463.836914062 586.372070312 450.50390625 575.705078125 439.50390625 c 0
 565.038085938 428.50390625 552.87109375 418.836914062 539.204101562 410.50390625 c 0
 525.537109375 402.170898438 512.204101562 395.670898438 499.204101562 391.00390625 c 0
 486.204101562 386.336914062 472.37109375 382.669921875 457.704101562 380.002929688 c 1
 481.704101562 374.002929688 501.704101562 366.669921875 517.704101562 358.002929688 c 0
 533.704101562 349.3359375 546.704101562 338.168945312 556.704101562 324.501953125 c 0
 566.704101562 310.834960938 572.537109375 293.66796875 574.204101562 273.000976562 c 0
 574.537109375 268.8671875 574.704101562 264.573242188 574.704101562 260.119140625 c 0
 574.704101562 242.305664062 572.037109375 221.932617188 566.704101562 199 c 0
EndSplineSet
EndChar

StartChar: four
Encoding: 52 52 31
Width: 620
GlyphClass: 2
Flags: HMW
HStem: -23.001 21G<417.946 430.613> 223.999 79.999
LayerCount: 2
Fore
SplineSet
478.611328125 55 m 0
 477.944335938 33.6669921875 472.112304688 15.33203125 461.112304688 -0.0009765625 c 0
 450.112304688 -15.333984375 437.612304688 -23.0009765625 423.612304688 -23.0009765625 c 0
 412.279296875 -23.0009765625 402.279296875 -18.16796875 393.612304688 -8.5009765625 c 0
 386.100585938 -0.123046875 382.344726562 8.380859375 382.344726562 17.0087890625 c 0
 382.344726562 23.4921875 388.22265625 48.0009765625 391.110351562 59.9990234375 c 0
 395.443359375 77.9990234375 401.610351562 103.83203125 409.610351562 137.499023438 c 0
 417.610351562 171.166015625 424.27734375 199.999023438 429.610351562 223.999023438 c 1
 416.357421875 224.15625 403.565429688 224.234375 391.234375 224.234375 c 0
 298.740234375 224.234375 232.19921875 219.822265625 191.610351562 210.999023438 c 0
 181.610351562 208.999023438 172.77734375 209.33203125 165.110351562 211.999023438 c 0
 157.443359375 214.666015625 152.110351562 219.333007812 149.110351562 226 c 0
 146.110351562 232.666992188 144.27734375 240.333984375 143.610351562 249.000976562 c 0
 142.943359375 257.66796875 143.776367188 266.66796875 146.109375 276.000976562 c 0
 148.442382812 285.333984375 151.942382812 294.333984375 156.609375 303.000976562 c 0
 167.276367188 321.66796875 191.109375 352.16796875 228.109375 394.500976562 c 0
 265.109375 436.833984375 312.276367188 489.166992188 369.609375 551.5 c 0
 426.942382812 613.833007812 467.942382812 659 492.609375 687 c 0
 503.942382812 699.666992188 515.442382812 709.166992188 527.109375 715.5 c 0
 538.776367188 721.833007812 548.943359375 725 557.610351562 725 c 0
 559.913085938 725.2421875 562.155273438 725.36328125 564.336914062 725.36328125 c 0
 574.155273438 725.36328125 582.74609375 722.909179688 590.110351562 718 c 0
 598.489257812 712.4140625 602.6796875 703.072265625 602.6796875 689.973632812 c 0
 602.6796875 684.974609375 601.553710938 656.916992188 586.611328125 579 c 0
 577.278320312 530.333007812 568.9453125 489.166015625 561.612304688 455.499023438 c 0
 554.279296875 421.83203125 543.279296875 370.999023438 528.612304688 302.999023438 c 1
 539.279296875 302.33203125 551.279296875 301.999023438 564.612304688 301.999023438 c 0
 579.279296875 301.999023438 588.612304688 298.499023438 592.612304688 291.499023438 c 0
 596.612304688 284.499023438 597.612304688 275.33203125 595.612304688 263.999023438 c 0
 588.9453125 234.666015625 572.278320312 219.999023438 545.611328125 219.999023438 c 0
 532.944335938 219.999023438 521.611328125 220.33203125 511.611328125 220.999023438 c 1
 489.611328125 123.666015625 478.611328125 68.3330078125 478.611328125 55 c 0
509.612304688 601.998046875 m 1
 387.612304688 472.665039062 302.278320312 372.331054688 253.611328125 300.998046875 c 1
 288.850585938 303.37890625 331.9140625 304.569335938 382.801757812 304.569335938 c 0
 403.153320312 304.569335938 424.756835938 304.37890625 447.611328125 303.998046875 c 1
 476.278320312 428.665039062 496.9453125 527.998046875 509.612304688 601.998046875 c 1
EndSplineSet
EndChar

StartChar: five
Encoding: 53 53 32
Width: 620
GlyphClass: 2
Flags: HMW
HStem: -18.001 83.998<300.707 307.04> 419.997 89.0029<425.041 487.709> 619 88.998<625.376 656.71> 630 79.998
LayerCount: 2
Fore
SplineSet
598.708984375 296 m 0xd0
 587.375976562 246.666992188 571.373046875 202.166015625 550.706054688 162.499023438 c 0
 530.0390625 122.83203125 506.206054688 89.83203125 479.206054688 63.4990234375 c 0
 452.206054688 37.166015625 422.5390625 16.9990234375 390.206054688 2.9990234375 c 0
 357.873046875 -11.0009765625 324.373046875 -18.0009765625 289.706054688 -18.0009765625 c 0
 262.373046875 -18.0009765625 237.873046875 -15.0009765625 216.206054688 -9.0009765625 c 0
 194.5390625 -3.0009765625 177.206054688 5.33203125 164.206054688 15.9990234375 c 0
 151.206054688 26.666015625 140.873046875 37.8330078125 133.206054688 49.5 c 0
 125.5390625 61.1669921875 119.706054688 73.333984375 115.706054688 86.0009765625 c 0
 114.373046875 93.201171875 113.706054688 99.8681640625 113.706054688 106.000976562 c 0
 113.706054688 115.201171875 115.206054688 123.201171875 118.206054688 130.000976562 c 0
 123.206054688 141.333984375 132.0390625 150.000976562 144.706054688 156.000976562 c 0
 152.706054688 159.333984375 158.873046875 161.666992188 163.206054688 163 c 0
 167.5390625 164.333007812 172.5390625 164.666015625 178.206054688 163.999023438 c 0
 183.873046875 163.33203125 188.540039062 160.665039062 192.20703125 155.998046875 c 0
 195.874023438 151.331054688 199.374023438 144.6640625 202.70703125 135.997070312 c 0
 220.040039062 89.9970703125 252.70703125 66.6640625 300.70703125 65.9970703125 c 0
 347.374023438 65.9970703125 388.874023438 85.830078125 425.20703125 125.497070312 c 0
 461.540039062 165.1640625 487.373046875 218.331054688 502.706054688 284.998046875 c 0
 506.920898438 303.6640625 509.028320312 320.59765625 509.028320312 335.796875 c 0
 509.028320312 354.252929688 505.920898438 370.153320312 499.706054688 383.497070312 c 0
 488.373046875 407.830078125 465.040039062 419.997070312 429.70703125 419.997070312 c 0
 420.374023438 419.997070312 411.20703125 419.497070312 402.20703125 418.497070312 c 0
 393.20703125 417.497070312 385.540039062 416.1640625 379.20703125 414.497070312 c 0
 372.874023438 412.830078125 365.70703125 410.330078125 357.70703125 406.997070312 c 0
 349.70703125 403.6640625 343.70703125 400.997070312 339.70703125 398.997070312 c 0
 335.70703125 396.997070312 330.040039062 393.330078125 322.70703125 387.997070312 c 0
 315.374023438 382.6640625 310.541015625 378.997070312 308.208007812 376.997070312 c 0
 305.875 374.997070312 300.875 370.830078125 293.208007812 364.497070312 c 0
 285.541015625 358.1640625 280.708007812 354.331054688 278.708007812 352.998046875 c 0
 272.708007812 348.331054688 265.875 344.331054688 258.208007812 340.998046875 c 0
 250.541015625 337.665039062 242.208007812 335.498046875 233.208007812 334.498046875 c 0
 224.208007812 333.498046875 216.041015625 334.998046875 208.708007812 338.998046875 c 0
 199.375 343.665039062 193.875 353.998046875 192.208007812 369.998046875 c 0
 191.76953125 374.208984375 191.549804688 378.673828125 191.549804688 383.392578125 c 0
 191.549804688 396.603515625 193.26953125 411.805664062 196.708007812 428.998046875 c 0
 201.375 452.331054688 206.708007812 474.831054688 212.708007812 496.498046875 c 0
 218.708007812 518.165039062 225.375 541.498046875 232.708007812 566.498046875 c 0
 240.041015625 591.498046875 244.708007812 608.665039062 246.708007812 617.998046875 c 1
 243.375 626.665039062 242.375 636.498046875 243.708007812 647.498046875 c 0
 245.041015625 658.498046875 248.041015625 668.665039062 252.708007812 677.998046875 c 0
 257.375 687.331054688 263.541992188 695.331054688 271.208984375 701.998046875 c 0
 278.875976562 708.665039062 287.04296875 711.998046875 295.709960938 711.998046875 c 0
 319.04296875 711.998046875 373.209960938 711.331054688 458.209960938 709.998046875 c 0xd0
 543.209960938 708.665039062 608.04296875 707.998046875 652.709960938 707.998046875 c 0
 660.709960938 707.998046875 666.376953125 704.331054688 669.709960938 696.998046875 c 0
 673.04296875 689.665039062 674.375976562 681.33203125 673.708984375 671.999023438 c 0
 673.041992188 662.666015625 671.375 653.999023438 668.708007812 645.999023438 c 0
 667.375 641.33203125 665.541992188 637.33203125 663.208984375 633.999023438 c 0
 660.875976562 630.666015625 658.04296875 628.166015625 654.709960938 626.499023438 c 0
 651.376953125 624.83203125 648.543945312 623.33203125 646.2109375 621.999023438 c 0
 643.877929688 620.666015625 640.377929688 619.833007812 635.7109375 619.5 c 0
 631.043945312 619.166992188 627.876953125 619 626.209960938 619 c 0xe0
 624.54296875 619 621.04296875 619.333007812 615.709960938 620 c 0
 610.376953125 620.666992188 607.376953125 621 606.709960938 621 c 0
 598.04296875 621 582.875976562 622 561.208984375 624 c 0
 539.541992188 626 520.041992188 627.5 502.708984375 628.5 c 0
 485.375976562 629.5 461.208984375 630 430.208984375 630 c 0
 399.208984375 630 366.708984375 629 332.708984375 627 c 1
 330.708984375 620.333007812 325.541992188 601 317.208984375 569 c 0
 308.875976562 537 302.875976562 513.833007812 299.208984375 499.5 c 0
 295.541992188 485.166992188 291.041992188 464.666992188 285.708984375 438 c 1
 307.708984375 458.666992188 335.041992188 475.666992188 367.708984375 489 c 0
 400.375976562 502.333007812 435.708984375 509 473.708984375 509 c 0
 501.708984375 509 525.375976562 503.5 544.708984375 492.5 c 0
 564.041992188 481.5 578.708984375 466.333007812 588.708984375 447 c 0
 598.708984375 427.666992188 604.541992188 405.166992188 606.208984375 379.5 c 0
 606.541992188 374.366210938 606.708984375 369.145507812 606.708984375 363.837890625 c 0
 606.708984375 342.611328125 604.041992188 319.999023438 598.708984375 296 c 0xd0
EndSplineSet
EndChar

StartChar: six
Encoding: 54 54 33
Width: 620
GlyphClass: 2
Flags: HMW
HStem: -21.9971 84.0049<315.472 319.14> 393.004 87.9961<397.14 472.14> 657 80.002
VStem: 137.806 82.9971 505.306 95
LayerCount: 2
Fore
SplineSet
588.806640625 246 m 0
 580.139648438 208.666992188 566.138671875 173.502929688 546.805664062 140.502929688 c 0
 527.47265625 107.502929688 505.305664062 79.169921875 480.305664062 55.5029296875 c 0
 455.305664062 31.8359375 427.305664062 13.0029296875 396.305664062 -0.9970703125 c 0
 365.305664062 -14.9970703125 334.47265625 -21.9970703125 303.805664062 -21.9970703125 c 0
 265.805664062 -21.9970703125 234.305664062 -14.1640625 209.305664062 1.5029296875 c 0
 184.305664062 17.169921875 165.97265625 39.8369140625 154.305664062 69.50390625 c 0
 143.26953125 97.56640625 137.751953125 130.848632812 137.751953125 169.349609375 c 0
 137.751953125 171.55078125 137.76953125 173.768554688 137.805664062 176.00390625 c 0
 138.47265625 217.336914062 145.139648438 263.669921875 157.806640625 315.002929688 c 0
 171.806640625 372.3359375 189.139648438 424.002929688 209.806640625 470.002929688 c 0
 230.473632812 516.002929688 253.306640625 554.669921875 278.306640625 586.002929688 c 0
 303.306640625 617.3359375 331.139648438 643.8359375 361.806640625 665.502929688 c 0
 392.473632812 687.169921875 424.140625 703.669921875 456.807617188 715.002929688 c 0
 489.474609375 726.3359375 524.807617188 733.668945312 562.807617188 737.001953125 c 0
 565.600585938 737.255859375 568.291015625 737.3828125 570.877929688 737.3828125 c 0
 581.87890625 737.3828125 591.021484375 735.088867188 598.307617188 730.500976562 c 0
 606.686523438 725.224609375 610.876953125 716.915039062 610.876953125 705.571289062 c 0
 610.876953125 701.477539062 610.876953125 691.969726562 593.806640625 676.5 c 0
 583.139648438 666.833007812 572.47265625 660.333007812 561.805664062 657 c 0
 554.47265625 655 543.305664062 652.333007812 528.305664062 649 c 0
 513.305664062 645.666992188 500.638671875 642.5 490.305664062 639.5 c 0
 479.97265625 636.5 467.305664062 632 452.305664062 626 c 0
 437.305664062 620 421.805664062 611.333007812 405.805664062 600 c 0
 389.805664062 588.666992188 373.47265625 575 356.805664062 559 c 0
 339.47265625 541.666992188 321.639648438 518 303.306640625 488 c 0
 284.973632812 458 271.473632812 431.333007812 262.806640625 408 c 1
 288.139648438 432.666992188 317.47265625 451 350.805664062 463 c 0
 384.138671875 475 419.805664062 481 457.805664062 481 c 0
 486.47265625 481 510.97265625 476.666992188 531.305664062 468 c 0
 551.638671875 459.333007812 567.805664062 445.666015625 579.805664062 426.999023438 c 0
 591.805664062 408.33203125 598.638671875 383.83203125 600.305664062 353.499023438 c 0
 600.55859375 348.90234375 600.684570312 344.178710938 600.684570312 339.330078125 c 0
 600.684570312 312.178710938 596.725585938 281.069335938 588.806640625 246 c 0
222.805664062 230.002929688 m 0
 221.3046875 218.997070312 220.552734375 207.899414062 220.552734375 196.708007812 c 0
 220.552734375 192.984375 220.63671875 189.250976562 220.802734375 185.506835938 c 0
 221.469726562 170.506835938 224.13671875 155.33984375 228.803710938 140.006835938 c 0
 233.470703125 124.673828125 239.637695312 111.340820312 247.3046875 100.0078125 c 0
 254.971679688 88.6748046875 265.471679688 79.5078125 278.8046875 72.5078125 c 0
 292.137695312 65.5078125 307.137695312 62.0078125 323.8046875 62.0078125 c 0
 346.471679688 62.0078125 370.138671875 70.6748046875 394.805664062 88.0078125 c 0
 419.47265625 105.340820312 440.805664062 127.173828125 458.805664062 153.506835938 c 0
 476.805664062 179.83984375 488.805664062 206.672851562 494.805664062 234.005859375 c 0
 501.8203125 263.977539062 505.327148438 289.375 505.327148438 310.196289062 c 0
 505.327148438 333.04296875 501.104492188 350.248046875 492.805664062 362.00390625 c 0
 484.805664062 373.336914062 474.47265625 381.336914062 461.805664062 386.00390625 c 0
 449.138671875 390.670898438 432.805664062 393.00390625 412.805664062 393.00390625 c 0
 381.47265625 393.00390625 350.305664062 384.336914062 319.305664062 367.00390625 c 0
 288.305664062 349.670898438 261.138671875 327.670898438 237.805664062 301.00390625 c 1
 230.47265625 272.336914062 225.47265625 248.669921875 222.805664062 230.002929688 c 0
EndSplineSet
EndChar

StartChar: seven
Encoding: 55 55 34
Width: 620
GlyphClass: 2
Flags: HMW
HStem: 622.497 90.5
LayerCount: 2
Fore
SplineSet
218.213867188 26 m 0
 206.880859375 8.6669921875 194.375976562 -4.3359375 180.708984375 -13.0029296875 c 0
 170.2578125 -19.630859375 160.489257812 -22.9443359375 151.403320312 -22.9443359375 c 0
 148.607421875 -22.9443359375 145.875976562 -22.630859375 143.208984375 -22.0029296875 c 0
 130.541992188 -18.669921875 123.041992188 -10.669921875 120.708984375 1.9970703125 c 0
 120.267578125 4.3935546875 120.046875 6.837890625 120.046875 9.3291015625 c 0
 120.046875 20.0087890625 124.100585938 31.564453125 132.208984375 43.9970703125 c 0
 179.541992188 112.6640625 229.208984375 180.997070312 281.208984375 248.997070312 c 0
 333.208984375 316.997070312 375.708984375 371.1640625 408.708984375 411.497070312 c 0
 441.708984375 451.830078125 472.708984375 490.997070312 501.708984375 528.997070312 c 0
 530.708984375 566.997070312 551.541992188 597.997070312 564.208984375 621.997070312 c 1
 535.1171875 623.087890625 504.8359375 623.633789062 473.36328125 623.633789062 c 0
 447.138671875 623.633789062 420.087890625 623.254882812 392.209960938 622.497070312 c 0
 330.876953125 620.830078125 290.209960938 617.330078125 270.209960938 611.997070312 c 0
 262.209960938 609.997070312 255.709960938 610.330078125 250.709960938 612.997070312 c 0
 245.709960938 615.6640625 242.04296875 619.6640625 239.709960938 624.997070312 c 0
 237.376953125 630.330078125 236.043945312 635.997070312 235.7109375 641.997070312 c 0
 235.377929688 647.997070312 235.544921875 653.997070312 236.211914062 659.997070312 c 0
 238.87890625 671.997070312 243.87890625 681.497070312 251.211914062 688.497070312 c 0
 258.544921875 695.497070312 270.211914062 700.6640625 286.211914062 703.997070312 c 0
 310.211914062 708.6640625 342.544921875 711.6640625 383.211914062 712.997070312 c 0
 403.545898438 713.6640625 423.045898438 713.997070312 441.711914062 713.997070312 c 0
 460.37890625 713.997070312 478.211914062 713.663085938 495.211914062 712.997070312 c 0
 529.211914062 711.6640625 562.37890625 710.331054688 594.711914062 708.998046875 c 0
 627.044921875 707.665039062 644.544921875 706.998046875 647.211914062 706.998046875 c 0
 653.87890625 706.998046875 659.87890625 705.498046875 665.211914062 702.498046875 c 0
 670.544921875 699.498046875 675.211914062 694.665039062 679.211914062 687.998046875 c 0
 683.211914062 681.331054688 684.044921875 672.6640625 681.711914062 661.997070312 c 0
 679.37890625 651.330078125 673.545898438 638.997070312 664.212890625 624.997070312 c 0
 650.879882812 604.997070312 628.212890625 574.830078125 596.212890625 534.497070312 c 0
 564.212890625 494.1640625 531.045898438 452.831054688 496.712890625 410.498046875 c 0
 462.379882812 368.165039062 419.546875 311.83203125 368.213867188 241.499023438 c 0
 316.880859375 171.166015625 266.880859375 99.3330078125 218.213867188 26 c 0
EndSplineSet
EndChar

StartChar: eight
Encoding: 56 56 35
Width: 620
GlyphClass: 2
Flags: HMW
HStem: -27.9922 85.9971<301.737 306.403> 646.004 72.001<454.403 459.403>
VStem: 499.57 90.501
LayerCount: 2
Fore
SplineSet
585.0703125 204 m 0
 580.403320312 182.666992188 572.90234375 161.338867188 562.569335938 140.005859375 c 0
 552.236328125 118.672851562 538.569335938 97.83984375 521.569335938 77.5068359375 c 0
 504.569335938 57.173828125 485.236328125 39.3408203125 463.569335938 24.0078125 c 0
 441.90234375 8.6748046875 416.069335938 -3.8251953125 386.069335938 -13.4921875 c 0
 356.069335938 -23.1591796875 323.736328125 -27.9921875 289.069335938 -27.9921875 c 0
 257.736328125 -27.9921875 230.569335938 -23.3251953125 207.569335938 -13.9921875 c 0
 184.569335938 -4.6591796875 166.90234375 7.173828125 154.569335938 21.5068359375 c 0
 142.236328125 35.83984375 132.903320312 53.0068359375 126.5703125 73.0068359375 c 0
 120.553710938 92.0078125 117.544921875 111.159179688 117.544921875 130.4609375 c 0
 117.544921875 141.575195312 118.374023438 165.397460938 125.0703125 196.005859375 c 0
 130.403320312 218.672851562 141.403320312 243.005859375 158.0703125 269.005859375 c 0
 174.737304688 295.005859375 195.737304688 319.005859375 221.0703125 341.005859375 c 0
 246.403320312 363.005859375 272.403320312 378.338867188 299.0703125 387.005859375 c 1
 269.737304688 403.672851562 249.0703125 425.505859375 237.0703125 452.505859375 c 0
 229.356445312 469.86328125 225.499023438 487.426757812 225.499023438 505.197265625 c 0
 225.499023438 515.069335938 226.689453125 525.005859375 229.0703125 535.005859375 c 0
 231.0703125 543.005859375 233.5703125 551.505859375 236.5703125 560.505859375 c 0
 239.5703125 569.505859375 244.403320312 580.172851562 251.0703125 592.505859375 c 0
 257.737304688 604.838867188 265.237304688 616.671875 273.5703125 628.004882812 c 0
 281.903320312 639.337890625 292.403320312 650.504882812 305.0703125 661.504882812 c 0
 317.737304688 672.504882812 331.5703125 682.171875 346.5703125 690.504882812 c 0
 361.5703125 698.837890625 379.403320312 705.504882812 400.0703125 710.504882812 c 0
 420.737304688 715.504882812 442.737304688 718.004882812 466.0703125 718.004882812 c 0
 490.0703125 718.004882812 511.237304688 715.504882812 529.5703125 710.504882812 c 0
 547.903320312 705.504882812 562.903320312 698.837890625 574.5703125 690.504882812 c 0
 586.237304688 682.171875 595.737304688 672.504882812 603.0703125 661.504882812 c 0
 610.403320312 650.504882812 615.736328125 639.337890625 619.069335938 628.004882812 c 0
 622.40234375 616.671875 624.40234375 604.671875 625.069335938 592.004882812 c 0
 625.3359375 586.938476562 625.469726562 582.112304688 625.469726562 577.525390625 c 0
 625.469726562 570.64453125 625.168945312 564.3046875 624.569335938 558.50390625 c 0
 623.569335938 548.836914062 622.069335938 539.669921875 620.069335938 531.002929688 c 0
 618.069335938 523.002929688 615.236328125 515.002929688 611.569335938 507.002929688 c 0
 607.90234375 499.002929688 603.90234375 492.002929688 599.569335938 486.002929688 c 0
 595.236328125 480.002929688 589.736328125 473.669921875 583.069335938 467.002929688 c 0
 576.40234375 460.3359375 570.40234375 454.668945312 565.069335938 450.001953125 c 0
 559.736328125 445.334960938 552.903320312 440.001953125 544.5703125 434.001953125 c 0
 536.237304688 428.001953125 529.5703125 423.501953125 524.5703125 420.501953125 c 0
 519.5703125 417.501953125 512.903320312 413.334960938 504.5703125 408.001953125 c 0
 496.237304688 402.668945312 490.404296875 399.001953125 487.071289062 397.001953125 c 1
 507.73828125 386.334960938 525.23828125 374.334960938 539.571289062 361.001953125 c 0
 553.904296875 347.668945312 564.571289062 334.501953125 571.571289062 321.501953125 c 0
 578.571289062 308.501953125 583.571289062 294.668945312 586.571289062 280.001953125 c 0
 589.025390625 268.001953125 590.252929688 257.006835938 590.252929688 247.014648438 c 0
 590.252929688 244.793945312 590.192382812 242.623046875 590.071289062 240.500976562 c 0
 589.404296875 228.833984375 587.737304688 216.666992188 585.0703125 204 c 0
317.069335938 538.004882812 m 0
 315.670898438 532.235351562 314.971679688 526.637695312 314.971679688 521.211914062 c 0
 314.971679688 505.94921875 320.504882812 492.046875 331.571289062 479.504882812 c 0
 346.571289062 462.504882812 374.071289062 445.337890625 414.071289062 428.004882812 c 1
 442.73828125 439.337890625 469.23828125 454.670898438 493.571289062 474.00390625 c 0
 517.904296875 493.336914062 531.737304688 511.336914062 535.0703125 528.00390625 c 0
 536.784179688 536.00390625 537.641601562 543.942382812 537.641601562 551.819335938 c 0
 537.641601562 562.323242188 536.118164062 572.717773438 533.0703125 583.00390625 c 0
 527.737304688 601.00390625 517.5703125 616.00390625 502.5703125 628.00390625 c 0
 487.5703125 640.00390625 469.737304688 646.00390625 449.0703125 646.00390625 c 0
 420.403320312 646.00390625 392.736328125 634.836914062 366.069335938 612.50390625 c 0
 339.40234375 590.170898438 323.069335938 565.337890625 317.069335938 538.004882812 c 0
313.071289062 58.0048828125 m 0
 331.071289062 58.0048828125 349.737304688 60.8330078125 369.0703125 66.5 c 0
 388.403320312 72.1669921875 406.5703125 80.333984375 423.5703125 91.0009765625 c 0
 440.5703125 101.66796875 455.5703125 115.66796875 468.5703125 133.000976562 c 0
 481.5703125 150.333984375 490.403320312 168.666992188 495.0703125 188 c 0
 496.821289062 195.001953125 499.620117188 208.245117188 499.620117188 221.444335938 c 0
 499.620117188 230.415039062 498.270507812 240.600585938 495.5703125 252.001953125 c 0
 492.5703125 264.668945312 487.403320312 276.3359375 480.0703125 287.002929688 c 0
 472.737304688 297.669921875 461.737304688 308.836914062 447.0703125 320.50390625 c 0
 432.403320312 332.170898438 414.0703125 342.670898438 392.0703125 352.00390625 c 1
 344.0703125 339.336914062 302.737304688 317.336914062 268.0703125 286.00390625 c 0
 233.403320312 254.670898438 211.736328125 221.337890625 203.069335938 186.004882812 c 0
 200.771484375 176.557617188 199.622070312 167.453125 199.622070312 158.690429688 c 0
 199.622070312 144.573242188 202.604492188 131.344726562 208.569335938 119.004882812 c 0
 218.236328125 99.0048828125 232.403320312 83.837890625 251.0703125 73.5048828125 c 0
 269.737304688 63.171875 290.404296875 58.0048828125 313.071289062 58.0048828125 c 0
EndSplineSet
EndChar

StartChar: nine
Encoding: 57 57 36
Width: 620
GlyphClass: 2
Flags: HMW
HStem: -22 79.9961<196.612 196.612> 234.998 89<322.945 394.279> 654.995 84.0049<462.279 465.943>
LayerCount: 2
Fore
SplineSet
196.612304688 -22 m 0
 193.81640625 -22.25390625 191.1171875 -22.380859375 188.514648438 -22.380859375 c 0
 177.465820312 -22.380859375 168.163085938 -20.0908203125 160.609375 -15.50390625 c 0
 152.442382812 -10.544921875 148.359375 -2.90625 148.359375 7.412109375 c 0
 148.359375 14.451171875 149.158203125 24.6025390625 165.610351562 38.9970703125 c 0
 176.27734375 48.330078125 186.944335938 54.6630859375 197.611328125 57.99609375 c 0
 204.944335938 59.99609375 216.611328125 62.6630859375 232.611328125 65.99609375 c 0
 248.611328125 69.3291015625 263.111328125 72.8291015625 276.111328125 76.49609375 c 0
 289.111328125 80.1630859375 303.944335938 84.99609375 320.611328125 90.99609375 c 0
 337.278320312 96.99609375 353.778320312 105.329101562 370.111328125 115.99609375 c 0
 386.444335938 126.663085938 402.611328125 139.330078125 418.611328125 153.997070312 c 0
 438.611328125 173.330078125 457.611328125 195.830078125 475.611328125 221.497070312 c 0
 493.611328125 247.1640625 506.944335938 270.331054688 515.611328125 290.998046875 c 1
 493.611328125 269.665039062 468.278320312 254.998046875 439.611328125 246.998046875 c 0
 410.944335938 238.998046875 376.611328125 234.998046875 336.611328125 234.998046875 c 0
 309.278320312 234.998046875 284.778320312 241.831054688 263.111328125 255.498046875 c 0
 241.444335938 269.165039062 224.611328125 287.33203125 212.611328125 309.999023438 c 0
 200.611328125 332.666015625 192.944335938 358.833007812 189.611328125 388.5 c 0
 188.5 398.387695312 187.9453125 408.33203125 187.9453125 418.331054688 c 0
 187.9453125 438.33203125 190.166992188 458.555664062 194.612304688 479.000976562 c 0
 203.279296875 516.333984375 217.112304688 551.166992188 236.112304688 583.5 c 0
 255.112304688 615.833007812 277.112304688 643.333007812 302.112304688 666 c 0
 327.112304688 688.666992188 354.9453125 706.5 385.612304688 719.5 c 0
 416.279296875 732.5 446.946289062 739 477.61328125 739 c 0
 553.61328125 739 603.11328125 708 626.11328125 646 c 0
 636.485351562 618.0390625 641.671875 584.586914062 641.671875 545.643554688 c 0
 641.671875 498.234375 633.985351562 442.686523438 618.61328125 379 c 0
 605.946289062 325.666992188 588.779296875 277.5 567.112304688 234.5 c 0
 545.4453125 191.5 521.278320312 155 494.611328125 125 c 0
 467.944335938 95 438.111328125 69.3330078125 405.111328125 48 c 0
 372.111328125 26.6669921875 338.444335938 10.5 304.111328125 -0.5 c 0
 269.778320312 -11.5 233.9453125 -18.6669921875 196.612304688 -22 c 0
288.609375 490.995117188 m 0
 282.879882812 466.268554688 280.015625 444.237304688 280.015625 424.8984375 c 0
 280.015625 401.482421875 284.215820312 382.015625 292.61328125 366.498046875 c 0
 307.946289062 338.165039062 337.279296875 323.998046875 380.612304688 323.998046875 c 0
 407.9453125 323.998046875 436.278320312 330.665039062 465.611328125 343.998046875 c 0
 494.944335938 357.331054688 519.944335938 375.6640625 540.611328125 398.997070312 c 1
 545.944335938 418.330078125 551.944335938 447.663085938 558.611328125 486.99609375 c 0
 560.111328125 497.99609375 560.861328125 509.088867188 560.861328125 520.276367188 c 0
 560.861328125 524.005859375 560.778320312 527.74609375 560.611328125 531.49609375 c 0
 559.944335938 546.49609375 557.27734375 561.663085938 552.610351562 576.99609375 c 0
 547.943359375 592.329101562 541.776367188 605.662109375 534.109375 616.995117188 c 0
 526.442382812 628.328125 515.942382812 637.495117188 502.609375 644.495117188 c 0
 489.276367188 651.495117188 474.276367188 654.995117188 457.609375 654.995117188 c 0
 434.276367188 654.995117188 410.776367188 646.995117188 387.109375 630.995117188 c 0
 363.442382812 614.995117188 342.609375 594.495117188 324.609375 569.495117188 c 0
 306.609375 544.495117188 294.609375 518.328125 288.609375 490.995117188 c 0
EndSplineSet
EndChar

StartChar: colon
Encoding: 58 58 37
Width: 620
GlyphClass: 2
Flags: HMW
VStem: 269.892 192.996
LayerCount: 2
Fore
SplineSet
462.887695312 417 m 0
 459.5546875 395 451.891601562 371.6640625 439.891601562 346.997070312 c 0
 433.891601562 333.6640625 424.891601562 323.497070312 412.891601562 316.497070312 c 0
 401.935546875 310.106445312 391.8125 306.91015625 382.5234375 306.91015625 c 0
 381.638671875 306.91015625 380.76171875 306.939453125 379.891601562 306.997070312 c 0
 346.831054688 308.80078125 330.301757812 321.442382812 330.301757812 344.924804688 c 0
 330.301757812 347.486328125 330.498046875 350.177734375 330.891601562 352.997070312 c 0
 333.55859375 370.997070312 338.225585938 393.997070312 344.892578125 421.997070312 c 0
 346.892578125 430.6640625 350.892578125 437.831054688 356.892578125 443.498046875 c 0
 362.892578125 449.165039062 369.559570312 453.33203125 376.892578125 455.999023438 c 0
 384.225585938 458.666015625 391.05859375 460.333007812 397.391601562 461 c 0
 403.724609375 461.666992188 410.224609375 462 416.891601562 462 c 0
 422.224609375 462 427.557617188 461.333007812 432.890625 460 c 0
 438.223632812 458.666992188 443.556640625 456.5 448.889648438 453.5 c 0
 454.22265625 450.5 458.055664062 445.833007812 460.388671875 439.5 c 0
 462.721679688 433.166992188 463.5546875 425.666992188 462.887695312 417 c 0
401.891601562 149.997070312 m 0
 400.55859375 126.6640625 393.892578125 102.66015625 381.892578125 77.9931640625 c 0
 375.892578125 64.66015625 365.892578125 54.8271484375 351.892578125 48.494140625 c 0
 339.2265625 42.7646484375 327.924804688 39.8994140625 317.987304688 39.8994140625 c 0
 316.940429688 39.8994140625 315.909179688 39.931640625 314.892578125 39.9951171875 c 0
 302.225585938 40.662109375 291.05859375 44.8291015625 281.391601562 52.49609375 c 0
 273.381835938 58.8486328125 269.376953125 67.375 269.376953125 78.0751953125 c 0
 269.376953125 80.2890625 269.548828125 82.595703125 269.891601562 84.99609375 c 0
 272.55859375 98.99609375 274.225585938 107.829101562 274.892578125 111.49609375 c 0
 275.559570312 115.163085938 277.392578125 121.99609375 280.392578125 131.99609375 c 0
 283.392578125 141.99609375 285.559570312 149.663085938 286.892578125 154.99609375 c 0
 288.892578125 162.99609375 292.725585938 169.99609375 298.392578125 175.99609375 c 0
 304.059570312 181.99609375 310.392578125 186.163085938 317.392578125 188.49609375 c 0
 324.392578125 190.829101562 331.059570312 192.49609375 337.392578125 193.49609375 c 0
 343.725585938 194.49609375 349.892578125 194.99609375 355.892578125 194.99609375 c 0
 363.225585938 194.99609375 370.225585938 193.829101562 376.892578125 191.49609375 c 0
 383.559570312 189.163085938 389.559570312 184.330078125 394.892578125 176.997070312 c 0
 400.225585938 169.6640625 402.55859375 160.6640625 401.891601562 149.997070312 c 0
EndSplineSet
EndChar

StartChar: semicolon
Encoding: 59 59 38
Width: 620
GlyphClass: 2
Flags: HMW
VStem: 181.4 300.994
LayerCount: 2
Fore
SplineSet
482.393554688 375 m 0
 479.060546875 353 471.065429688 329.666015625 458.3984375 304.999023438 c 0
 452.3984375 291.666015625 443.3984375 281.499023438 431.3984375 274.499023438 c 0
 420.442382812 268.108398438 410.59765625 264.912109375 401.864257812 264.912109375 c 0
 401.032226562 264.912109375 400.209960938 264.94140625 399.3984375 264.999023438 c 0
 391.3984375 265.666015625 383.565429688 267.499023438 375.8984375 270.499023438 c 0
 368.231445312 273.499023438 361.564453125 278.666015625 355.897460938 285.999023438 c 0
 350.23046875 293.33203125 348.063476562 301.999023438 349.396484375 311.999023438 c 0
 352.063476562 329.999023438 357.396484375 352.999023438 365.396484375 380.999023438 c 0
 367.396484375 388.999023438 371.229492188 395.999023438 376.896484375 401.999023438 c 0
 382.563476562 407.999023438 389.063476562 412.166015625 396.396484375 414.499023438 c 0
 403.729492188 416.83203125 410.729492188 418.499023438 417.396484375 419.499023438 c 0
 424.063476562 420.499023438 430.063476562 420.666015625 435.396484375 419.999023438 c 0
 441.396484375 419.999023438 447.063476562 419.499023438 452.396484375 418.499023438 c 0
 457.729492188 417.499023438 463.0625 415.33203125 468.395507812 411.999023438 c 0
 473.728515625 408.666015625 477.561523438 403.833007812 479.89453125 397.5 c 0
 482.227539062 391.166992188 483.060546875 383.666992188 482.393554688 375 c 0
394.3984375 73.9990234375 m 0
 387.731445312 52.666015625 347.399414062 -34.3349609375 273.399414062 -187.001953125 c 0
 266.732421875 -201.001953125 258.232421875 -211.168945312 247.899414062 -217.501953125 c 0
 238.55078125 -223.231445312 229.338867188 -226.096679688 220.262695312 -226.096679688 c 0
 219.306640625 -226.096679688 218.352539062 -226.064453125 217.399414062 -226.000976562 c 0
 204.732421875 -225.333984375 194.399414062 -221.000976562 186.399414062 -213.000976562 c 0
 181.346679688 -207.948242188 178.8203125 -201.69921875 178.8203125 -194.252929688 c 0
 178.8203125 -189.909179688 179.6796875 -185.159179688 181.399414062 -180.000976562 c 0
 186.06640625 -164.000976562 201.56640625 -125.000976562 227.899414062 -63.0009765625 c 0
 254.232421875 -1.0009765625 274.732421875 46.33203125 289.399414062 78.9990234375 c 0
 294.06640625 88.9990234375 298.899414062 96.9990234375 303.899414062 102.999023438 c 0
 308.899414062 108.999023438 313.732421875 112.999023438 318.399414062 114.999023438 c 0
 323.06640625 116.999023438 328.06640625 118.33203125 333.399414062 118.999023438 c 0
 338.732421875 119.666015625 343.399414062 119.666015625 347.399414062 118.999023438 c 0
 353.399414062 118.999023438 359.399414062 118.166015625 365.399414062 116.499023438 c 0
 371.399414062 114.83203125 377.232421875 112.499023438 382.899414062 109.499023438 c 0
 388.56640625 106.499023438 392.56640625 101.999023438 394.899414062 95.9990234375 c 0
 397.232421875 89.9990234375 397.065429688 82.666015625 394.3984375 73.9990234375 c 0
EndSplineSet
EndChar

StartChar: less
Encoding: 60 60 39
Width: 620
GlyphClass: 2
Flags: W
HStem: -12.3984 21G<484.678 490.411>
LayerCount: 2
Fore
SplineSet
540.502929688 14 m 0
 535.8359375 7.3330078125 530.00390625 1.66796875 523.00390625 -2.9990234375 c 0
 516.00390625 -7.666015625 507.00390625 -10.666015625 496.00390625 -11.9990234375 c 0
 493.8046875 -12.265625 491.557617188 -12.3984375 489.264648438 -12.3984375 c 0
 480.090820312 -12.3984375 470.170898438 -10.265625 459.50390625 -5.9990234375 c 0
 445.50390625 -0.666015625 429.170898438 11.0009765625 410.50390625 29.0009765625 c 0
 391.836914062 47.0009765625 372.169921875 68.5009765625 351.502929688 93.5009765625 c 0
 330.8359375 118.500976562 310.502929688 144.000976562 290.502929688 170.000976562 c 0
 270.502929688 196.000976562 249.3359375 222.833984375 227.002929688 250.500976562 c 0
 204.669921875 278.16796875 185.169921875 299.66796875 168.502929688 315.000976562 c 0
 161.8359375 321.000976562 158.502929688 330.000976562 158.502929688 342.000976562 c 0
 158.502929688 354.000976562 161.3359375 365.500976562 167.002929688 376.500976562 c 0
 172.669921875 387.500976562 179.836914062 395.333984375 188.50390625 400.000976562 c 0
 229.836914062 428.000976562 279.336914062 463.16796875 337.00390625 505.500976562 c 0
 394.670898438 547.833984375 447.170898438 586.166992188 494.50390625 620.5 c 0
 541.836914062 654.833007812 583.169921875 682 618.502929688 702 c 0
 629.8359375 708.666992188 639.8359375 712.166992188 648.502929688 712.5 c 0
 657.169921875 712.833007812 664.169921875 711.166015625 669.502929688 707.499023438 c 0
 674.8359375 703.83203125 679.002929688 699.33203125 682.002929688 693.999023438 c 0
 685.002929688 688.666015625 687.169921875 682.999023438 688.502929688 676.999023438 c 0
 689.095703125 674.48046875 689.391601562 671.953125 689.391601562 669.41796875 c 0
 689.391601562 660.545898438 685.762695312 651.573242188 678.50390625 642.499023438 c 0
 669.170898438 630.83203125 652.170898438 616.999023438 627.50390625 600.999023438 c 0
 586.836914062 574.999023438 524.169921875 532.33203125 439.502929688 472.999023438 c 0
 354.8359375 413.666015625 301.168945312 375.999023438 278.501953125 359.999023438 c 1
 297.834960938 339.999023438 319.001953125 315.83203125 342.001953125 287.499023438 c 0
 365.001953125 259.166015625 385.001953125 233.499023438 402.001953125 210.499023438 c 0
 419.001953125 187.499023438 437.834960938 163.999023438 458.501953125 139.999023438 c 0
 479.168945312 115.999023438 497.8359375 96.9990234375 514.502929688 82.9990234375 c 0
 531.169921875 68.9990234375 541.502929688 56.83203125 545.502929688 46.4990234375 c 0
 546.915039062 42.8525390625 547.620117188 39.142578125 547.620117188 35.3720703125 c 0
 547.620117188 28.45703125 545.248046875 21.3330078125 540.502929688 14 c 0
EndSplineSet
EndChar

StartChar: equal
Encoding: 61 61 40
Width: 620
GlyphClass: 2
Flags: HMW
HStem: 246.996 83<224.86 253.527> 442.999 85.001
LayerCount: 2
Fore
SplineSet
296.528320312 528 m 0
 331.861328125 526.666992188 368.02734375 525.99609375 405.02734375 525.99609375 c 0
 442.02734375 525.99609375 476.860351562 526.329101562 509.52734375 526.99609375 c 0
 542.194335938 527.663085938 561.861328125 527.99609375 568.528320312 527.99609375 c 0
 583.1953125 527.99609375 592.528320312 524.663085938 596.528320312 517.99609375 c 0
 600.528320312 511.329101562 601.528320312 502.329101562 599.528320312 490.99609375 c 0
 598.1953125 484.99609375 596.528320312 479.49609375 594.528320312 474.49609375 c 0
 592.528320312 469.49609375 589.528320312 464.663085938 585.528320312 459.99609375 c 0
 581.528320312 455.329101562 576.528320312 451.829101562 570.528320312 449.49609375 c 0
 564.528320312 447.163085938 557.861328125 446.330078125 550.528320312 446.997070312 c 0
 535.854492188 447.442382812 520.513671875 447.6640625 504.504882812 447.6640625 c 0
 496.512695312 447.6640625 488.353515625 447.609375 480.028320312 447.498046875 c 0
 455.028320312 447.165039062 420.6953125 446.33203125 377.028320312 444.999023438 c 0
 333.361328125 443.666015625 301.528320312 442.999023438 281.528320312 442.999023438 c 0
 266.1953125 442.999023438 255.028320312 446.999023438 248.028320312 454.999023438 c 0
 241.028320312 462.999023438 238.861328125 472.666015625 241.528320312 483.999023438 c 0
 243.528320312 496.666015625 249.361328125 507.333007812 259.028320312 516 c 0
 268.004882812 524.047851562 279.422851562 528.071289062 293.28515625 528.071289062 c 0
 294.3515625 528.071289062 295.432617188 528.047851562 296.528320312 528 c 0
253.52734375 329.99609375 m 0
 269.778320312 329.7734375 286.958984375 329.662109375 305.069335938 329.662109375 c 0
 341.19140625 329.662109375 381.009765625 330.10546875 424.526367188 330.993164062 c 0
 489.859375 332.326171875 522.859375 332.993164062 523.526367188 332.993164062 c 0
 538.193359375 332.993164062 547.526367188 329.493164062 551.526367188 322.493164062 c 0
 555.526367188 315.493164062 556.526367188 306.326171875 554.526367188 294.993164062 c 0
 553.193359375 288.993164062 551.360351562 283.493164062 549.02734375 278.493164062 c 0
 546.694335938 273.493164062 543.694335938 268.66015625 540.02734375 263.993164062 c 0
 536.360351562 259.326171875 531.52734375 255.826171875 525.52734375 253.493164062 c 0
 519.52734375 251.16015625 512.860351562 250.327148438 505.52734375 250.994140625 c 0
 490.853515625 251.439453125 475.364257812 251.661132812 459.059570312 251.661132812 c 0
 450.918945312 251.661132812 442.57421875 251.606445312 434.02734375 251.495117188 c 0
 408.360351562 251.162109375 373.360351562 250.329101562 329.02734375 248.99609375 c 0
 284.694335938 247.663085938 252.52734375 246.99609375 232.52734375 246.99609375 c 0
 217.194335938 246.99609375 206.694335938 251.163085938 201.02734375 259.49609375 c 0
 197.173828125 265.162109375 195.247070312 271.676757812 195.247070312 279.0390625 c 0
 195.247070312 282.50390625 195.673828125 286.15625 196.52734375 289.99609375 c 0
 198.52734375 301.329101562 204.52734375 310.829101562 214.52734375 318.49609375 c 0
 224.52734375 326.163085938 237.52734375 329.99609375 253.52734375 329.99609375 c 0
EndSplineSet
EndChar

StartChar: greater
Encoding: 62 62 41
Width: 620
GlyphClass: 2
Flags: W
LayerCount: 2
Fore
SplineSet
161.201171875 5 m 0
 150.534179688 -1 140.700195312 -4.333984375 131.700195312 -5.0009765625 c 0
 122.700195312 -5.66796875 115.533203125 -4.16796875 110.200195312 -0.5009765625 c 0
 104.8671875 3.166015625 100.700195312 7.666015625 97.7001953125 12.9990234375 c 0
 94.7001953125 18.33203125 92.533203125 23.9990234375 91.2001953125 29.9990234375 c 0
 90.607421875 32.517578125 90.3115234375 35.044921875 90.3115234375 37.580078125 c 0
 90.3115234375 46.4521484375 93.9404296875 55.4248046875 101.19921875 64.4990234375 c 0
 110.532226562 76.166015625 127.865234375 89.9990234375 153.198242188 105.999023438 c 0
 193.865234375 131.999023438 256.365234375 174.666015625 340.698242188 233.999023438 c 0
 425.03125 293.33203125 478.864257812 330.999023438 502.197265625 346.999023438 c 1
 482.864257812 366.999023438 461.53125 391.166015625 438.198242188 419.499023438 c 0
 414.865234375 447.83203125 394.532226562 473.499023438 377.19921875 496.499023438 c 0
 359.866210938 519.499023438 341.033203125 542.999023438 320.700195312 566.999023438 c 0
 300.3671875 590.999023438 281.8671875 609.999023438 265.200195312 623.999023438 c 0
 248.533203125 637.999023438 238.200195312 650.166015625 234.200195312 660.499023438 c 0
 232.788085938 664.145507812 232.083007812 667.85546875 232.083007812 671.625976562 c 0
 232.083007812 678.541015625 234.455078125 685.665039062 239.200195312 692.998046875 c 0
 243.8671875 699.665039062 249.700195312 705.33203125 256.700195312 709.999023438 c 0
 263.700195312 714.666015625 272.700195312 717.666015625 283.700195312 718.999023438 c 0
 285.899414062 719.265625 288.146484375 719.3984375 290.439453125 719.3984375 c 0
 299.61328125 719.3984375 309.533203125 717.265625 320.200195312 712.999023438 c 0
 334.200195312 707.666015625 350.700195312 696.166015625 369.700195312 678.499023438 c 0
 388.700195312 660.83203125 408.3671875 639.33203125 428.700195312 613.999023438 c 0
 449.033203125 588.666015625 469.200195312 562.999023438 489.200195312 536.999023438 c 0
 509.200195312 510.999023438 530.3671875 484.33203125 552.700195312 456.999023438 c 0
 575.033203125 429.666015625 594.866210938 407.999023438 612.19921875 391.999023438 c 0
 618.19921875 385.999023438 621.032226562 376.999023438 620.69921875 364.999023438 c 0
 620.366210938 352.999023438 617.533203125 341.499023438 612.200195312 330.499023438 c 0
 606.8671875 319.499023438 599.8671875 311.666015625 591.200195312 306.999023438 c 0
 549.8671875 278.999023438 500.3671875 243.83203125 442.700195312 201.499023438 c 0
 385.033203125 159.166015625 332.533203125 120.833007812 285.200195312 86.5 c 0
 237.8671875 52.1669921875 196.534179688 25 161.201171875 5 c 0
EndSplineSet
EndChar

StartChar: question
Encoding: 63 63 42
Width: 620
GlyphClass: 2
Flags: HMW
HStem: -14.0039 153.998 637.999 84.001<451.135 463.799>
VStem: 225.469 151 301.467 95.001
LayerCount: 2
Fore
SplineSet
396.467773438 262 m 0xd0
 389.80078125 244.666992188 380.966796875 231.330078125 369.966796875 221.997070312 c 0
 362.633789062 215.775390625 354.189453125 212.6640625 344.634765625 212.6640625 c 0
 339.856445312 212.6640625 334.80078125 213.442382812 329.466796875 214.998046875 c 0
 313.466796875 219.665039062 304.133789062 228.33203125 301.466796875 240.999023438 c 0
 300.905273438 243.666015625 300.625 246.524414062 300.625 249.576171875 c 0
 300.625 261.016601562 304.572265625 275.157226562 312.466796875 291.999023438 c 0
 321.133789062 309.999023438 331.466796875 326.999023438 343.466796875 342.999023438 c 0
 355.466796875 358.999023438 367.633789062 372.666015625 379.966796875 383.999023438 c 0
 392.299804688 395.33203125 405.1328125 406.165039062 418.465820312 416.498046875 c 0
 431.798828125 426.831054688 444.465820312 436.498046875 456.465820312 445.498046875 c 0
 468.465820312 454.498046875 479.6328125 463.665039062 489.965820312 472.998046875 c 0
 500.298828125 482.331054688 509.131835938 492.498046875 516.46484375 503.498046875 c 0
 523.797851562 514.498046875 528.797851562 526.331054688 531.46484375 538.998046875 c 0
 534.247070312 551.055664062 535.638671875 561.96484375 535.638671875 571.724609375 c 0
 535.638671875 590.0234375 530.747070312 604.28125 520.96484375 614.499023438 c 0
 505.96484375 630.166015625 481.131835938 637.999023438 446.46484375 637.999023438 c 0
 437.797851562 637.999023438 428.46484375 635.83203125 418.46484375 631.499023438 c 0
 408.46484375 627.166015625 399.797851562 622.333007812 392.46484375 617 c 0
 385.131835938 611.666992188 376.631835938 604.5 366.96484375 595.5 c 0
 357.297851562 586.5 349.797851562 578.833007812 344.46484375 572.5 c 0
 339.131835938 566.166992188 332.798828125 558.666992188 325.465820312 550 c 0
 318.1328125 541.333007812 311.299804688 534.5 304.966796875 529.5 c 0
 298.633789062 524.5 292.80078125 521.833007812 287.467773438 521.5 c 0
 282.134765625 521.166992188 277.301757812 521.5 272.96875 522.5 c 0
 268.635742188 523.5 263.135742188 525.666992188 256.46875 529 c 0
 247.135742188 535 242.635742188 543.666992188 242.96875 555 c 0
 243.301757812 566.333007812 249.46875 581 261.46875 599 c 0
 271.46875 613 282.801757812 626.5 295.46875 639.5 c 0
 308.135742188 652.5 323.135742188 665.5 340.46875 678.5 c 0
 357.801757812 691.5 377.134765625 702 398.467773438 710 c 0
 419.80078125 718 440.80078125 722 461.467773438 722 c 0
 528.80078125 722 575.967773438 705.333007812 602.967773438 672 c 0
 620.188476562 650.740234375 628.797851562 622.701171875 628.797851562 587.881835938 c 0
 628.797851562 568.107421875 626.021484375 546.147460938 620.467773438 522 c 0
 616.467773438 504 609.967773438 487.666992188 600.967773438 473 c 0
 591.967773438 458.333007812 581.967773438 445.666015625 570.967773438 434.999023438 c 0
 559.967773438 424.33203125 547.967773438 414.33203125 534.967773438 404.999023438 c 0
 521.967773438 395.666015625 508.80078125 386.333007812 495.467773438 377 c 0
 482.134765625 367.666992188 469.301757812 358 456.96875 348 c 0
 444.635742188 338 433.135742188 325.5 422.46875 310.5 c 0
 411.801757812 295.5 403.134765625 279.333007812 396.467773438 262 c 0xd0
285.466796875 -14.00390625 m 0
 282.096679688 -14.3779296875 278.858398438 -14.5654296875 275.751953125 -14.5654296875 c 0
 256.731445312 -14.5654296875 242.638671875 -7.5478515625 233.469726562 6.4921875 c 0
 226.358398438 17.380859375 222.802734375 29.5302734375 222.802734375 42.9375 c 0
 222.802734375 49.6416015625 223.69140625 56.6591796875 225.46875 63.9921875 c 0
 230.135742188 84.6591796875 242.135742188 102.326171875 261.46875 116.993164062 c 0
 280.801757812 131.66015625 300.46875 139.327148438 320.46875 139.994140625 c 0
 321.447265625 140.0234375 322.4140625 140.0390625 323.369140625 140.0390625 c 0
 343.89453125 140.0390625 359.094726562 133.190429688 368.96875 119.495117188 c 0
 375.784179688 110.041015625 379.192382812 98.919921875 379.192382812 86.1298828125 c 0
 379.192382812 79.529296875 378.284179688 72.484375 376.46875 64.9951171875 c 0xe0
 371.801757812 43.662109375 361.134765625 25.8291015625 344.467773438 11.49609375 c 0
 327.80078125 -2.8369140625 308.133789062 -11.3369140625 285.466796875 -14.00390625 c 0
EndSplineSet
EndChar

StartChar: at
Encoding: 64 64 43
Width: 620
GlyphClass: 2
Flags: HMW
HStem: -129 84.9961<255.875 304.206> 102.002 77.9951<456.875 499.873> 118.002 79.9941<337.873 346.208> 612.994 90.0078<469.539 473.208>
VStem: 105.706 85.501 422.207 81 572.708 75.499
LayerCount: 2
Fore
SplineSet
503.202148438 5 m 0xde
 497.869140625 -4.3330078125 492.54296875 -12.5009765625 487.209960938 -19.5009765625 c 0
 481.876953125 -26.5009765625 475.209960938 -35.16796875 467.209960938 -45.5009765625 c 0
 459.209960938 -55.833984375 450.876953125 -64.6669921875 442.209960938 -72 c 0
 433.54296875 -79.3330078125 423.209960938 -86.8330078125 411.209960938 -94.5 c 0
 399.209960938 -102.166992188 386.54296875 -108.5 373.209960938 -113.5 c 0
 359.876953125 -118.5 344.376953125 -122.5 326.709960938 -125.5 c 0
 312.255859375 -127.954101562 297.466796875 -129.181640625 282.342773438 -129.181640625 c 0
 278.981445312 -129.181640625 275.603515625 -129.12109375 272.208984375 -129 c 0
 239.541992188 -129 210.875 -120.333007812 186.208007812 -103 c 0
 161.541015625 -85.6669921875 142.374023438 -61.5 128.70703125 -30.5 c 0
 115.040039062 0.5 107.373046875 38.1669921875 105.706054688 82.5 c 0
 105.502929688 87.9072265625 105.401367188 93.3759765625 105.401367188 98.9072265625 c 0
 105.401367188 138.725585938 110.669921875 181.756835938 121.206054688 228 c 0
 135.206054688 286.666992188 152.206054688 341.333984375 172.206054688 392.000976562 c 0
 192.206054688 442.66796875 214.373046875 486.834960938 238.706054688 524.501953125 c 0
 263.0390625 562.168945312 288.706054688 594.501953125 315.706054688 621.501953125 c 0
 342.706054688 648.501953125 370.5390625 668.834960938 399.206054688 682.501953125 c 0
 427.873046875 696.168945312 455.873046875 703.001953125 483.206054688 703.001953125 c 0
 503.873046875 703.001953125 522.373046875 701.168945312 538.706054688 697.501953125 c 0
 555.0390625 693.834960938 570.206054688 687.834960938 584.206054688 679.501953125 c 0
 598.206054688 671.168945312 609.5390625 660.001953125 618.206054688 646.001953125 c 0
 626.873046875 632.001953125 634.040039062 614.501953125 639.70703125 593.501953125 c 0
 645.374023438 572.501953125 648.20703125 548.001953125 648.20703125 520.001953125 c 0
 648.20703125 492.001953125 645.540039062 459.001953125 640.20703125 421.001953125 c 0
 634.874023438 383.001953125 626.874023438 340.334960938 616.20703125 293.001953125 c 0
 610.874023438 269.001953125 604.041015625 246.168945312 595.708007812 224.501953125 c 0
 587.375 202.834960938 577.541992188 182.501953125 566.208984375 163.501953125 c 0
 554.875976562 144.501953125 541.708984375 129.501953125 526.708984375 118.501953125 c 0
 511.708984375 107.501953125 495.875976562 102.001953125 479.208984375 102.001953125 c 0xde
 440.840820312 102.001953125 421.657226562 122.662109375 421.657226562 163.981445312 c 0
 421.657226562 170.764648438 422.173828125 178.104492188 423.208007812 186.001953125 c 1
 398.541015625 140.668945312 366.208007812 118.001953125 326.208007812 118.001953125 c 0
 289.541015625 118.001953125 263.874023438 130.334960938 249.20703125 155.001953125 c 0
 241.140625 168.568359375 237.106445312 186.068359375 237.106445312 207.5 c 0
 237.106445312 225.03515625 239.806640625 245.202148438 245.20703125 268.002929688 c 0
 251.20703125 293.3359375 259.20703125 316.668945312 269.20703125 338.001953125 c 0
 279.20703125 359.334960938 290.374023438 377.501953125 302.70703125 392.501953125 c 0
 315.040039062 407.501953125 328.540039062 420.168945312 343.20703125 430.501953125 c 0
 357.874023438 440.834960938 372.70703125 448.16796875 387.70703125 452.500976562 c 0
 400.706054688 456.255859375 413.705078125 458.133789062 426.704101562 458.133789062 c 0
 432.70703125 458 l 0
 447.70703125 457.333007812 461.874023438 453.666015625 475.20703125 446.999023438 c 0
 488.540039062 440.999023438 498.20703125 432.999023438 504.20703125 422.999023438 c 0
 510.20703125 412.999023438 510.20703125 403.999023438 504.20703125 395.999023438 c 0
 500.874023438 390.666015625 497.20703125 386.333007812 493.20703125 383 c 0
 489.20703125 379.666992188 484.874023438 377.333984375 480.20703125 376.000976562 c 0
 475.540039062 374.66796875 471.373046875 373.66796875 467.706054688 373.000976562 c 0
 464.0390625 372.333984375 459.372070312 372.500976562 453.705078125 373.500976562 c 0
 448.038085938 374.500976562 443.705078125 375.333984375 440.705078125 376.000976562 c 0
 437.705078125 376.66796875 433.538085938 378.000976562 428.205078125 380.000976562 c 0
 420.872070312 381.333984375 413.0390625 381.666992188 404.706054688 381 c 0
 396.373046875 380.333007812 388.040039062 377.5 379.70703125 372.5 c 0
 371.374023438 367.5 363.374023438 361.166992188 355.70703125 353.5 c 0
 348.040039062 345.833007812 341.040039062 335.666015625 334.70703125 322.999023438 c 0
 328.374023438 310.33203125 323.20703125 295.999023438 319.20703125 279.999023438 c 0
 317.20703125 271.33203125 315.874023438 263.165039062 315.20703125 255.498046875 c 0
 314.540039062 247.831054688 314.373046875 239.1640625 314.706054688 229.497070312 c 0
 315.0390625 219.830078125 317.5390625 212.163085938 322.206054688 206.49609375 c 0
 326.873046875 200.829101562 333.540039062 197.99609375 342.20703125 197.99609375 c 0xbe
 361.540039062 197.99609375 377.20703125 206.163085938 389.20703125 222.49609375 c 0
 401.20703125 238.829101562 412.20703125 265.99609375 422.20703125 303.99609375 c 0
 424.874023438 314.663085938 434.874023438 323.330078125 452.20703125 329.997070312 c 0
 463.014648438 334.2421875 472.48046875 336.365234375 480.606445312 336.365234375 c 0
 486.516601562 336.365234375 491.716796875 335.2421875 496.208007812 332.997070312 c 0
 503.541015625 329.6640625 505.874023438 322.997070312 503.20703125 312.997070312 c 0
 491.20703125 277.6640625 483.874023438 250.1640625 481.20703125 230.497070312 c 0
 479.874023438 220.6640625 479.20703125 212.4140625 479.20703125 205.747070312 c 0
 479.20703125 199.080078125 479.874023438 193.997070312 481.20703125 190.497070312 c 0
 483.874023438 183.497070312 489.20703125 179.997070312 497.20703125 179.997070312 c 0
 502.540039062 179.997070312 508.040039062 184.330078125 513.70703125 192.997070312 c 0
 519.374023438 201.6640625 524.541015625 212.997070312 529.208007812 226.997070312 c 0
 533.875 240.997070312 537.708007812 253.330078125 540.708007812 263.997070312 c 0
 543.708007812 274.6640625 546.208007812 284.997070312 548.208007812 294.997070312 c 0
 556.208007812 328.997070312 562.208007812 360.330078125 566.208007812 388.997070312 c 0
 570.208007812 417.6640625 572.375 442.1640625 572.708007812 462.497070312 c 0
 572.741210938 464.529296875 572.7578125 466.541015625 572.7578125 468.533203125 c 0
 572.7578125 486.474609375 571.408203125 502.794921875 568.708007812 517.49609375 c 0
 565.708007812 533.829101562 562.375 547.162109375 558.708007812 557.495117188 c 0
 555.041015625 567.828125 549.708007812 576.661132812 542.708007812 583.994140625 c 0
 535.708007812 591.327148438 529.375 596.827148438 523.708007812 600.494140625 c 0
 518.041015625 604.161132812 511.208007812 606.994140625 503.208007812 608.994140625 c 0
 495.208007812 610.994140625 489.208007812 612.161132812 485.208007812 612.494140625 c 0
 481.208007812 612.827148438 476.208007812 612.994140625 470.208007812 612.994140625 c 0
 445.541015625 612.994140625 420.374023438 604.661132812 394.70703125 587.994140625 c 0
 369.040039062 571.327148438 344.70703125 548.16015625 321.70703125 518.493164062 c 0
 298.70703125 488.826171875 277.374023438 451.993164062 257.70703125 407.993164062 c 0
 238.040039062 363.993164062 222.20703125 315.993164062 210.20703125 263.993164062 c 0
 199.540039062 218.66015625 193.20703125 177.827148438 191.20703125 141.494140625 c 0
 190.661132812 131.5859375 190.388671875 122.198242188 190.388671875 113.330078125 c 0
 190.388671875 89.6826171875 192.328125 69.7373046875 196.20703125 53.4951171875 c 0
 201.540039062 31.162109375 209.373046875 12.3291015625 219.706054688 -3.00390625 c 0
 230.0390625 -18.3369140625 241.5390625 -29.00390625 254.206054688 -35.00390625 c 0
 266.873046875 -41.00390625 280.873046875 -44.00390625 296.206054688 -44.00390625 c 0
 312.206054688 -44.00390625 327.373046875 -42.3369140625 341.706054688 -39.00390625 c 0
 356.0390625 -35.6708984375 368.206054688 -31.6708984375 378.206054688 -27.00390625 c 0
 388.206054688 -22.3369140625 398.0390625 -16.00390625 407.706054688 -8.00390625 c 0
 417.373046875 -0.00390625 425.373046875 7.3291015625 431.706054688 13.99609375 c 0
 438.0390625 20.6630859375 445.206054688 29.330078125 453.206054688 39.9970703125 c 0
 456.5390625 44.6640625 459.372070312 48.3310546875 461.705078125 50.998046875 c 0
 464.038085938 53.6650390625 466.87109375 56.83203125 470.204101562 60.4990234375 c 0
 473.537109375 64.166015625 476.370117188 66.8330078125 478.703125 68.5 c 0
 481.036132812 70.1669921875 483.703125 71.6669921875 486.703125 73 c 0
 489.703125 74.3330078125 492.703125 75 495.703125 75 c 0
 498.703125 75 501.536132812 74.3330078125 504.203125 73 c 0
 508.870117188 71 512.370117188 68.5 514.703125 65.5 c 0
 517.036132812 62.5 518.703125 58.5 519.703125 53.5 c 0
 520.703125 48.5 519.870117188 41.8330078125 517.203125 33.5 c 0
 514.536132812 25.1669921875 509.869140625 15.6669921875 503.202148438 5 c 0xde
EndSplineSet
EndChar

StartChar: A
Encoding: 65 65 44
Width: 620
GlyphClass: 2
Flags: HMW
HStem: 251 81.0059
VStem: 475.088 91.501
LayerCount: 2
Fore
SplineSet
156.087890625 41 m 2
 145.420898438 20.3330078125 133.420898438 6.671875 120.087890625 0.0048828125 c 0
 112.680664062 -3.69921875 105.787109375 -5.55078125 99.408203125 -5.55078125 c 0
 94.3056640625 -5.55078125 89.5322265625 -4.3662109375 85.087890625 -1.99609375 c 0
 74.89453125 3.6279296875 69.796875 13.330078125 69.796875 27.109375 c 0
 69.796875 39.4638671875 73.89453125 55.0947265625 82.087890625 74.00390625 c 0
 90.7548828125 95.3369140625 120.754882812 147.336914062 172.087890625 230.00390625 c 1
 164.829101562 236.225585938 161.200195312 243.456054688 161.200195312 251.694335938 c 0
 161.200195312 254.048828125 161.49609375 256.485351562 162.088867188 259.00390625 c 0
 163.421875 268.336914062 169.421875 277.169921875 180.088867188 285.502929688 c 0
 190.755859375 293.8359375 203.088867188 300.3359375 217.088867188 305.002929688 c 1
 337.088867188 495.669921875 425.088867188 623.002929688 481.088867188 687.002929688 c 0
 493.088867188 700.3359375 503.421875 710.002929688 512.088867188 716.002929688 c 0
 520.755859375 722.002929688 529.422851562 725.002929688 538.08984375 725.002929688 c 0
 540.271484375 725.245117188 542.392578125 725.366210938 544.453125 725.366210938 c 0
 553.725585938 725.366210938 561.771484375 722.912109375 568.58984375 718.002929688 c 0
 575.7734375 712.830078125 579.365234375 704.4375 579.365234375 692.823242188 c 0
 579.365234375 690.965820312 579.2734375 689.025390625 579.08984375 687.002929688 c 0
 572.422851562 604.3359375 567.08984375 487.168945312 563.08984375 335.501953125 c 0
 561.58984375 278.625 560.83984375 230.819335938 560.83984375 192.083984375 c 0
 560.83984375 127.528320312 562.922851562 88.16796875 567.08984375 74.0009765625 c 0
 568.676757812 67.9697265625 569.470703125 62.203125 569.470703125 56.701171875 c 0
 569.470703125 50.6474609375 568.509765625 44.9140625 566.588867188 39.5009765625 c 0
 562.921875 29.16796875 557.754882812 20.5009765625 551.087890625 13.5009765625 c 0
 544.420898438 6.5009765625 537.087890625 1.333984375 529.087890625 -1.9990234375 c 0
 523.296875 -4.4365234375 517.750976562 -5.65625 512.447265625 -5.65625 c 0
 506.150390625 -5.65625 500.197265625 -3.9365234375 494.587890625 -0.4990234375 c 0
 484.254882812 5.833984375 477.754882812 19.6669921875 475.087890625 41 c 0
 474.021484375 49.2666015625 473.487304688 65.4267578125 473.487304688 89.4794921875 c 0
 473.487304688 125.559570312 474.6875 179.399414062 477.087890625 251 c 1
 397.087890625 247.666992188 324.754882812 240.666992188 260.087890625 230 c 1
 156.087890625 41 l 2
492.087890625 602.005859375 m 1
 454.754882812 557.338867188 394.087890625 462.672851562 310.087890625 318.005859375 c 1
 374.754882812 326.005859375 431.754882812 330.672851562 481.087890625 332.005859375 c 1
 492.087890625 602.005859375 l 1
EndSplineSet
EndChar

StartChar: B
Encoding: 66 66 45
Width: 620
GlyphClass: 2
Flags: HMW
HStem: -22.9961 21G<138.544 144.877> 297.005 72<327.211 331.21> 630.005 78.998<411.208 425.544>
LayerCount: 2
Fore
SplineSet
257.208007812 -14 m 0
 246.541015625 -14.6669921875 234.7109375 -15.662109375 221.7109375 -16.9951171875 c 0
 208.7109375 -18.328125 198.043945312 -19.328125 189.7109375 -19.9951171875 c 0
 181.377929688 -20.662109375 172.877929688 -21.3291015625 164.2109375 -21.99609375 c 0
 155.543945312 -22.6630859375 148.043945312 -22.99609375 141.7109375 -22.99609375 c 0
 135.377929688 -22.99609375 129.877929688 -22.3291015625 125.2109375 -20.99609375 c 2
 121.2109375 -20.99609375 l 2
 108.543945312 -20.99609375 99.376953125 -16.49609375 93.7099609375 -7.49609375 c 0
 90.6025390625 -2.560546875 89.048828125 3.427734375 89.048828125 10.4677734375 c 0
 89.048828125 16.265625 90.1025390625 22.7783203125 92.2099609375 30.00390625 c 0
 100.876953125 58.00390625 113.876953125 111.336914062 131.209960938 190.00390625 c 0
 148.54296875 268.670898438 165.54296875 349.670898438 182.209960938 433.00390625 c 0
 191.54296875 477.670898438 197.875976562 507.670898438 201.208984375 523.00390625 c 0
 204.541992188 538.336914062 209.708984375 559.00390625 216.708984375 585.00390625 c 0
 223.708984375 611.00390625 228.541992188 629.00390625 231.208984375 639.00390625 c 0
 235.875976562 657.00390625 243.708984375 670.50390625 254.708984375 679.50390625 c 0
 265.708984375 688.50390625 277.541992188 693.00390625 290.208984375 693.00390625 c 2
 293.208984375 693.00390625 l 2
 303.875976562 696.336914062 315.04296875 699.169921875 326.709960938 701.502929688 c 0
 338.376953125 703.8359375 348.876953125 705.502929688 358.209960938 706.502929688 c 0
 367.54296875 707.502929688 377.375976562 708.169921875 387.708984375 708.502929688 c 0
 398.041992188 708.8359375 405.875 709.002929688 411.208007812 709.002929688 c 2
 429.708007812 709.002929688 l 1
 440.208007812 709.002929688 l 2
 482.208007812 709.002929688 517.708007812 700.669921875 546.708007812 684.002929688 c 0
 575.708007812 667.3359375 596.208007812 643.168945312 608.208007812 611.501953125 c 0
 614.958007812 593.689453125 618.333007812 574.2421875 618.333007812 553.16015625 c 0
 618.333007812 536.762695312 616.291015625 519.376953125 612.208007812 501.001953125 c 0
 603.541015625 462.334960938 587.541015625 429.16796875 564.208007812 401.500976562 c 0
 540.875 373.833984375 513.208007812 353.666992188 481.208007812 341 c 1
 500.541015625 333.666992188 518.708007812 322.833984375 535.708007812 308.500976562 c 0
 552.708007812 294.16796875 565.875 278.16796875 575.208007812 260.500976562 c 0
 582.084960938 247.483398438 585.5234375 235.098632812 585.5234375 223.34765625 c 0
 585.5234375 219.151367188 585.084960938 215.036132812 584.208007812 211.000976562 c 0
 578.875 185.66796875 567.208007812 160.500976562 549.208007812 135.500976562 c 0
 531.208007812 110.500976562 508.375 87.66796875 480.708007812 67.0009765625 c 0
 453.041015625 46.333984375 419.708007812 28.6669921875 380.708007812 14 c 0
 341.708007812 -0.6669921875 300.541015625 -10 257.208007812 -14 c 0
420.2109375 630.004882812 m 0
 386.877929688 630.004882812 353.209960938 625.671875 319.209960938 617.004882812 c 1
 315.876953125 604.337890625 310.543945312 584.004882812 303.2109375 556.004882812 c 0
 295.877929688 528.004882812 288.377929688 498.337890625 280.7109375 467.004882812 c 0
 273.043945312 435.671875 265.543945312 403.671875 258.2109375 371.004882812 c 1
 286.877929688 369.671875 314.2109375 369.004882812 340.2109375 369.004882812 c 0
 358.877929688 369.004882812 376.377929688 370.671875 392.7109375 374.004882812 c 0
 409.043945312 377.337890625 423.043945312 381.670898438 434.7109375 387.00390625 c 0
 446.377929688 392.336914062 457.2109375 398.836914062 467.2109375 406.50390625 c 0
 477.2109375 414.170898438 485.543945312 422.00390625 492.2109375 430.00390625 c 0
 498.877929688 438.00390625 504.7109375 446.836914062 509.7109375 456.50390625 c 0
 514.7109375 466.170898438 518.543945312 474.837890625 521.2109375 482.504882812 c 0
 523.877929688 490.171875 526.2109375 498.338867188 528.2109375 507.005859375 c 0
 530.497070312 516.91015625 531.639648438 526.379882812 531.639648438 535.4140625 c 0
 531.639648438 542.189453125 530.997070312 548.719726562 529.7109375 555.005859375 c 0
 526.7109375 569.672851562 521.377929688 581.505859375 513.7109375 590.505859375 c 0
 506.043945312 599.505859375 496.7109375 607.172851562 485.7109375 613.505859375 c 0
 474.7109375 619.838867188 463.7109375 624.171875 452.7109375 626.504882812 c 0
 441.7109375 628.837890625 430.877929688 630.004882812 420.2109375 630.004882812 c 0
331.209960938 297.004882812 m 1
 285.876953125 297.004882812 256.208007812 296.670898438 242.208007812 296.00390625 c 1
 220.208007812 188.670898438 204.875 112.337890625 196.208007812 67.0048828125 c 1
 202.875 67.0048828125 214.041992188 67.337890625 229.708984375 68.0048828125 c 0
 245.375976562 68.671875 257.54296875 69.0048828125 266.209960938 69.0048828125 c 0
 294.876953125 70.337890625 322.876953125 75.6708984375 350.209960938 85.00390625 c 0
 377.54296875 94.3369140625 400.54296875 105.50390625 419.209960938 118.50390625 c 0
 437.876953125 131.50390625 453.376953125 145.170898438 465.709960938 159.50390625 c 0
 478.04296875 173.836914062 485.875976562 187.00390625 489.208984375 199.00390625 c 0
 491.208984375 207.670898438 489.708984375 216.337890625 484.708984375 225.004882812 c 0
 479.708984375 233.671875 471.541992188 242.671875 460.208984375 252.004882812 c 0
 448.875976562 261.337890625 432.04296875 270.004882812 409.709960938 278.004882812 c 0
 387.376953125 286.004882812 361.209960938 292.337890625 331.209960938 297.004882812 c 1
EndSplineSet
EndChar

StartChar: C
Encoding: 67 67 46
Width: 620
GlyphClass: 2
Flags: HMW
HStem: -31.002 90.0029<255.805 310.471> 632.001 80.9961<540.805 542.805>
VStem: 580.471 77
LayerCount: 2
Fore
SplineSet
536.47265625 64 m 0
 470.4921875 0.607421875 384.426757812 -31.0908203125 278.276367188 -31.0908203125 c 0
 275.026367188 -31.0908203125 271.758789062 -31.0615234375 268.471679688 -31.001953125 c 0
 243.138671875 -31.001953125 220.305664062 -26.3349609375 199.97265625 -17.001953125 c 0
 179.639648438 -7.6689453125 163.139648438 4.6640625 150.47265625 19.9970703125 c 0
 137.805664062 35.330078125 127.805664062 53.1630859375 120.47265625 73.49609375 c 0
 113.139648438 93.8291015625 109.139648438 115.49609375 108.47265625 138.49609375 c 0
 108.40625 140.796875 108.373046875 143.099609375 108.373046875 145.403320312 c 0
 108.373046875 166.1328125 111.073242188 186.997070312 116.47265625 207.99609375 c 0
 127.805664062 256.663085938 143.305664062 303.663085938 162.97265625 348.99609375 c 0
 182.639648438 394.329101562 204.639648438 435.329101562 228.97265625 471.99609375 c 0
 253.305664062 508.663085938 279.638671875 542.330078125 307.971679688 572.997070312 c 0
 336.3046875 603.6640625 364.471679688 629.1640625 392.471679688 649.497070312 c 0
 420.471679688 669.830078125 448.3046875 685.497070312 475.971679688 696.497070312 c 0
 503.638671875 707.497070312 529.138671875 712.997070312 552.471679688 712.997070312 c 0
 575.138671875 712.997070312 595.471679688 710.330078125 613.471679688 704.997070312 c 1
 618.138671875 714.997070312 624.638671875 723.1640625 632.971679688 729.497070312 c 0
 641.3046875 735.830078125 650.137695312 739.330078125 659.470703125 739.997070312 c 0
 670.137695312 741.997070312 679.8046875 739.497070312 688.471679688 732.497070312 c 0
 697.138671875 725.497070312 701.471679688 715.330078125 701.471679688 701.997070312 c 0
 701.471679688 691.997070312 700.8046875 682.1640625 699.471679688 672.497070312 c 0
 698.138671875 662.830078125 696.638671875 653.330078125 694.971679688 643.997070312 c 0
 693.3046875 634.6640625 691.8046875 626.997070312 690.471679688 620.997070312 c 0
 689.138671875 614.997070312 687.471679688 607.997070312 685.471679688 599.997070312 c 0
 683.471679688 591.997070312 682.138671875 586.997070312 681.471679688 584.997070312 c 0
 678.138671875 570.997070312 670.138671875 556.830078125 657.471679688 542.497070312 c 0
 644.8046875 528.1640625 633.137695312 520.331054688 622.470703125 518.998046875 c 0
 620.1484375 518.611328125 617.875976562 518.416992188 615.653320312 518.416992188 c 0
 606.391601562 518.416992188 597.997070312 521.77734375 590.470703125 528.498046875 c 0
 583.211914062 534.979492188 579.583007812 543.174804688 579.583007812 553.083007812 c 0
 579.583007812 555.915039062 579.87890625 558.88671875 580.471679688 561.998046875 c 0
 581.8046875 567.331054688 585.8046875 581.331054688 592.471679688 603.998046875 c 0
 591.8046875 604.665039062 589.3046875 606.83203125 584.971679688 610.499023438 c 0
 580.638671875 614.166015625 577.471679688 616.833007812 575.471679688 618.5 c 0
 573.471679688 620.166992188 570.3046875 622.333984375 565.971679688 625.000976562 c 0
 561.638671875 627.66796875 557.471679688 629.500976562 553.471679688 630.500976562 c 0
 549.471679688 631.500976562 545.138671875 632.000976562 540.471679688 632.000976562 c 0
 521.138671875 632.000976562 498.971679688 625.333984375 473.971679688 612.000976562 c 0
 448.971679688 598.66796875 423.471679688 579.66796875 397.471679688 555.000976562 c 0
 371.471679688 530.333984375 346.638671875 502.000976562 322.971679688 470.000976562 c 0
 299.3046875 438.000976562 277.8046875 401.833984375 258.471679688 361.500976562 c 0
 239.138671875 321.16796875 225.138671875 280.66796875 216.471679688 240.000976562 c 0
 212.430664062 222.22265625 210.41015625 204.688476562 210.41015625 187.399414062 c 0
 210.41015625 176.163085938 211.263671875 165.030273438 212.970703125 154.000976562 c 0
 217.303710938 126.000976562 227.303710938 103.16796875 242.970703125 85.5009765625 c 0
 258.637695312 67.833984375 277.8046875 59.0009765625 300.471679688 59.0009765625 c 0
 320.471679688 59.0009765625 340.471679688 61.16796875 360.471679688 65.5009765625 c 0
 380.471679688 69.833984375 398.8046875 75.5009765625 415.471679688 82.5009765625 c 0
 432.138671875 89.5009765625 446.805664062 96.5009765625 459.47265625 103.500976562 c 0
 472.139648438 110.500976562 484.139648438 118.000976562 495.47265625 126.000976562 c 0
 504.805664062 132.000976562 512.805664062 136.66796875 519.47265625 140.000976562 c 0
 526.139648438 143.333984375 532.97265625 145.000976562 539.97265625 145.000976562 c 0
 546.97265625 145.000976562 552.805664062 142.66796875 557.47265625 138.000976562 c 0
 564.260742188 131.212890625 567.654296875 123.631835938 567.654296875 115.256835938 c 0
 567.654296875 100.600585938 557.260742188 83.515625 536.47265625 64 c 0
EndSplineSet
EndChar

StartChar: D
Encoding: 68 68 47
Width: 620
GlyphClass: 2
Flags: HMW
HStem: -31 85.998<335.653 347.323> 694.001 20G<273.321 283.654>
LayerCount: 2
Fore
SplineSet
334.65625 -31 m 0
 303.989257812 -31 274.15234375 -29.5 245.15234375 -26.5 c 0
 216.15234375 -23.5 193.319335938 -20 176.65234375 -16 c 0
 159.985351562 -12 145.485351562 -8.3330078125 133.15234375 -5 c 0
 120.819335938 -1.6669921875 113.65234375 0 111.65234375 0 c 0
 98.9853515625 0 89.818359375 4.5 84.1513671875 13.5 c 0
 81.0439453125 18.435546875 79.490234375 24.423828125 79.490234375 31.4638671875 c 0
 79.490234375 37.26171875 80.5439453125 43.7744140625 82.6513671875 51 c 0
 91.984375 83 105.651367188 139.833007812 123.651367188 221.5 c 0
 141.651367188 303.166992188 160.318359375 391.666992188 179.651367188 487 c 0
 187.651367188 524.333007812 192.984375 548.833007812 195.651367188 560.5 c 0
 198.318359375 572.166992188 202.985351562 590.333984375 209.65234375 615.000976562 c 0
 216.319335938 639.66796875 220.319335938 654.66796875 221.65234375 660.000976562 c 0
 226.319335938 678.000976562 233.986328125 691.500976562 244.653320312 700.500976562 c 0
 255.3203125 709.500976562 266.987304688 714.000976562 279.654296875 714.000976562 c 0
 287.654296875 714.000976562 297.654296875 713.333984375 309.654296875 712.000976562 c 0
 321.654296875 710.66796875 337.154296875 708.000976562 356.154296875 704.000976562 c 0
 375.154296875 700.000976562 394.154296875 694.500976562 413.154296875 687.500976562 c 0
 432.154296875 680.500976562 451.987304688 670.66796875 472.654296875 658.000976562 c 0
 493.321289062 645.333984375 512.321289062 630.666992188 529.654296875 614 c 0
 546.987304688 597.333007812 562.8203125 576.5 577.153320312 551.5 c 0
 591.486328125 526.5 602.486328125 499.166992188 610.153320312 469.5 c 0
 617.20703125 442.20703125 620.733398438 410.119140625 620.733398438 373.235351562 c 0
 620.733398438 370.026367188 620.70703125 366.78125 620.653320312 363.5 c 0
 619.986328125 322.5 613.986328125 278.333007812 602.653320312 231 c 0
 597.3203125 207.666992188 588.987304688 184 577.654296875 160 c 0
 566.321289062 136 551.98828125 112.5 534.655273438 89.5 c 0
 517.322265625 66.5 498.489257812 46 478.15625 28 c 0
 457.823242188 10 435.15625 -4.3330078125 410.15625 -15 c 0
 385.15625 -25.6669921875 359.989257812 -31 334.65625 -31 c 0
238.65234375 348 m 0
 232.65234375 319.333007812 223.8203125 276.165039062 212.153320312 218.498046875 c 0
 200.486328125 160.831054688 191.986328125 117.331054688 186.653320312 87.998046875 c 1
 209.3203125 75.998046875 233.8203125 67.498046875 260.153320312 62.498046875 c 0
 286.486328125 57.498046875 317.653320312 54.998046875 353.653320312 54.998046875 c 0
 370.986328125 54.998046875 388.653320312 61.1650390625 406.653320312 73.498046875 c 0
 424.653320312 85.8310546875 440.986328125 101.831054688 455.653320312 121.498046875 c 0
 470.3203125 141.165039062 483.3203125 162.83203125 494.653320312 186.499023438 c 0
 505.986328125 210.166015625 514.319335938 233.333007812 519.65234375 256 c 0
 527.21484375 289.063476562 530.99609375 320.0625 530.99609375 348.99609375 c 0
 530.99609375 429.743164062 501.547851562 494.411132812 442.65234375 543 c 0
 413.985351562 566.333007812 370.65234375 590.333007812 312.65234375 615 c 1
 312.65234375 616 l 1
 311.65234375 616 l 1
 310.65234375 616 l 1
 309.65234375 617 l 1
 308.65234375 617 l 1
 307.65234375 618 l 1
 306.65234375 618 l 1
 305.65234375 618 l 1
 305.65234375 619 l 1
 304.65234375 619 l 1
 303.65234375 619 l 1
 302.65234375 620 l 1
 301.65234375 620 l 1
 300.65234375 620 l 1
 300.65234375 621 l 1
 278.65234375 534.333007812 257.985351562 443.333007812 238.65234375 348 c 0
EndSplineSet
EndChar

StartChar: E
Encoding: 69 69 48
Width: 620
GlyphClass: 2
Flags: HMW
HStem: -17.498 87.4961 -6 90.4971 312.001 85.999<240.403 282.074> 332.001 80.999<554.737 586.739> 614.501 82.5
LayerCount: 2
Fore
SplineSet
489.40234375 -6 m 0x48
 487.4609375 -5.87890625 484.967773438 -5.818359375 481.921875 -5.818359375 c 0
 468.234375 -5.818359375 443.396484375 -7.0439453125 407.405273438 -9.498046875 c 0
 363.405273438 -12.498046875 315.405273438 -15.1650390625 263.405273438 -17.498046875 c 0
 235.404296875 -18.75390625 210.8828125 -19.3828125 189.840820312 -19.3828125 c 0
 171.806640625 -19.3828125 156.328125 -18.9208984375 143.405273438 -17.998046875 c 0
 129.405273438 -17.3310546875 117.072265625 -9.8310546875 106.405273438 4.501953125 c 0
 97.4228515625 16.5712890625 92.931640625 30.8876953125 92.931640625 47.44921875 c 0
 92.931640625 50.5546875 93.08984375 53.73828125 93.4052734375 57.001953125 c 0
 95.4052734375 74.3349609375 101.572265625 105.501953125 111.905273438 150.501953125 c 0
 122.23828125 195.501953125 133.571289062 243.334960938 145.904296875 294.001953125 c 0
 158.237304688 344.668945312 170.737304688 401.668945312 183.404296875 465.001953125 c 0
 192.071289062 505.001953125 197.904296875 531.501953125 200.904296875 544.501953125 c 0
 203.904296875 557.501953125 208.737304688 576.668945312 215.404296875 602.001953125 c 0
 222.071289062 627.334960938 226.404296875 643.001953125 228.404296875 649.001953125 c 0
 233.071289062 667.001953125 240.73828125 680.668945312 251.405273438 690.001953125 c 0
 262.072265625 699.334960938 273.739257812 704.001953125 286.40625 704.001953125 c 0
 287.284179688 704.037109375 288.146484375 704.0546875 288.994140625 704.0546875 c 0
 304.251953125 704.0546875 314.721679688 698.370117188 320.40625 687.001953125 c 1
 357.073242188 692.334960938 399.240234375 695.66796875 446.907226562 697.000976562 c 0
 470.740234375 697.66796875 493.157226562 698.000976562 514.157226562 698.000976562 c 0
 535.157226562 698.000976562 554.740234375 697.666992188 572.907226562 697.000976562 c 0
 609.240234375 695.66796875 637.740234375 693.66796875 658.407226562 691.000976562 c 0
 672.407226562 689.000976562 681.740234375 685.000976562 686.407226562 679.000976562 c 0
 691.07421875 673.000976562 692.07421875 664.66796875 689.407226562 654.000976562 c 0
 688.07421875 648.000976562 686.241210938 642.333984375 683.908203125 637.000976562 c 0
 681.575195312 631.66796875 678.575195312 626.834960938 674.908203125 622.501953125 c 0
 671.241210938 618.168945312 666.408203125 614.668945312 660.408203125 612.001953125 c 0
 654.408203125 609.334960938 647.408203125 608.66796875 639.408203125 610.000976562 c 0
 597.1640625 613.439453125 554.376953125 615.159179688 511.047851562 615.159179688 c 0
 495.5703125 615.159179688 480.024414062 614.939453125 464.409179688 614.500976562 c 0
 405.076171875 612.833984375 353.409179688 608.666992188 309.409179688 602 c 1
 290.7421875 532.666992188 274.075195312 464.666992188 259.408203125 398 c 1xa8
 304.741210938 398 367.07421875 400.5 446.407226562 405.5 c 0
 525.740234375 410.5 570.073242188 413 579.40625 413 c 0
 594.073242188 413 603.573242188 409.666992188 607.90625 403 c 0
 612.239257812 396.333007812 613.072265625 387 610.405273438 375 c 0
 603.88671875 346.319335938 587.807617188 331.978515625 562.16796875 331.978515625 c 0
 561.584960938 331.978515625 560.997070312 331.986328125 560.404296875 332.000976562 c 0x18
 549.071289062 332.000976562 500.571289062 328.66796875 414.904296875 322.000976562 c 0
 329.237304688 315.333984375 271.0703125 312.000976562 240.403320312 312.000976562 c 1
 237.0703125 297.333984375 232.737304688 278.166992188 227.404296875 254.5 c 0
 222.071289062 230.833007812 217.571289062 210.5 213.904296875 193.5 c 0
 210.237304688 176.5 206.5703125 159 202.903320312 141 c 0
 199.236328125 123 196.569335938 108.166992188 194.90234375 96.5 c 0
 193.235351562 84.8330078125 192.735351562 76.666015625 193.40234375 71.9990234375 c 1
 201.958984375 69.2763671875 221.916015625 67.9150390625 253.274414062 67.9150390625 c 0
 275.668945312 67.9150390625 303.87890625 68.609375 337.903320312 69.998046875 c 0xa8
 419.5703125 73.3310546875 472.403320312 77.6640625 496.403320312 82.9970703125 c 0
 505.736328125 84.330078125 513.569335938 84.830078125 519.90234375 84.4970703125 c 0
 526.235351562 84.1640625 531.40234375 82.8310546875 535.40234375 80.498046875 c 0
 539.40234375 78.1650390625 542.40234375 75.6650390625 544.40234375 72.998046875 c 0
 546.40234375 70.3310546875 547.735351562 66.8310546875 548.40234375 62.498046875 c 0
 549.069335938 58.1650390625 549.40234375 54.33203125 549.40234375 50.9990234375 c 0
 549.40234375 47.666015625 549.069335938 44.3330078125 548.40234375 41 c 0
 545.735351562 28.3330078125 539.235351562 17 528.90234375 7 c 0
 519.78515625 -1.8232421875 508.4609375 -6.2353515625 494.930664062 -6.2353515625 c 0
 493.126953125 -6.2353515625 491.284179688 -6.1572265625 489.40234375 -6 c 0x48
EndSplineSet
EndChar

StartChar: F
Encoding: 70 70 49
Width: 620
GlyphClass: 2
Flags: HMW
HStem: 316 86.002 619.002 86.999
LayerCount: 2
Fore
SplineSet
182.013671875 24 m 0
 177.346679688 10 168.513671875 -1.166015625 155.513671875 -9.4990234375 c 0
 143.477539062 -17.21484375 131.297851562 -21.072265625 118.975585938 -21.072265625 c 0
 117.989257812 -21.072265625 117.001953125 -21.0478515625 116.013671875 -20.998046875 c 0
 103.346679688 -20.998046875 94.1796875 -16.498046875 88.5126953125 -7.498046875 c 0
 85.4052734375 -2.5625 83.8515625 3.42578125 83.8515625 10.4658203125 c 0
 83.8515625 16.263671875 84.9052734375 22.7763671875 87.0126953125 30.001953125 c 0
 95.6796875 59.3349609375 109.1796875 115.501953125 127.512695312 198.501953125 c 0
 145.845703125 281.501953125 163.678710938 367.001953125 181.01171875 455.001953125 c 0
 190.344726562 499.668945312 196.844726562 529.668945312 200.51171875 545.001953125 c 0
 204.178710938 560.334960938 209.51171875 581.001953125 216.51171875 607.001953125 c 0
 223.51171875 633.001953125 228.344726562 650.668945312 231.01171875 660.001953125 c 0
 235.678710938 678.001953125 243.345703125 691.501953125 254.012695312 700.501953125 c 0
 264.6796875 709.501953125 276.346679688 714.001953125 289.013671875 714.001953125 c 0
 290.6640625 714.12890625 292.262695312 714.192382812 293.810546875 714.192382812 c 0
 308.516601562 714.192382812 318.584960938 708.461914062 324.013671875 697.000976562 c 1
 386.013671875 701.66796875 448.013671875 704.66796875 510.013671875 706.000976562 c 0
 525.512695312 706.333984375 540.283203125 706.500976562 554.32421875 706.500976562 c 0
 596.450195312 706.500976562 632.012695312 705.000976562 661.013671875 702.000976562 c 0
 675.013671875 700.66796875 684.180664062 696.834960938 688.513671875 690.501953125 c 0
 692.846679688 684.168945312 694.013671875 675.3359375 692.013671875 664.002929688 c 0
 689.346679688 651.3359375 683.513671875 640.668945312 674.513671875 632.001953125 c 0
 665.513671875 623.334960938 653.346679688 619.001953125 638.013671875 619.001953125 c 0
 603.694335938 620.856445312 568.166015625 621.784179688 531.426757812 621.784179688 c 0
 462.541992188 621.784179688 389.404296875 618.5234375 312.012695312 612.001953125 c 1
 309.345703125 600.668945312 304.678710938 582.501953125 298.01171875 557.501953125 c 0
 291.344726562 532.501953125 284.844726562 507.001953125 278.51171875 481.001953125 c 0
 272.178710938 455.001953125 266.01171875 428.668945312 260.01171875 402.001953125 c 1
 288.58203125 405.430664062 319.845703125 407.14453125 353.803710938 407.14453125 c 0
 359.46484375 407.14453125 365.201171875 407.09765625 371.01171875 407.001953125 c 0
 411.678710938 406.334960938 448.01171875 404.501953125 480.01171875 401.501953125 c 0
 512.01171875 398.501953125 537.344726562 395.334960938 556.01171875 392.001953125 c 0
 570.01171875 389.334960938 579.178710938 385.001953125 583.51171875 379.001953125 c 0
 587.844726562 373.001953125 589.01171875 364.668945312 587.01171875 354.001953125 c 0
 585.678710938 348.001953125 583.845703125 342.501953125 581.512695312 337.501953125 c 0
 579.1796875 332.501953125 576.012695312 327.668945312 572.012695312 323.001953125 c 0
 568.012695312 318.334960938 563.1796875 314.834960938 557.512695312 312.501953125 c 0
 551.845703125 310.168945312 545.012695312 309.3359375 537.012695312 310.002929688 c 0
 519.012695312 313.3359375 493.345703125 316.168945312 460.012695312 318.501953125 c 0
 426.6796875 320.834960938 388.846679688 322.16796875 346.513671875 322.500976562 c 0
 343.694335938 322.5234375 340.90625 322.534179688 338.150390625 322.534179688 c 0
 299.528320312 322.534179688 267.1484375 320.356445312 241.013671875 316 c 1
 205.013671875 139.333007812 185.346679688 42 182.013671875 24 c 0
EndSplineSet
EndChar

StartChar: G
Encoding: 71 71 50
Width: 620
GlyphClass: 2
Flags: HMW
HStem: -30.9971 89.9971<255.033 306.033> 643.002 80.999<542.032 547.364>
LayerCount: 2
Fore
SplineSet
577.700195312 244 m 0
 573.033203125 230 565.366210938 213.669921875 554.69921875 195.002929688 c 0
 544.032226562 176.3359375 531.19921875 156.502929688 516.19921875 135.502929688 c 0
 501.19921875 114.502929688 484.032226562 94.169921875 464.69921875 74.5029296875 c 0
 445.366210938 54.8359375 425.366210938 37.0029296875 404.69921875 21.0029296875 c 0
 384.032226562 5.0029296875 361.532226562 -7.830078125 337.19921875 -17.4970703125 c 0
 314.436523438 -26.5400390625 292.694335938 -31.0615234375 271.973632812 -31.0615234375 c 0
 270.543945312 -31.0615234375 269.119140625 -31.0400390625 267.69921875 -30.9970703125 c 0
 242.366210938 -30.9970703125 219.533203125 -26.330078125 199.200195312 -16.9970703125 c 0
 178.8671875 -7.6640625 162.3671875 4.6689453125 149.700195312 20.001953125 c 0
 137.033203125 35.3349609375 127.033203125 53.16796875 119.700195312 73.5009765625 c 0
 112.3671875 93.833984375 108.3671875 115.500976562 107.700195312 138.500976562 c 0
 107.625976562 141.057617188 107.588867188 143.616210938 107.588867188 146.177734375 c 0
 107.588867188 166.653320312 109.958984375 187.26171875 114.69921875 208.000976562 c 0
 126.032226562 257.333984375 141.865234375 305.333984375 162.198242188 352.000976562 c 0
 182.53125 398.66796875 204.698242188 440.66796875 228.698242188 478.000976562 c 0
 252.698242188 515.333984375 279.03125 549.500976562 307.698242188 580.500976562 c 0
 336.365234375 611.500976562 364.865234375 637.500976562 393.198242188 658.500976562 c 0
 421.53125 679.500976562 449.53125 695.66796875 477.198242188 707.000976562 c 0
 504.865234375 718.333984375 530.365234375 724.000976562 553.698242188 724.000976562 c 0
 579.698242188 724.000976562 607.198242188 717.500976562 636.198242188 704.500976562 c 0
 665.198242188 691.500976562 683.03125 680.333984375 689.698242188 671.000976562 c 0
 694.57421875 664.295898438 697.012695312 656.685546875 697.012695312 648.169921875 c 0
 697.012695312 638.056640625 693.57421875 626.666992188 686.698242188 614.000976562 c 0
 682.698242188 605.333984375 675.53125 599.000976562 665.198242188 595.000976562 c 0
 654.865234375 591.000976562 645.365234375 591.000976562 636.698242188 595.000976562 c 0
 633.365234375 596.333984375 625.865234375 601.333984375 614.198242188 610.000976562 c 0
 602.53125 618.66796875 590.364257812 626.334960938 577.697265625 633.001953125 c 0
 565.030273438 639.668945312 553.030273438 643.001953125 541.697265625 643.001953125 c 0
 522.364257812 643.001953125 500.03125 636.168945312 474.698242188 622.501953125 c 0
 449.365234375 608.834960938 423.698242188 589.16796875 397.698242188 563.500976562 c 0
 371.698242188 537.833984375 346.698242188 508.666992188 322.698242188 476 c 0
 298.698242188 443.333007812 277.03125 406.333007812 257.698242188 365 c 0
 238.365234375 323.666992188 224.032226562 282 214.69921875 240 c 0
 210.658203125 222.221679688 208.637695312 204.6875 208.637695312 187.3984375 c 0
 208.637695312 176.162109375 209.491210938 165.029296875 211.198242188 154 c 0
 215.53125 126 225.53125 103.166992188 241.198242188 85.5 c 0
 256.865234375 67.8330078125 276.032226562 59 298.69921875 59 c 0
 313.366210938 59 329.866210938 64.1669921875 348.19921875 74.5 c 0
 366.532226562 84.8330078125 383.865234375 98 400.198242188 114 c 0
 416.53125 130 432.53125 148 448.198242188 168 c 0
 463.865234375 188 477.532226562 207.333007812 489.19921875 226 c 0
 500.866210938 244.666992188 510.366210938 262 517.69921875 278 c 1
 478.366210938 276 439.366210938 272.333007812 400.69921875 267 c 0
 362.032226562 261.666992188 334.69921875 254.666992188 318.69921875 246 c 0
 313.014648438 243.158203125 307.779296875 241.736328125 302.9921875 241.736328125 c 0
 297.673828125 241.736328125 292.91015625 243.491210938 288.69921875 247 c 0
 280.69921875 253.666992188 277.366210938 262.666992188 278.69921875 274 c 0
 280.69921875 299.333007812 297.032226562 319 327.69921875 333 c 0
 347.69921875 342.333007812 387.19921875 349.5 446.19921875 354.5 c 0
 488.341796875 358.071289062 523.9375 359.857421875 552.985351562 359.857421875 c 0
 564.604492188 359.857421875 575.17578125 359.571289062 584.69921875 359 c 0
 600.032226562 358.333007812 610.032226562 355.5 614.69921875 350.5 c 0
 619.366210938 345.5 621.366210938 337.666992188 620.69921875 327 c 0
 618.032226562 302.333007812 608.032226562 287 590.69921875 281 c 0
 590.032226562 279 588.032226562 273.666992188 584.69921875 265 c 0
 581.366210938 256.333007812 579.033203125 249.333007812 577.700195312 244 c 0
EndSplineSet
EndChar

StartChar: H
Encoding: 72 72 51
Width: 620
GlyphClass: 2
Flags: HMW
HStem: 311.999 86.001<255.289 292.621>
LayerCount: 2
Fore
SplineSet
529.290039062 24 m 0
 524.623046875 10 515.958007812 -1.16796875 503.291015625 -9.5009765625 c 0
 491.5625 -17.216796875 479.548828125 -21.07421875 467.25 -21.07421875 c 0
 466.265625 -21.07421875 465.279296875 -21.0498046875 464.291015625 -21 c 0
 451.624023438 -21 442.45703125 -16.5 436.790039062 -7.5 c 0
 433.682617188 -2.564453125 432.12890625 3.423828125 432.12890625 10.4638671875 c 0
 432.12890625 16.26171875 433.182617188 22.7744140625 435.290039062 30 c 0
 462.623046875 122.666992188 489.290039062 226.666992188 515.290039062 342 c 1
 504.623046875 341.333007812 465.456054688 336.166015625 397.7890625 326.499023438 c 0
 330.122070312 316.83203125 282.622070312 311.999023438 255.2890625 311.999023438 c 0
 254.622070312 309.999023438 253.622070312 306.499023438 252.2890625 301.499023438 c 0
 250.956054688 296.499023438 249.956054688 292.999023438 249.2890625 290.999023438 c 0
 230.622070312 224.999023438 209.955078125 135.999023438 187.288085938 23.9990234375 c 0
 182.62109375 9.9990234375 173.788085938 -1.16796875 160.788085938 -9.5009765625 c 0
 148.751953125 -17.216796875 136.858398438 -21.07421875 125.107421875 -21.07421875 c 0
 124.166992188 -21.07421875 123.2265625 -21.0498046875 122.288085938 -21 c 0
 110.288085938 -21 101.12109375 -16.5 94.7880859375 -7.5 c 0
 91.3505859375 -2.6142578125 89.630859375 3.302734375 89.630859375 10.251953125 c 0
 89.630859375 16.1025390625 90.8505859375 22.685546875 93.2880859375 30 c 0
 95.955078125 39.3330078125 99.955078125 54.3330078125 105.288085938 75 c 0
 110.62109375 95.6669921875 117.288085938 123.333984375 125.288085938 158.000976562 c 0
 133.288085938 192.66796875 140.62109375 224.000976562 147.288085938 252.000976562 c 0
 152.62109375 274.66796875 160.788085938 307.16796875 171.788085938 349.500976562 c 0
 182.788085938 391.833984375 190.62109375 423.166992188 195.288085938 443.5 c 2
 216.288085938 535 l 2
 222.288085938 565 226.288085938 584.166992188 228.288085938 592.5 c 0
 230.288085938 600.833007812 233.288085938 612.333007812 237.288085938 627 c 2
 246.288085938 660 l 2
 250.955078125 678 258.788085938 691.5 269.788085938 700.5 c 0
 280.788085938 709.5 292.62109375 714 305.288085938 714 c 0
 306.325195312 714.049804688 307.34375 714.07421875 308.342773438 714.07421875 c 0
 320.825195312 714.07421875 330.306640625 710.216796875 336.788085938 702.500976562 c 0
 341.2421875 697.198242188 343.469726562 689.9375 343.469726562 680.719726562 c 0
 343.469726562 675.453125 342.7421875 669.546875 341.288085938 663.000976562 c 0
 339.955078125 656.333984375 335.788085938 642.000976562 328.788085938 620.000976562 c 0
 321.788085938 598.000976562 316.288085938 577.66796875 312.288085938 559.000976562 c 0
 308.288085938 541.66796875 302.455078125 515.16796875 294.788085938 479.500976562 c 0
 287.12109375 443.833984375 280.954101562 416.666992188 276.287109375 398 c 1
 308.954101562 398 342.954101562 400 378.287109375 404 c 0
 413.620117188 408 445.620117188 412 474.287109375 416 c 0
 502.954101562 420 522.954101562 422.666992188 534.287109375 424 c 1
 534.954101562 428.666992188 536.12109375 435.5 537.788085938 444.5 c 0
 539.455078125 453.5 540.955078125 460.333007812 542.288085938 465 c 0
 551.62109375 506.333007812 557.62109375 533.666015625 560.288085938 546.999023438 c 0
 562.955078125 560.33203125 567.955078125 580.999023438 575.288085938 608.999023438 c 0
 582.62109375 636.999023438 587.288085938 653.999023438 589.288085938 659.999023438 c 0
 593.955078125 677.999023438 601.622070312 691.499023438 612.2890625 700.499023438 c 0
 622.956054688 709.499023438 634.623046875 713.999023438 647.290039062 713.999023438 c 0
 648.327148438 714.048828125 649.345703125 714.073242188 650.344726562 714.073242188 c 0
 662.827148438 714.073242188 672.30859375 710.215820312 678.790039062 702.5 c 0
 683.244140625 697.197265625 685.471679688 689.936523438 685.471679688 680.71875 c 0
 685.471679688 675.452148438 684.744140625 669.545898438 683.290039062 663 c 0
 680.623046875 650.333007812 674.290039062 624.333007812 664.290039062 585 c 0
 654.290039062 545.666992188 645.790039062 511.166992188 638.790039062 481.5 c 0
 631.790039062 451.833007812 622.290039062 409 610.290039062 353 c 0
 600.95703125 306.333007812 586.290039062 245 566.290039062 169 c 0
 546.290039062 93 533.95703125 44.6669921875 529.290039062 24 c 0
EndSplineSet
EndChar

StartChar: I
Encoding: 73 73 52
Width: 620
GlyphClass: 2
Flags: HMW
HStem: -13.998 80.001 -6.49902 77.999 612.001 89.001 625.002 82.999<266.728 293.395 285.062 293.395 285.062 409.394>
LayerCount: 2
Fore
SplineSet
499.400390625 -11 m 0x60
 484.067382812 -8.3330078125 458.221679688 -6.83203125 421.888671875 -6.4990234375 c 0x60
 414.625976562 -6.4326171875 407.383789062 -6.3994140625 400.161132812 -6.3994140625 c 0
 371.250976562 -6.3994140625 342.66015625 -6.9326171875 314.389648438 -7.9990234375 c 0
 279.056640625 -9.33203125 241.723632812 -10.6650390625 202.390625 -11.998046875 c 0
 163.057617188 -13.3310546875 135.724609375 -13.998046875 120.391601562 -13.998046875 c 0
 104.391601562 -13.998046875 93.224609375 -10.6650390625 86.8916015625 -3.998046875 c 0
 80.55859375 2.6689453125 78.7255859375 11.3359375 81.392578125 22.0029296875 c 0
 83.392578125 34.0029296875 89.0595703125 44.169921875 98.392578125 52.5029296875 c 0
 107.725585938 60.8359375 120.392578125 65.3359375 136.392578125 66.0029296875 c 0
 163.059570312 67.3359375 209.059570312 69.0029296875 274.392578125 71.0029296875 c 1
 307.059570312 185.002929688 336.7265625 305.669921875 363.393554688 433.002929688 c 0
 368.060546875 457.002929688 372.893554688 479.669921875 377.893554688 501.002929688 c 0
 382.893554688 522.3359375 386.393554688 537.668945312 388.393554688 547.001953125 c 0
 390.393554688 556.334960938 394.2265625 570.834960938 399.893554688 590.501953125 c 0
 405.560546875 610.168945312 408.727539062 621.668945312 409.39453125 625.001953125 c 1
 381.39453125 625.66796875 356.14453125 626.001953125 333.64453125 626.001953125 c 0
 311.14453125 626.001953125 291.39453125 625.66796875 274.39453125 625.001953125 c 0
 259.061523438 625.001953125 248.228515625 628.668945312 241.895507812 636.001953125 c 0
 235.5625 643.334960938 233.395507812 652.66796875 235.395507812 664.000976562 c 0
 237.395507812 676.000976562 243.395507812 686.333984375 253.395507812 695.000976562 c 0
 263.395507812 703.66796875 276.728515625 708.000976562 293.395507812 708.000976562 c 0x90
 345.62109375 709.556640625 393.995117188 710.334960938 438.516601562 710.334960938 c 0
 527.548828125 710.334960938 601.17578125 707.223632812 659.395507812 701.001953125 c 0
 682.090820312 698.732421875 693.438476562 688.495117188 693.438476562 670.291015625 c 0
 693.438476562 667.104492188 693.090820312 663.674804688 692.395507812 660.000976562 c 0
 691.0625 654.000976562 688.895507812 648.16796875 685.895507812 642.500976562 c 0
 682.895507812 636.833984375 679.228515625 631.333984375 674.895507812 626.000976562 c 0
 670.5625 620.66796875 665.0625 616.500976562 658.395507812 613.500976562 c 0
 651.728515625 610.500976562 644.395507812 610.000976562 636.395507812 612.000976562 c 0
 619.0625 615.333984375 574.729492188 619.000976562 503.396484375 623.000976562 c 1
 502.063476562 617.66796875 498.23046875 602.66796875 491.897460938 578.000976562 c 0
 485.564453125 553.333984375 480.564453125 533.666992188 476.897460938 519 c 0
 473.23046875 504.333007812 468.397460938 483.333007812 462.397460938 456 c 0
 456.397460938 428.666992188 450.397460938 401.666992188 444.397460938 375 c 0
 434.397460938 327.666992188 420.23046875 268.666992188 401.897460938 198 c 0
 383.564453125 127.333007812 372.731445312 85.3330078125 369.3984375 72 c 1
 396.731445312 72 427.731445312 71.8330078125 462.3984375 71.5 c 0
 497.065429688 71.1669921875 515.732421875 71 518.399414062 71 c 0
 533.06640625 71 542.399414062 67.5 546.399414062 60.5 c 0
 550.399414062 53.5 551.399414062 44.3330078125 549.399414062 33 c 0
 548.06640625 27 546.399414062 21.5 544.399414062 16.5 c 0
 542.399414062 11.5 539.399414062 6.5 535.399414062 1.5 c 0
 531.399414062 -3.5 526.232421875 -7.1669921875 519.899414062 -9.5 c 0
 513.56640625 -11.8330078125 506.733398438 -12.3330078125 499.400390625 -11 c 0x60
EndSplineSet
EndChar

StartChar: J
Encoding: 74 74 53
Width: 620
GlyphClass: 2
Flags: HMW
HStem: -35.001 101.001<286.944 294.277> 625 82.999<269.611 295.277>
VStem: 113.277 87.501 126.278 77
LayerCount: 2
Fore
SplineSet
451.275390625 215 m 0xe0
 432.608398438 155 414.110351562 106.33203125 395.77734375 68.9990234375 c 0
 377.444335938 31.666015625 359.27734375 4.9990234375 341.27734375 -11.0009765625 c 0
 323.27734375 -27.0009765625 304.27734375 -35.0009765625 284.27734375 -35.0009765625 c 0
 262.944335938 -35.0009765625 243.27734375 -31.0009765625 225.27734375 -23.0009765625 c 0
 207.27734375 -15.0009765625 192.110351562 -4.333984375 179.77734375 8.9990234375 c 0
 167.444335938 22.33203125 156.611328125 36.83203125 147.278320312 52.4990234375 c 0
 137.9453125 68.166015625 130.778320312 83.8330078125 125.778320312 99.5 c 0
 120.778320312 115.166992188 117.278320312 129.166992188 115.278320312 141.5 c 0
 113.278320312 153.833007812 112.611328125 163.666015625 113.278320312 170.999023438 c 0xe0
 113.278320312 176.999023438 114.611328125 184.166015625 117.278320312 192.499023438 c 0
 119.9453125 200.83203125 122.9453125 208.665039062 126.278320312 215.998046875 c 0
 129.611328125 223.331054688 134.778320312 229.831054688 141.778320312 235.498046875 c 0
 148.778320312 241.165039062 157.278320312 244.665039062 167.278320312 245.998046875 c 0
 170.833984375 246.64453125 174.145507812 246.967773438 177.211914062 246.967773438 c 0
 186.791992188 246.967773438 193.98046875 243.811523438 198.778320312 237.499023438 c 0
 202.927734375 232.0390625 205.001953125 225.649414062 205.001953125 218.329101562 c 0
 205.001953125 214.4765625 204.427734375 210.3671875 203.278320312 205.999023438 c 0xd0
 203.225585938 205.706054688 200.729492188 191.61328125 200.729492188 176.352539062 c 0
 200.729492188 166.751953125 202.079101562 155.80078125 204.779296875 143.5 c 0
 207.779296875 129.833007812 212.446289062 117.333007812 218.779296875 106 c 0
 225.112304688 94.6669921875 234.9453125 85.1669921875 248.278320312 77.5 c 0
 261.611328125 69.8330078125 277.611328125 66 296.278320312 66 c 0
 318.278320312 66 344.611328125 124 375.278320312 240 c 0
 378.611328125 254.666992188 388.778320312 301.666992188 405.778320312 381 c 0
 422.778320312 460.333007812 441.278320312 541.333007812 461.278320312 624 c 1
 420.079101562 625.200195312 381.51953125 625.799804688 345.600585938 625.799804688 c 0
 321.653320312 625.799804688 298.87890625 625.533203125 277.278320312 625 c 0
 261.9453125 625 250.9453125 628.666992188 244.278320312 636 c 0
 237.611328125 643.333007812 235.611328125 652.666015625 238.278320312 663.999023438 c 0
 240.278320312 675.999023438 246.4453125 686.33203125 256.778320312 694.999023438 c 0
 267.111328125 703.666015625 279.944335938 707.999023438 295.27734375 707.999023438 c 0
 347.502929688 709.5546875 395.9140625 710.333007812 440.508789062 710.333007812 c 0
 529.690429688 710.333007812 603.612304688 707.221679688 662.27734375 701 c 0
 684.97265625 698.73046875 696.3203125 688.493164062 696.3203125 670.2890625 c 0
 696.3203125 667.102539062 695.97265625 663.672851562 695.27734375 659.999023438 c 0
 693.944335938 653.999023438 691.77734375 648.166015625 688.77734375 642.499023438 c 0
 685.77734375 636.83203125 681.944335938 631.33203125 677.27734375 625.999023438 c 0
 672.610351562 620.666015625 666.943359375 616.499023438 660.276367188 613.499023438 c 0
 653.609375 610.499023438 646.609375 609.999023438 639.276367188 611.999023438 c 0
 618.609375 615.33203125 585.942382812 618.33203125 541.275390625 620.999023438 c 1
 536.608398438 601.666015625 530.44140625 572.333007812 522.774414062 533 c 0
 515.107421875 493.666992188 508.107421875 457.833984375 501.774414062 425.500976562 c 0
 495.44140625 393.16796875 487.608398438 357.16796875 478.275390625 317.500976562 c 0
 468.942382812 277.833984375 459.942382812 243.666992188 451.275390625 215 c 0xe0
EndSplineSet
EndChar

StartChar: K
Encoding: 75 75 54
Width: 620
GlyphClass: 2
Flags: W
HStem: -21.0752 21G<121.602 128.256 485.446 495.955> 694.072 20G<294.69 301.431>
LayerCount: 2
Fore
SplineSet
185.1328125 24 m 0
 180.465820312 10 171.6328125 -1.1689453125 158.6328125 -9.501953125 c 0
 146.596679688 -17.2177734375 134.416992188 -21.0751953125 122.094726562 -21.0751953125 c 0
 121.108398438 -21.0751953125 120.12109375 -21.05078125 119.1328125 -21.0009765625 c 0
 106.465820312 -21.0009765625 97.298828125 -16.5009765625 91.6318359375 -7.5009765625 c 0
 88.5244140625 -2.5654296875 86.970703125 3.4228515625 86.970703125 10.462890625 c 0
 86.970703125 16.2607421875 88.0244140625 22.7734375 90.1318359375 29.9990234375 c 0
 98.798828125 59.33203125 112.465820312 115.499023438 131.1328125 198.499023438 c 0
 149.799804688 281.499023438 167.799804688 366.999023438 185.1328125 454.999023438 c 0
 193.799804688 497.666015625 199.799804688 526.499023438 203.1328125 541.499023438 c 0
 206.465820312 556.499023438 211.965820312 578.166015625 219.6328125 606.499023438 c 0
 227.299804688 634.83203125 232.1328125 652.665039062 234.1328125 659.998046875 c 0
 238.799804688 677.998046875 246.466796875 691.498046875 257.133789062 700.498046875 c 0
 267.80078125 709.498046875 279.467773438 713.998046875 292.134765625 713.998046875 c 0
 293.171875 714.047851562 294.190429688 714.072265625 295.189453125 714.072265625 c 0
 307.671875 714.072265625 317.153320312 710.21484375 323.634765625 702.499023438 c 0
 328.088867188 697.196289062 330.31640625 689.935546875 330.31640625 680.717773438 c 0
 330.31640625 675.451171875 329.588867188 669.544921875 328.134765625 662.999023438 c 0
 324.801757812 646.999023438 316.134765625 611.999023438 302.134765625 557.999023438 c 0
 288.134765625 503.999023438 276.801757812 459.33203125 268.134765625 423.999023438 c 1
 296.134765625 447.33203125 338.134765625 482.665039062 394.134765625 529.998046875 c 0
 450.134765625 577.331054688 494.467773438 614.831054688 527.134765625 642.498046875 c 0
 559.801757812 670.165039062 580.801757812 687.33203125 590.134765625 693.999023438 c 0
 600.801757812 702.666015625 610.46875 708.499023438 619.135742188 711.499023438 c 0
 627.802734375 714.499023438 634.969726562 715.166015625 640.63671875 713.499023438 c 0
 646.303710938 711.83203125 651.13671875 708.33203125 655.13671875 702.999023438 c 0
 658.677734375 697.490234375 660.448242188 691.576171875 660.448242188 685.254882812 c 0
 660.448242188 670.155273438 650.344726562 652.736328125 630.13671875 632.999023438 c 0
 618.13671875 620.999023438 576.969726562 584.499023438 506.63671875 523.499023438 c 0
 436.303710938 462.499023438 374.13671875 409.33203125 320.13671875 363.999023438 c 1
 335.469726562 339.999023438 362.469726562 302.499023438 401.13671875 251.499023438 c 0
 439.803710938 200.499023438 473.303710938 155.666015625 501.63671875 116.999023438 c 0
 519.409179688 92.744140625 546.241210938 56.1259765625 546.241210938 40.0419921875 c 0
 546.241210938 28.9599609375 543.706054688 18.9462890625 538.635742188 9.9990234375 c 0
 532.96875 -0.0009765625 525.801757812 -7.66796875 517.134765625 -13.0009765625 c 0
 508.129882812 -18.5986328125 499.791015625 -21.3974609375 492.118164062 -21.3974609375 c 0
 478.774414062 -21.3974609375 467.446289062 -12.931640625 458.133789062 4 c 0
 453.466796875 12.6669921875 436.633789062 35.6669921875 407.633789062 73 c 0
 378.633789062 110.333007812 347.30078125 151.5 313.633789062 196.5 c 0
 279.966796875 241.5 255.799804688 277.333007812 241.1328125 304 c 1
 236.1328125 284 l 2
 234.1328125 272.666992188 217.1328125 186 185.1328125 24 c 0
EndSplineSet
EndChar

StartChar: L
Encoding: 76 76 55
Width: 620
GlyphClass: 2
Flags: HMW
HStem: -9.00488 81.0029
LayerCount: 2
Fore
SplineSet
502.734375 10 m 0
 458.734375 1.3330078125 393.407226562 -5.0048828125 306.740234375 -9.0048828125 c 0
 220.073242188 -13.0048828125 156.740234375 -15.0048828125 116.740234375 -15.0048828125 c 0
 104.073242188 -15.0048828125 94.90625 -10.5048828125 89.2392578125 -1.5048828125 c 0
 86.1318359375 3.4306640625 84.578125 9.4189453125 84.578125 16.458984375 c 0
 84.578125 22.2568359375 85.6318359375 28.76953125 87.7392578125 35.9951171875 c 0
 89.072265625 41.328125 101.405273438 79.4951171875 124.73828125 150.495117188 c 0
 148.071289062 221.495117188 169.071289062 289.995117188 187.73828125 355.995117188 c 0
 196.405273438 385.995117188 209.405273438 440.995117188 226.73828125 520.995117188 c 0
 244.071289062 600.995117188 253.404296875 644.328125 254.737304688 650.995117188 c 0
 259.404296875 668.995117188 267.237304688 682.662109375 278.237304688 691.995117188 c 0
 289.237304688 701.328125 300.737304688 705.995117188 312.737304688 705.995117188 c 0
 313.774414062 706.044921875 314.793945312 706.069335938 315.794921875 706.069335938 c 0
 328.299804688 706.069335938 337.947265625 702.211914062 344.737304688 694.49609375 c 0
 349.21875 689.404296875 351.458984375 682.506835938 351.458984375 673.8046875 c 0
 351.458984375 668.265625 350.551757812 661.997070312 348.736328125 654.99609375 c 0
 344.069335938 635.663085938 337.40234375 609.330078125 328.735351562 575.997070312 c 0
 320.068359375 542.6640625 309.068359375 500.6640625 295.735351562 449.997070312 c 0
 282.40234375 399.330078125 271.069335938 355.330078125 261.736328125 317.997070312 c 0
 254.403320312 289.997070312 242.5703125 249.330078125 226.237304688 195.997070312 c 0
 209.904296875 142.6640625 198.404296875 101.331054688 191.737304688 71.998046875 c 1
 196.260742188 71.9404296875 200.853515625 71.9111328125 205.514648438 71.9111328125 c 0
 254.448242188 71.9111328125 311.022460938 75.107421875 375.237304688 81.498046875 c 0
 445.5703125 88.498046875 493.0703125 95.3310546875 517.737304688 101.998046875 c 0
 525.737304688 103.998046875 532.404296875 103.665039062 537.737304688 100.998046875 c 0
 543.0703125 98.3310546875 546.903320312 94.3310546875 549.236328125 88.998046875 c 0
 551.569335938 83.6650390625 552.90234375 77.83203125 553.235351562 71.4990234375 c 0
 553.568359375 65.166015625 553.401367188 59.3330078125 552.734375 54 c 0
 550.067382812 42 545.067382812 32.3330078125 537.734375 25 c 0
 530.401367188 17.6669921875 518.734375 12.6669921875 502.734375 10 c 0
EndSplineSet
EndChar

StartChar: M
Encoding: 77 77 56
Width: 620
GlyphClass: 2
Flags: HMW
HStem: -9.99414 21G<94.1192 100.119>
VStem: 264.116 97.001 481.116 89.001
LayerCount: 2
Fore
SplineSet
154.118164062 59 m 0
 150.118164062 37.6669921875 142.119140625 20.8388671875 130.119140625 8.505859375 c 0
 118.119140625 -3.8271484375 106.119140625 -9.994140625 94.119140625 -9.994140625 c 0
 79.302734375 -9.544921875 71.89453125 1.7900390625 71.89453125 24.009765625 c 0
 71.89453125 34.783203125 73.6357421875 48.115234375 77.119140625 64.0068359375 c 0
 79.119140625 72.0068359375 83.2861328125 85.673828125 89.619140625 105.006835938 c 0
 95.9521484375 124.33984375 104.119140625 149.672851562 114.119140625 181.005859375 c 0
 124.119140625 212.338867188 132.786132812 239.671875 140.119140625 263.004882812 c 0
 142.119140625 271.004882812 145.786132812 283.337890625 151.119140625 300.004882812 c 0
 165.786132812 349.337890625 177.619140625 387.837890625 186.619140625 415.504882812 c 0
 195.619140625 443.171875 206.786132812 477.671875 220.119140625 519.004882812 c 0
 233.452148438 560.337890625 244.78515625 592.837890625 254.118164062 616.504882812 c 0
 263.451171875 640.171875 271.451171875 656.671875 278.118164062 666.004882812 c 0
 287.451171875 680.004882812 299.451171875 690.171875 314.118164062 696.504882812 c 0
 326.234375 701.736328125 337.213867188 704.352539062 347.0546875 704.352539062 c 0
 349.126953125 704.352539062 351.147460938 704.236328125 353.118164062 704.004882812 c 0
 381.118164062 704.004882812 395.118164062 691.671875 395.118164062 667.004882812 c 0
 395.178710938 664.336914062 395.208984375 661.510742188 395.208984375 658.526367188 c 0
 395.208984375 628.69140625 392.178710938 583.017578125 386.118164062 521.504882812 c 0
 379.451171875 453.837890625 370.784179688 376.670898438 360.1171875 290.00390625 c 0
 349.450195312 203.336914062 342.450195312 146.00390625 339.1171875 118.00390625 c 1
 367.1171875 212.00390625 393.784179688 296.670898438 419.1171875 372.00390625 c 0
 437.1171875 427.336914062 457.450195312 483.00390625 480.1171875 539.00390625 c 0
 502.784179688 595.00390625 521.1171875 637.670898438 535.1171875 667.00390625 c 0
 539.784179688 677.00390625 546.784179688 685.170898438 556.1171875 691.50390625 c 0
 565.450195312 697.836914062 574.450195312 701.669921875 583.1171875 703.002929688 c 0
 591.784179688 704.3359375 600.1171875 704.668945312 608.1171875 704.001953125 c 2
 612.1171875 704.001953125 l 1
 624.6171875 704.001953125 l 2
 627.6171875 704.001953125 631.784179688 703.168945312 637.1171875 701.501953125 c 0
 642.450195312 699.834960938 646.6171875 697.66796875 649.6171875 695.000976562 c 0
 652.6171875 692.333984375 655.1171875 688.166992188 657.1171875 682.5 c 0
 659.1171875 676.833007812 659.784179688 670 659.1171875 662 c 0
 657.1171875 642 641.784179688 544.333007812 613.1171875 369 c 0
 584.450195312 193.666992188 570.1171875 94.6669921875 570.1171875 72 c 0
 569.450195312 32 556.783203125 6.6669921875 532.116210938 -4 c 0
 526.021484375 -6.4375 520.309570312 -7.6572265625 514.98046875 -7.6572265625 c 0
 508.65234375 -7.6572265625 502.864257812 -5.9375 497.616210938 -2.5 c 0
 487.94921875 3.8330078125 482.44921875 17.666015625 481.116210938 38.9990234375 c 0
 481.017578125 40.6533203125 480.967773438 42.513671875 480.967773438 44.580078125 c 0
 480.967773438 98.29296875 514.350585938 291.099609375 581.115234375 623 c 1
 541.115234375 526.333007812 509.448242188 438.333007812 486.115234375 359 c 0
 462.782226562 283 438.44921875 210.833007812 413.116210938 142.5 c 0
 387.783203125 74.1669921875 370.450195312 32.333984375 361.1171875 17.0009765625 c 0
 350.450195312 1.0009765625 331.1171875 -6.9990234375 303.1171875 -6.9990234375 c 0
 290.450195312 -7.666015625 280.783203125 -5.666015625 274.116210938 -0.9990234375 c 0
 267.44921875 3.66796875 264.116210938 10.3349609375 264.116210938 19.001953125 c 0
 264.116210938 51.001953125 268.783203125 124.501953125 278.116210938 239.501953125 c 0
 287.44921875 354.501953125 297.116210938 464.668945312 307.116210938 570.001953125 c 1
 284.616210938 498.001953125 l 2
 276.283203125 471.334960938 269.283203125 448.16796875 263.616210938 428.500976562 c 0
 257.94921875 408.833984375 249.44921875 379.666992188 238.116210938 341 c 0
 226.783203125 302.333007812 218.116210938 273 212.116210938 253 c 0
 204.116210938 225 195.44921875 196.166992188 186.116210938 166.5 c 0
 176.783203125 136.833007812 169.450195312 113.5 164.1171875 96.5 c 0
 158.784179688 79.5 155.451171875 67 154.118164062 59 c 0
EndSplineSet
EndChar

StartChar: N
Encoding: 78 78 57
Width: 620
GlyphClass: 2
Flags: W
HStem: -12.0664 21G<112.325 118.606>
LayerCount: 2
Fore
SplineSet
465.356445312 -14 m 0
 453.356445312 -14.6669921875 444.182617188 -12.5029296875 437.849609375 -7.5029296875 c 0
 431.516601562 -2.5029296875 427.68359375 4.330078125 426.350585938 12.9970703125 c 0
 423.68359375 26.330078125 415.516601562 55.6630859375 401.849609375 100.99609375 c 0
 388.182617188 146.329101562 374.182617188 193.49609375 359.849609375 242.49609375 c 0
 345.516601562 291.49609375 331.18359375 346.329101562 316.850585938 406.99609375 c 0
 302.517578125 467.663085938 293.350585938 519.330078125 289.350585938 561.997070312 c 1
 276.017578125 489.330078125 261.684570312 421.663085938 246.3515625 358.99609375 c 0
 231.018554688 296.329101562 214.8515625 232.49609375 197.8515625 167.49609375 c 0
 180.8515625 102.49609375 171.018554688 62.99609375 168.3515625 48.99609375 c 0
 164.3515625 27.6630859375 156.8515625 11.99609375 145.8515625 1.99609375 c 0
 135.5390625 -7.37890625 124.495117188 -12.06640625 112.717773438 -12.06640625 c 0
 111.932617188 -12.06640625 111.143554688 -12.0458984375 110.3515625 -12.00390625 c 0
 97.6845703125 -12.00390625 90.3515625 -6.3369140625 88.3515625 4.99609375 c 0
 87.751953125 8.396484375 87.451171875 12.2763671875 87.451171875 16.63671875 c 0
 87.451171875 26.8095703125 89.0849609375 39.5966796875 92.3515625 54.99609375 c 0
 95.0185546875 68.3291015625 107.685546875 119.99609375 130.352539062 209.99609375 c 0
 153.01953125 299.99609375 172.686523438 378.663085938 189.353515625 445.99609375 c 0
 206.020507812 513.329101562 220.353515625 577.99609375 232.353515625 639.99609375 c 0
 234.353515625 653.329101562 238.353515625 664.662109375 244.353515625 673.995117188 c 0
 250.353515625 683.328125 257.353515625 690.161132812 265.353515625 694.494140625 c 0
 273.353515625 698.827148438 281.353515625 701.827148438 289.353515625 703.494140625 c 0
 297.353515625 705.161132812 305.020507812 705.328125 312.353515625 703.995117188 c 0
 339.686523438 703.995117188 354.01953125 691.662109375 355.352539062 666.995117188 c 0
 358.01953125 622.995117188 375.186523438 541.995117188 406.853515625 423.995117188 c 0
 438.520507812 305.995117188 466.353515625 210.662109375 490.353515625 137.995117188 c 1
 507.020507812 200.662109375 528.6875 291.829101562 555.354492188 411.49609375 c 0
 582.021484375 531.163085938 597.354492188 609.99609375 601.354492188 647.99609375 c 0
 603.354492188 663.99609375 609.521484375 677.49609375 619.854492188 688.49609375 c 0
 630.1875 699.49609375 641.354492188 704.99609375 653.354492188 704.99609375 c 0
 660.021484375 704.99609375 665.688476562 704.163085938 670.35546875 702.49609375 c 0
 675.022460938 700.829101562 678.522460938 698.829101562 680.85546875 696.49609375 c 0
 683.188476562 694.163085938 684.688476562 690.330078125 685.35546875 684.997070312 c 0
 686.022460938 679.6640625 686.189453125 674.831054688 685.856445312 670.498046875 c 0
 685.5234375 666.165039062 685.0234375 659.33203125 684.356445312 649.999023438 c 0
 683.689453125 639.33203125 672.356445312 585.83203125 650.356445312 489.499023438 c 0
 628.356445312 393.166015625 604.189453125 293.333007812 577.856445312 190 c 0
 551.5234375 86.6669921875 533.0234375 27 522.356445312 11 c 0
 512.356445312 -5.6669921875 493.356445312 -14 465.356445312 -14 c 0
EndSplineSet
EndChar

StartChar: O
Encoding: 79 79 58
Width: 620
GlyphClass: 2
Flags: HMW
HStem: -24 83.998<283.035 284.039> 636.997 81.001<472.037 483.703>
LayerCount: 2
Fore
SplineSet
271.372070312 -24 m 0
 233.372070312 -23.3330078125 202.03515625 -10.8349609375 177.368164062 13.498046875 c 0
 152.701171875 37.8310546875 136.868164062 70.498046875 129.868164062 111.498046875 c 0
 127.2890625 126.603515625 126 142.228515625 126 158.375 c 0
 126 186.053710938 129.7890625 215.260742188 137.368164062 245.998046875 c 0
 138.03515625 249.331054688 139.368164062 254.998046875 141.368164062 262.998046875 c 0
 148.03515625 292.998046875 153.702148438 316.998046875 158.369140625 334.998046875 c 0
 163.036132812 352.998046875 169.869140625 376.998046875 178.869140625 406.998046875 c 0
 187.869140625 436.998046875 198.036132812 465.498046875 209.369140625 492.498046875 c 0
 220.702148438 519.498046875 233.369140625 544.998046875 247.369140625 568.998046875 c 0
 273.369140625 612.331054688 309.202148438 647.998046875 354.869140625 675.998046875 c 0
 400.536132812 703.998046875 447.703125 717.998046875 496.370117188 717.998046875 c 0
 521.037109375 717.998046875 543.704101562 712.831054688 564.37109375 702.498046875 c 0
 585.038085938 692.165039062 602.205078125 677.33203125 615.872070312 657.999023438 c 0
 629.5390625 638.666015625 638.872070312 613.999023438 643.872070312 583.999023438 c 0
 646.291015625 569.483398438 647.500976562 554.108398438 647.500976562 537.875976562 c 0
 647.500976562 520.560546875 646.125 502.267578125 643.372070312 482.999023438 c 0
 638.0390625 449.666015625 631.206054688 413.999023438 622.873046875 375.999023438 c 0
 614.540039062 337.999023438 604.540039062 299.499023438 592.873046875 260.499023438 c 0
 581.206054688 221.499023438 570.0390625 190.666015625 559.372070312 167.999023438 c 0
 544.705078125 136.666015625 528.705078125 109.666015625 511.372070312 86.9990234375 c 0
 494.0390625 64.33203125 476.5390625 45.83203125 458.872070312 31.4990234375 c 0
 441.205078125 17.166015625 422.038085938 5.8330078125 401.37109375 -2.5 c 0
 380.704101562 -10.8330078125 360.204101562 -16.5 339.87109375 -19.5 c 0
 319.538085938 -22.5 296.705078125 -24 271.372070312 -24 c 0
290.368164062 59.998046875 m 0
 307.03515625 59.998046875 323.702148438 62.1650390625 340.369140625 66.498046875 c 0
 357.036132812 70.8310546875 373.369140625 77.8310546875 389.369140625 87.498046875 c 0
 405.369140625 97.1650390625 420.869140625 109.998046875 435.869140625 125.998046875 c 0
 450.869140625 141.998046875 463.702148438 160.665039062 474.369140625 181.998046875 c 0
 478.369140625 190.665039062 485.536132812 210.665039062 495.869140625 241.998046875 c 0
 506.202148438 273.331054688 517.03515625 310.6640625 528.368164062 353.997070312 c 0
 539.701171875 397.330078125 548.701171875 439.997070312 555.368164062 481.997070312 c 0
 557.30078125 494.750976562 558.266601562 506.903320312 558.266601562 518.453125 c 0
 558.266601562 546.748046875 552.467773438 571.4296875 540.869140625 592.497070312 c 0
 524.536132812 622.1640625 500.036132812 636.997070312 467.369140625 636.997070312 c 0
 434.036132812 636.997070312 403.036132812 623.830078125 374.369140625 597.497070312 c 0
 345.702148438 571.1640625 320.702148438 534.331054688 299.369140625 486.998046875 c 0
 270.702148438 423.665039062 248.03515625 348.665039062 231.368164062 261.998046875 c 0
 227.368164062 240.665039062 224.53515625 220.998046875 222.868164062 202.998046875 c 0
 221.826171875 191.749023438 221.305664062 180.499023438 221.305664062 169.25 c 0
 221.305664062 162.499023438 221.493164062 155.749023438 221.868164062 148.998046875 c 0
 222.868164062 130.998046875 225.701171875 115.498046875 230.368164062 102.498046875 c 0
 235.03515625 89.498046875 242.53515625 79.1650390625 252.868164062 71.498046875 c 0
 263.201171875 63.8310546875 275.701171875 59.998046875 290.368164062 59.998046875 c 0
EndSplineSet
EndChar

StartChar: P
Encoding: 80 80 59
Width: 620
GlyphClass: 2
Flags: HMW
HStem: 230.001 82<342.197 351.197 342.197 367.863> 630.003 80.998<438.529 489.196>
LayerCount: 2
Fore
SplineSet
203.198242188 24 m 0
 200.53125 10 192.694335938 -0.830078125 179.694335938 -8.4970703125 c 0
 167.734375 -15.55078125 155.633789062 -19.0771484375 143.392578125 -19.0771484375 c 0
 142.327148438 -19.0771484375 141.26171875 -19.05078125 140.194335938 -18.9970703125 c 0
 126.861328125 -18.9970703125 117.028320312 -14.830078125 110.6953125 -6.4970703125 c 0
 107.2578125 -1.9736328125 105.538085938 3.6796875 105.538085938 10.462890625 c 0
 105.538085938 16.17578125 106.7578125 22.6884765625 109.1953125 30.0029296875 c 0
 111.862304688 40.669921875 115.862304688 56.5029296875 121.1953125 77.5029296875 c 0
 126.528320312 98.5029296875 132.528320312 124.502929688 139.1953125 155.502929688 c 0
 145.862304688 186.502929688 152.1953125 216.502929688 158.1953125 245.502929688 c 0
 164.1953125 274.502929688 171.528320312 310.002929688 180.1953125 352.002929688 c 0
 188.862304688 394.002929688 196.1953125 429.002929688 202.1953125 457.002929688 c 0
 211.528320312 500.3359375 225.1953125 557.668945312 243.1953125 629.001953125 c 1
 239.1953125 634.001953125 l 2
 236.528320312 642.001953125 236.861328125 650.168945312 240.194335938 658.501953125 c 0
 243.52734375 666.834960938 248.52734375 674.334960938 255.194335938 681.001953125 c 0
 261.861328125 687.668945312 268.528320312 691.668945312 275.1953125 693.001953125 c 0
 299.1953125 698.334960938 333.1953125 702.66796875 377.1953125 706.000976562 c 0
 421.1953125 709.333984375 451.528320312 711.000976562 468.1953125 711.000976562 c 0
 510.1953125 711.000976562 545.862304688 703.000976562 575.1953125 687.000976562 c 0
 604.528320312 671.000976562 625.1953125 646.833984375 637.1953125 614.500976562 c 0
 643.9453125 596.313476562 647.3203125 576.174804688 647.3203125 554.0859375 c 0
 647.3203125 536.904296875 645.278320312 518.54296875 641.1953125 499.000976562 c 0
 632.528320312 461.66796875 618.6953125 426.500976562 599.6953125 393.500976562 c 0
 580.6953125 360.500976562 558.6953125 332.000976562 533.6953125 308.000976562 c 0
 508.6953125 284.000976562 480.362304688 265.000976562 448.6953125 251.000976562 c 0
 417.028320312 237.000976562 384.528320312 230.000976562 351.1953125 230.000976562 c 0
 302.528320312 230.000976562 265.1953125 233.66796875 239.1953125 241.000976562 c 1
 233.862304688 213.000976562 229.029296875 186.16796875 224.696289062 160.500976562 c 0
 220.36328125 134.833984375 216.030273438 108.166992188 211.697265625 80.5 c 0
 207.364257812 52.8330078125 204.53125 34 203.198242188 24 c 0
449.194335938 630.002929688 m 0
 427.861328125 630.002929688 388.194335938 627.333984375 330.194335938 622.000976562 c 1
 326.861328125 608.66796875 320.528320312 584.000976562 311.1953125 548.000976562 c 0
 301.862304688 512.000976562 292.529296875 475.000976562 283.196289062 437.000976562 c 0
 273.86328125 399.000976562 265.196289062 362.000976562 257.196289062 326.000976562 c 1
 278.446289062 316.625976562 304.67578125 311.938476562 335.885742188 311.938476562 c 0
 337.966796875 311.938476562 340.0703125 311.958984375 342.196289062 312.000976562 c 0
 360.196289062 312.000976562 376.86328125 313.333984375 392.196289062 316.000976562 c 0
 407.529296875 318.66796875 421.196289062 322.334960938 433.196289062 327.001953125 c 0
 445.196289062 331.668945312 456.529296875 337.8359375 467.196289062 345.502929688 c 0
 477.86328125 353.169921875 486.86328125 360.836914062 494.196289062 368.50390625 c 0
 501.529296875 376.170898438 508.362304688 385.170898438 514.6953125 395.50390625 c 0
 521.028320312 405.836914062 526.1953125 415.169921875 530.1953125 423.502929688 c 0
 534.1953125 431.8359375 538.028320312 441.502929688 541.6953125 452.502929688 c 0
 545.362304688 463.502929688 548.1953125 472.502929688 550.1953125 479.502929688 c 0
 552.1953125 486.502929688 554.528320312 495.002929688 557.1953125 505.002929688 c 0
 559.595703125 516.203125 560.795898438 526.743164062 560.795898438 536.623046875 c 0
 560.795898438 543.209960938 560.26171875 549.502929688 559.1953125 555.502929688 c 0
 556.528320312 570.502929688 551.361328125 582.502929688 543.694335938 591.502929688 c 0
 536.02734375 600.502929688 526.694335938 608.002929688 515.694335938 614.002929688 c 0
 504.694335938 620.002929688 493.52734375 624.169921875 482.194335938 626.502929688 c 0
 470.861328125 628.8359375 459.861328125 630.002929688 449.194335938 630.002929688 c 0
EndSplineSet
EndChar

StartChar: Q
Encoding: 81 81 60
Width: 620
GlyphClass: 2
Flags: HMW
HStem: -23.9961 84.002<278.707 322.707> 637.005 80.9971<470.375 482.04>
LayerCount: 2
Fore
SplineSet
471.708007812 -206 m 0
 464.154296875 -210.443359375 456.749023438 -212.6640625 449.491210938 -212.6640625 c 0
 445.859375 -212.6640625 442.264648438 -212.107421875 438.70703125 -210.99609375 c 0
 428.040039062 -207.663085938 419.70703125 -199.99609375 413.70703125 -187.99609375 c 0
 407.70703125 -175.99609375 398.20703125 -153.663085938 385.20703125 -120.99609375 c 0
 372.20703125 -88.3291015625 359.70703125 -54.99609375 347.70703125 -20.99609375 c 1
 334.374023438 -23.1298828125 319.975585938 -24.1962890625 304.510742188 -24.1962890625 c 0
 300.642578125 -24.1962890625 296.708007812 -24.1298828125 292.70703125 -23.99609375 c 0
 264.70703125 -23.99609375 240.374023438 -19.3291015625 219.70703125 -9.99609375 c 0
 199.040039062 -0.6630859375 182.040039062 12.3369140625 168.70703125 29.00390625 c 0
 155.374023438 45.6708984375 145.20703125 65.50390625 138.20703125 88.50390625 c 0
 130.797851562 112.848632812 127.180664062 138.78515625 127.180664062 166.670898438 c 0
 127.180664062 191.768554688 130.022460938 218.212890625 135.70703125 246.002929688 c 0
 161.040039062 375.3359375 197.70703125 481.668945312 245.70703125 565.001953125 c 0
 271.70703125 609.001953125 307.540039062 645.501953125 353.20703125 674.501953125 c 0
 398.874023438 703.501953125 446.041015625 718.001953125 494.708007812 718.001953125 c 0
 520.041015625 718.001953125 542.708007812 713.334960938 562.708007812 704.001953125 c 0
 582.708007812 694.668945312 599.541015625 681.001953125 613.208007812 663.001953125 c 0
 626.875 645.001953125 636.208007812 620.668945312 641.208007812 590.001953125 c 0
 643.626953125 575.163085938 644.836914062 559.154296875 644.836914062 541.974609375 c 0
 644.836914062 523.6484375 643.4609375 503.991210938 640.708007812 483.000976562 c 0
 634.708007812 437.000976562 623.375 380.833984375 606.708007812 314.500976562 c 0
 590.041015625 248.16796875 574.374023438 197.66796875 559.70703125 163.000976562 c 0
 529.70703125 91.0009765625 487.374023438 39.66796875 432.70703125 9.0009765625 c 1
 440.70703125 -10.33203125 449.374023438 -29.9990234375 458.70703125 -49.9990234375 c 0
 468.040039062 -69.9990234375 477.040039062 -88.666015625 485.70703125 -105.999023438 c 0
 494.374023438 -123.33203125 500.374023438 -134.999023438 503.70703125 -140.999023438 c 0
 506.374023438 -148.33203125 506.041015625 -156.33203125 502.708007812 -164.999023438 c 0
 499.375 -173.666015625 494.708007812 -181.833007812 488.708007812 -189.5 c 0
 482.708007812 -197.166992188 477.041015625 -202.666992188 471.708007812 -206 c 0
229.70703125 262.004882812 m 0
 225.666992188 238.974609375 223.646484375 217.353515625 223.646484375 197.139648438 c 0
 223.646484375 184 224.5 171.456054688 226.20703125 159.505859375 c 0
 230.540039062 129.172851562 240.040039062 105.005859375 254.70703125 87.005859375 c 0
 269.374023438 69.005859375 288.70703125 60.005859375 312.70703125 60.005859375 c 2
 322.70703125 60.005859375 l 1
 314.70703125 90.005859375 309.374023438 113.338867188 306.70703125 130.005859375 c 0
 305.928710938 136.561523438 305.540039062 142.802734375 305.540039062 148.729492188 c 0
 305.540039062 178.358398438 315.26171875 200.1171875 334.706054688 214.005859375 c 0
 341.373046875 218.672851562 348.040039062 221.505859375 354.70703125 222.505859375 c 0
 361.374023438 223.505859375 367.20703125 221.505859375 372.20703125 216.505859375 c 0
 377.20703125 211.505859375 380.040039062 204.005859375 380.70703125 194.005859375 c 0
 384.040039062 160.672851562 392.040039062 124.33984375 404.70703125 85.0068359375 c 1
 436.040039062 104.33984375 460.70703125 135.33984375 478.70703125 178.006835938 c 0
 482.70703125 188.006835938 489.20703125 208.173828125 498.20703125 238.506835938 c 0
 507.20703125 268.83984375 517.374023438 306.672851562 528.70703125 352.005859375 c 0
 540.040039062 397.338867188 548.373046875 440.671875 553.706054688 482.004882812 c 0
 555.342773438 494.9140625 556.16015625 507.103515625 556.16015625 518.575195312 c 0
 556.16015625 549.1640625 550.342773438 574.641601562 538.706054688 595.004882812 c 0
 522.706054688 623.004882812 498.373046875 637.004882812 465.706054688 637.004882812 c 0
 431.706054688 637.004882812 400.206054688 624.004882812 371.206054688 598.004882812 c 0
 342.206054688 572.004882812 317.373046875 535.671875 296.706054688 489.004882812 c 0
 265.373046875 419.671875 243.040039062 344.004882812 229.70703125 262.004882812 c 0
EndSplineSet
EndChar

StartChar: R
Encoding: 82 82 61
Width: 620
GlyphClass: 2
Flags: W
HStem: -19.0801 21G<126.931 133.878 481.138 493.583> 694.06 20G<283.189 290.091>
VStem: 545.035 88.5586<409.03 519.094>
LayerCount: 2
Fore
SplineSet
187.137695312 24 m 0
 184.470703125 10 176.805664062 -0.8330078125 164.138671875 -8.5 c 0
 152.485351562 -15.5537109375 140.268554688 -19.080078125 127.487304688 -19.080078125 c 0
 126.375 -19.080078125 125.258789062 -19.0537109375 124.138671875 -19 c 0
 111.471679688 -19 101.8046875 -14.8330078125 95.1376953125 -6.5 c 0
 91.43359375 -1.8701171875 89.58203125 3.9423828125 89.58203125 10.939453125 c 0
 89.58203125 16.5361328125 90.7666015625 22.8896484375 93.13671875 30 c 0
 103.803710938 64.6669921875 111.970703125 94.1669921875 117.637695312 118.5 c 0
 123.3046875 142.833007812 136.471679688 202.666015625 157.138671875 297.999023438 c 0
 159.805664062 310.666015625 166.805664062 337.833007812 178.138671875 379.5 c 0
 189.471679688 421.166992188 198.471679688 460.666992188 205.138671875 498 c 0
 209.805664062 520.666992188 215.305664062 551.333984375 221.638671875 590.000976562 c 0
 227.971679688 628.66796875 232.138671875 652.000976562 234.138671875 660.000976562 c 2
 235.138671875 666.000976562 l 2
 237.138671875 678.66796875 243.805664062 689.66796875 255.138671875 699.000976562 c 0
 265.177734375 709.040039062 276.693359375 714.059570312 289.684570312 714.059570312 c 0
 290.497070312 714.059570312 291.314453125 714.040039062 292.138671875 714.000976562 c 0
 304.138671875 714.000976562 313.471679688 711.333984375 320.138671875 706.000976562 c 1
 370.805664062 703.333984375 415.805664062 696.166992188 455.138671875 684.5 c 0
 494.471679688 672.833007812 526.138671875 658.333007812 550.138671875 641 c 0
 574.138671875 623.666992188 593.138671875 604 607.138671875 582 c 0
 621.138671875 560 629.471679688 538 632.138671875 516 c 0
 633.108398438 508 633.59375 499.955078125 633.59375 491.8671875 c 0
 633.59375 477.712890625 632.108398438 463.423828125 629.138671875 449 c 0
 625.138671875 432.333007812 619.471679688 417 612.138671875 403 c 0
 604.805664062 389 596.305664062 376.833007812 586.638671875 366.5 c 0
 576.971679688 356.166992188 565.3046875 347 551.637695312 339 c 0
 537.970703125 331 523.803710938 324.166992188 509.13671875 318.5 c 0
 494.469726562 312.833007812 477.469726562 307.833007812 458.13671875 303.5 c 0
 438.803710938 299.166992188 419.970703125 295.833984375 401.637695312 293.500976562 c 0
 383.3046875 291.16796875 362.471679688 289.000976562 339.138671875 287.000976562 c 1
 393.805664062 252.333984375 439.638671875 211.833984375 476.638671875 165.500976562 c 0
 477.5078125 164.413085938 543.244140625 81.5439453125 543.244140625 43.2431640625 c 0
 543.244140625 32.6953125 540.708984375 22.9482421875 535.638671875 14.0009765625 c 0
 529.971679688 4.0009765625 522.471679688 -3.9990234375 513.138671875 -9.9990234375 c 0
 505.31640625 -15.3759765625 497.494140625 -18.0654296875 489.671875 -18.0654296875 c 0
 481.137695312 -16.998046875 l 0
 470.470703125 -14.3310546875 462.137695312 -6.3310546875 456.137695312 7.001953125 c 0
 449.470703125 21.001953125 439.303710938 38.1689453125 425.63671875 58.501953125 c 0
 411.969726562 78.8349609375 395.13671875 101.501953125 375.13671875 126.501953125 c 0
 355.13671875 151.501953125 331.469726562 176.168945312 304.13671875 200.501953125 c 0
 276.803710938 224.834960938 249.470703125 244.334960938 222.137695312 259.001953125 c 1
 214.8046875 220.334960938 207.637695312 174.66796875 200.637695312 122.000976562 c 0
 193.637695312 69.333984375 189.137695312 36.6669921875 187.137695312 24 c 0
289.139648438 498 m 0
 287.806640625 490.666992188 285.310546875 480.833984375 281.643554688 468.500976562 c 0
 277.9765625 456.16796875 274.643554688 445.16796875 271.643554688 435.500976562 c 0
 268.643554688 425.833984375 264.4765625 412.500976562 259.143554688 395.500976562 c 0
 253.810546875 378.500976562 249.810546875 366.333984375 247.143554688 359.000976562 c 1
 254.381835938 357.4765625 263.795898438 356.71484375 275.387695312 356.71484375 c 0
 284.081054688 356.71484375 294 357.143554688 305.143554688 358.000976562 c 0
 330.4765625 359.333984375 352.309570312 360.833984375 370.642578125 362.500976562 c 0
 388.975585938 364.16796875 407.142578125 366.500976562 425.142578125 369.500976562 c 0
 443.142578125 372.500976562 458.309570312 376.000976562 470.642578125 380.000976562 c 0
 482.975585938 384.000976562 494.30859375 389.000976562 504.641601562 395.000976562 c 0
 514.974609375 401.000976562 523.307617188 408.16796875 529.640625 416.500976562 c 0
 535.973632812 424.833984375 540.473632812 434.333984375 543.140625 445.000976562 c 0
 544.404296875 450.895507812 545.03515625 456.724609375 545.03515625 462.486328125 c 0
 545.03515625 474.969726562 542.0703125 487.141601562 536.140625 499.000976562 c 0
 527.473632812 516.333984375 514.806640625 531.666992188 498.139648438 545 c 0
 481.47265625 558.333007812 461.97265625 570.5 439.639648438 581.5 c 0
 417.306640625 592.5 395.639648438 601.333007812 374.639648438 608 c 0
 353.639648438 614.666992188 333.47265625 620 314.139648438 624 c 1
 304.139648438 575.333007812 295.806640625 533.333007812 289.139648438 498 c 0
EndSplineSet
EndChar

